<?xml version="1.0" encoding="utf-8"?>
<!-- Generator: Adobe Illustrator 16.0.0, SVG Export Plug-In . SVG Version: 6.00 Build 0)  -->
<!DOCTYPE svg PUBLIC "-//W3C//DTD SVG 1.1//EN" "http://www.w3.org/Graphics/SVG/1.1/DTD/svg11.dtd">
<svg version="1.1" id="Layer_1" xmlns="http://www.w3.org/2000/svg" xmlns:xlink="http://www.w3.org/1999/xlink" x="0px" y="0px"
	 width="1000px" height="1000px" viewBox="0 0 1000 1000" enable-background="new 0 0 1000 1000" xml:space="preserve">
<g>
	<g>
		<g>
			<path fill="#005373" d="M48.032,139.178h109.045L504.659,471.89l347.582-332.711h109.046v609.68H853.604V255.018L506.022,581.632
				h-5.452L152.988,255.889v492.97H48.032V139.178z"/>
		</g>
	</g>
	<g opacity="0.6">
		<g>
			<g>
				<polygon fill="#23A9E1" points="734.738,479.905 612.096,480.807 553.786,387.987 546.005,388.041 608.207,487.123 
					734.785,486.186 				"/>
			</g>
			<g>
				<polygon fill="#23A9E1" points="1078.182,471.962 1022.862,383.903 1015.058,383.964 1074.301,478.275 1200.877,477.339 
					1200.828,471.058 				"/>
			</g>
			<g>
				<polygon fill="#23A9E1" points="340.362,937.617 341.352,939.168 506.385,937.951 587.992,803.754 587.965,803.609 
					580.157,803.666 580.268,803.805 502.466,931.693 345.183,932.848 265.601,806.121 341.711,680.945 341.648,672.01 
					339.453,672.025 257.846,806.18 				"/>
			</g>
			<g>
				<polygon fill="#23A9E1" points="263.234,543.195 262.243,541.6 111.141,542.713 111.185,549.051 258.441,547.971 
					337.975,674.699 261.521,800.455 261.581,808.865 264.142,808.844 345.75,674.639 				"/>
			</g>
			<g>
				<polygon fill="#23A9E1" points="557.455,809.143 494.725,912.336 501.317,912.281 564.021,809.092 494.08,697.703 
					493.242,696.406 353.385,697.434 285.444,809.109 292.065,809.061 356.674,702.682 490.022,701.697 				"/>
			</g>
			<g>
				<polygon fill="#23A9E1" points="515.838,376.52 350.776,377.736 349.828,379.283 269.219,511.936 349.484,639.869 
					354.84,639.834 354.809,635.926 276.946,511.875 354.696,383.99 512.03,382.839 591.563,509.566 591.535,509.611 
					599.269,509.555 599.316,509.506 				"/>
			</g>
			<g>
				<polygon fill="#23A9E1" points="990.452,635.639 989.486,637.246 824.444,638.463 740.961,505.424 741.066,505.324 
					748.747,505.27 748.691,505.369 828.279,632.145 985.583,630.988 1063.335,503.049 985.427,379.009 985.359,370.02 987.587,370 
					1071.039,502.994 				"/>
			</g>
			<g>
				<polygon fill="#23A9E1" points="592.82,511.336 592.773,505.1 747.061,503.971 830.51,636.957 830.461,637.104 822.656,637.166 
					822.726,637.014 743.226,510.229 				"/>
			</g>
			<g>
				<polygon fill="#23A9E1" points="1061.016,238.719 1061.99,237.167 1213.119,236.054 1213.165,242.379 1065.918,243.461 
					988.162,371.357 1067.725,498.094 1063.304,498.13 1063.35,504.4 1063.891,504.396 980.385,371.418 				"/>
			</g>
			<g>
				<polygon fill="#23A9E1" points="834.776,396.64 835.594,395.287 975.477,394.255 1044.971,504.973 1038.38,505.021 
					972.237,399.647 838.939,400.625 773.013,508.996 840.474,616.395 841.145,616.391 841.181,621.709 837.201,621.736 
					766.445,509.045 				"/>
			</g>
			<g>
				<path fill="#23A9E1" d="M888.659,366.336c-4.159,0.034-7.732,2.572-8.794,6.105l-59.218,0.434l-55.379,79.259l-80.458,0.592
					l0.03,4.259l80.459-0.593l55.382-79.262l59.054-0.434c1.014,3.755,4.596,6.481,9.042,6.445c5.303-0.037,9.408-3.831,9.377-8.463
					C898.122,369.992,893.961,366.293,888.659,366.336z M888.735,376.822c-1.165,0.009-2.279-0.849-2.287-2.055
					c-0.01-1.157,1.092-2.139,2.26-2.143c1.42-0.012,2.429,0.953,2.442,2.103C891.158,375.933,890.156,376.812,888.735,376.822z"/>
				<path fill="#23A9E1" d="M676.482,462.703c4.136-0.029,7.758-2.776,8.87-6.162l2.999-0.022l-0.03-4.292l-2.789,0.021
					c-0.984-3.71-4.647-6.39-9.167-6.358c-5.121,0.041-9.255,3.79-9.224,8.471C667.174,458.951,671.36,462.746,676.482,462.703z
					 M676.405,452.106c1.242,0.049,2.385,0.952,2.392,2.165c0.008,1.118-1.12,2.042-2.361,2.054
					c-1.347,0.013-2.307-0.903-2.316-2.017C674.114,453.093,675.062,452.119,676.405,452.106z"/>
			</g>
			<path fill="#23A9E1" d="M550.301,395.54c4.136-0.028,7.783-2.714,8.875-6.141h0.078l-0.031-4.25h0.08
				c-0.956-3.723-4.649-6.402-9.124-6.371c-5.167,0.039-9.308,3.843-9.273,8.432C540.938,391.846,545.134,395.577,550.301,395.54z
				 M550.224,385.022c1.22,0.038,2.341,0.936,2.349,2.103c0.007,1.108-1.1,2.033-2.318,2.046c-1.391,0.009-2.357-0.9-2.365-2.014
				C547.878,385.998,548.832,385.033,550.224,385.022z"/>
			<path fill="#23A9E1" d="M1292.021,288.67c4.211-0.027,7.781-2.717,8.866-6.156h0.159l-0.032-4.25l0,0
				c-0.959-3.713-4.595-6.438-9.113-6.404c-5.123,0.037-9.311,3.831-9.275,8.566C1282.66,284.919,1286.898,288.708,1292.021,288.67z
				 M1291.947,278.185c1.239-0.011,2.33,0.891,2.338,2.153c0.007,1.07-1.067,1.997-2.308,2.007c-1.296,0.005-2.312-0.905-2.32-1.972
				C1289.649,279.111,1290.652,278.19,1291.947,278.185z"/>
			<path fill="#23A9E1" d="M288.45,821.656c4.163-0.027,7.814-2.709,8.904-6.098h0.132l-0.031-4.311l0,0
				c-0.958-3.705-4.59-6.482-9.122-6.443c-5.111,0.031-9.251,3.828-9.217,8.512C279.146,817.963,283.34,821.693,288.45,821.656z
				 M288.378,811.121c1.244-0.008,2.361,0.949,2.374,2.109c0.007,1.064-1.103,2.041-2.348,2.049
				c-1.312,0.012-2.301-0.949-2.309-2.016C286.083,812.107,287.065,811.135,288.378,811.121z"/>
			<path fill="#23A9E1" d="M841.639,628.375c4.162-0.035,7.787-2.715,8.879-6.145l0.156-0.008l-0.03-4.252l0,0
				c-0.907-3.717-4.57-6.445-9.121-6.408c-5.114,0.039-9.304,3.783-9.275,8.477C832.283,624.629,836.525,628.41,841.639,628.375z
				 M841.564,617.793c1.264,0.039,2.416,0.994,2.422,2.156c0.008,1.057-1.131,2.033-2.392,2.045
				c-1.318,0.008-2.311-0.947-2.316-2.012C839.271,618.82,840.244,617.809,841.564,617.793z"/>
			<path fill="#23A9E1" d="M1042.831,516.197c4.159-0.031,7.789-2.713,8.846-6.158h0.179l-0.031-4.254l0,0
				c-0.927-3.707-4.616-6.437-9.115-6.402c-5.121,0.038-9.305,3.789-9.271,8.519
				C1033.471,512.498,1037.709,516.236,1042.831,516.197z M1042.755,505.67c1.213,0.027,2.331,0.945,2.339,2.143
				c0.009,1.082-1.099,2.043-2.307,2.051c-1.373,0.008-2.332-0.934-2.342-2.012C1040.438,506.65,1041.383,505.68,1042.755,505.67z"
				/>
			<path fill="#23A9E1" d="M251.887,586.516c4.166-0.027,7.765-2.713,8.825-6.148h0.181l-0.029-4.205h0.025
				c-0.956-3.715-4.625-6.482-9.122-6.451c-5.145,0.041-9.304,3.877-9.273,8.566C242.526,582.863,246.742,586.555,251.887,586.516z
				 M251.812,575.98c1.191-0.006,2.331,0.963,2.338,2.215c0.007,1.07-1.116,1.994-2.308,2.004c-1.339,0.008-2.333-0.902-2.343-1.971
				C249.492,576.973,250.472,575.99,251.812,575.98z"/>
			<path fill="#23A9E1" d="M109.116,555.625c4.161-0.023,7.757-2.76,8.872-6.148h0.127l-0.032-4.354h0.031
				c-0.957-3.707-4.624-6.381-9.12-6.348c-5.174,0.037-9.307,3.779-9.273,8.514C99.753,551.832,103.941,555.668,109.116,555.625z
				 M109.04,545.004c1.212,0.088,2.304,0.947,2.314,2.205c0.007,1.057-1.075,1.986-2.287,1.988
				c-1.343,0.014-2.332-0.893-2.341-1.959C106.719,545.984,107.695,545.014,109.04,545.004z"/>
			<path fill="#23A9E1" d="M1016.533,388.446c4.188-0.032,7.818-2.766,8.901-6.156h0.083l-0.028-4.3l0.1-0.007
				c-1.01-3.709-4.65-6.385-9.173-6.352c-5.14,0.037-9.226,3.781-9.19,8.528C1007.253,384.742,1011.394,388.483,1016.533,388.446z
				 M1016.459,377.862c1.221,0.089,2.416,0.955,2.426,2.208c0.007,1.054-1.178,1.986-2.396,1.991
				c-1.319,0.016-2.306-0.897-2.313-1.955C1014.165,378.849,1015.138,377.873,1016.459,377.862z"/>
			<path fill="#23A9E1" d="M1203.335,482.022c4.189-0.041,7.736-2.714,8.9-6.116h0.104l-0.029-4.305h0.077
				c-0.981-3.704-4.643-6.431-9.17-6.395c-5.144,0.038-9.308,3.834-9.272,8.465C1193.974,478.275,1198.189,482.053,1203.335,482.022
				z M1203.258,471.431c1.192,0.083,2.36,1.009,2.372,2.151c0.008,1.115-1.153,2.046-2.342,2.058
				c-1.313,0.012-2.326-0.904-2.335-2.017C1200.941,472.475,1201.941,471.437,1203.258,471.431z"/>
			<path fill="#23A9E1" d="M1434.063,358.412c4.213-0.034,7.833-2.713,8.905-6.149h0.099l-0.028-4.253h0.048
				c-0.958-3.717-4.592-6.44-9.142-6.407c-5.136,0.038-9.308,3.835-9.276,8.51C1424.7,354.708,1428.929,358.45,1434.063,358.412z
				 M1433.987,347.824c1.22,0.047,2.384,1.002,2.391,2.208c0.008,1.068-1.142,2.039-2.358,2.042
				c-1.316,0.012-2.332-0.94-2.337-2.009C1431.673,348.858,1432.673,347.834,1433.987,347.824z"/>
			<path fill="#23A9E1" d="M1370.52,365.494c4.166-0.034,7.789-2.763,8.856-6.15h0.151l-0.029-4.302h0.082
				c-0.968-3.711-4.646-6.387-9.176-6.353c-5.115,0.032-9.311,3.786-9.276,8.467C1361.158,361.737,1365.41,365.532,1370.52,365.494z
				 M1370.448,354.921c1.212,0.026,2.328,0.952,2.338,2.146c0.007,1.119-1.101,2.04-2.312,2.045
				c-1.316,0.012-2.328-0.888-2.336-2.006C1368.128,355.908,1369.131,354.927,1370.448,354.921z"/>
			<path fill="#23A9E1" d="M468.845,113.914c4.186-0.032,7.785-2.805,8.898-6.145l0.131-0.002l-0.035-4.35l0,0
				c-0.959-3.673-4.594-6.391-9.115-6.356c-5.147,0.038-9.254,3.835-9.22,8.522C459.537,110.175,463.696,113.953,468.845,113.914z
				 M468.771,103.342c1.233,0.042,2.353,0.988,2.36,2.155c0.008,1.053-1.097,1.99-2.332,1.998c-1.317,0.008-2.338-0.911-2.345-1.963
				C466.446,104.364,467.451,103.35,468.771,103.342z"/>
			<path fill="#23A9E1" d="M536.229,157.354c4.158-0.029,7.782-2.773,8.872-6.111l0.181-0.003l-0.028-4.302l0,0
				c-0.985-3.713-4.645-6.48-9.146-6.446c-5.145,0.038-9.255,3.831-9.221,8.52C526.918,153.605,531.084,157.393,536.229,157.354z
				 M536.153,146.816c1.268,0.029,2.339,0.947,2.346,2.108c0.008,1.106-1.049,2.041-2.315,2.05c-1.346,0.01-2.336-0.911-2.344-2.018
				C533.832,147.797,534.807,146.821,536.153,146.816z"/>
			<path fill="#23A9E1" d="M1218.787,247.991c4.157-0.027,7.763-2.716,8.842-6.149h0.159l-0.03-4.252l0,0
				c-0.961-3.716-4.596-6.44-9.093-6.411c-5.115,0.04-9.332,3.786-9.296,8.477C1209.399,244.237,1213.673,248.03,1218.787,247.991z
				 M1218.709,237.459c1.221-0.007,2.311,0.953,2.317,2.114c0.008,1.057-1.066,2.033-2.285,2.039
				c-1.39,0.011-2.334-0.943-2.341-2.006C1216.392,238.446,1217.319,237.47,1218.709,237.459z"/>
			<path fill="#23A9E1" d="M739.938,491.031c4.155-0.028,7.833-2.759,8.925-6.155h0.076l-0.034-4.295h0.061
				c-0.963-3.717-4.605-6.398-9.149-6.366c-5.119,0.042-9.304,3.79-9.269,8.517C730.577,487.287,734.817,491.069,739.938,491.031z
				 M739.859,480.497c1.262-0.004,2.384,0.899,2.392,2.153c0.009,1.021-1.097,1.989-2.363,1.997
				c-1.29,0.016-2.309-0.944-2.316-1.966C737.564,481.427,738.564,480.512,739.859,480.497z"/>
			<path fill="#23A9E1" d="M143.819,507.346c4.196-0.027,7.795-2.705,8.875-6.152l2.998-0.025l-0.031-4.249l-2.838,0.026
				c-0.964-3.706-4.651-6.441-9.125-6.412c-5.118,0.034-9.276,3.788-9.243,8.471C134.488,503.65,138.701,507.385,143.819,507.346z
				 M143.743,496.828c1.218-0.008,2.363,0.94,2.37,2.095c0.007,1.109-1.121,2.038-2.339,2.05c-1.347,0.012-2.331-0.897-2.339-2.017
				C141.428,497.803,142.397,496.839,143.743,496.828z"/>
			<path fill="#23A9E1" d="M523.698,347.477c-4.081,0.029-7.691,2.562-8.874,6.103l-172.767,1.271l-88.276,141.3l-103.806,0.762
				l0.029,4.252l103.808-0.757l88.275-141.254l172.609-1.273c1.16,3.57,4.798,6.492,9.118,6.457
				c5.245-0.038,9.483-3.884,9.451-8.522C533.235,351.126,528.945,347.44,523.698,347.477z M523.769,357.957
				c-1.085,0.006-2.277-0.955-2.289-2.055c-0.008-1.213,1.174-2.193,2.26-2.197c1.426-0.011,2.438,0.952,2.445,2.158
				C526.195,356.971,525.195,357.946,523.769,357.957z"/>
			<path fill="#23A9E1" d="M-115.178,570.141c4.187-0.033,7.786-2.664,8.87-6.117l177.165-1.305l30.589-45.682l171.728-1.268
				l-0.032-4.154L99.97,512.895l-30.565,45.602l-175.583,1.289c-0.954-3.721-4.599-6.4-9.118-6.367
				c-5.121,0.039-9.278,3.75-9.245,8.473C-124.51,566.477-120.299,570.178-115.178,570.141z M-115.253,559.6
				c1.239,0.088,2.359,0.998,2.368,2.209c0.008,1.057-1.1,2.002-2.336,2.01c-1.349,0.008-2.33-0.916-2.338-1.979
				C-117.57,560.637-116.599,559.605-115.253,559.6z"/>
			<path fill="#23A9E1" d="M366.361,675.934c4.163-0.027,7.813-2.752,8.876-6.152l2.996-0.025l-0.03-4.295l-2.82,0.021
				c-0.977-3.664-4.643-6.396-9.141-6.363c-5.114,0.037-9.303,3.844-9.271,8.529C357.005,672.197,361.247,675.973,366.361,675.934z
				 M366.287,665.361c1.241,0.035,2.387,0.986,2.394,2.191c0.009,1.07-1.123,2.047-2.365,2.055
				c-1.338,0.008-2.305-0.947-2.313-2.014C363.997,666.387,364.948,665.367,366.287,665.361z"/>
			<g>
				<polygon fill="#23A9E1" points="572.904,746.66 517.629,664.729 368.02,665.822 368.051,670.07 517.658,668.973 
					572.935,750.904 653.427,750.311 653.396,746.066 				"/>
				<path fill="#23A9E1" d="M671.112,747.432c-0.034-4.699-4.272-8.426-9.394-8.391c-4.471,0.037-8.15,2.813-9.002,6.492
					l-2.845,0.021l0.03,4.346l3.002-0.018c1.132,3.367,4.775,6.006,8.937,5.973C666.961,755.816,671.145,752.008,671.112,747.432z
					 M664.102,747.486c0.008,1.051-0.993,1.982-2.308,1.992c-1.215,0.014-2.311-0.906-2.317-1.961
					c-0.008-1.213,1.072-2.145,2.286-2.197C663.08,745.309,664.094,746.271,664.102,747.486z"/>
			</g>
			<path fill="#23A9E1" d="M473.744,709.795c-4.456-2.002-9.874-0.115-12.142,4.34c-1.787,3.539-0.871,7.592,2.065,10.084
				L405,842.404l15.246,46.996l-24.511,46.615l5.118-0.035l23.57-44.783l-15.3-46.994l58.564-118.033
				c4.061,0.785,8.257-1.086,10.142-4.822C480.13,716.887,478.227,711.789,473.744,709.795z M471.739,718.652
				c-0.511,0.957-1.799,1.502-2.961,0.975c-1.14-0.521-1.621-1.764-1.155-2.789c0.685-1.209,2.027-1.602,3.112-1.129
				C471.929,716.178,472.357,717.434,471.739,718.652z"/>
			<path fill="#23A9E1" d="M484.107,738.457c-4.56-1.988-10.005,0.027-12.246,4.441c-1.739,3.398-0.879,7.592,2.035,10.129
				l-42.653,86.719l15.326,46.842L420.65,935.83l5.153-0.033l24.943-47.398l-15.324-46.85l42.549-86.51
				c3.957,0.586,8.34-1.268,10.202-4.91C490.441,745.719,488.569,740.465,484.107,738.457z M482.025,747.371
				c-0.454,0.924-1.955,1.563-2.996,1.045c-1.194-0.529-1.561-1.93-1.101-2.805c0.613-1.256,1.95-1.613,3.148-1.135
				C482.089,744.957,482.587,746.209,482.025,747.371z"/>
			<path fill="#23A9E1" d="M893.096,467.047l14.788,29.562l-12.786,47.686l51.475,89.053l5.192-0.035l-52.599-91.025l12.766-47.691
				l-14.919-29.752c2.878-2.633,3.49-6.737,1.533-10.107c-2.511-4.33-7.979-5.974-12.389-3.729
				c-4.317,2.206-5.993,7.34-3.432,11.713C884.769,466.338,889.097,468,893.096,467.047z M889.511,456.688
				c1.027-0.534,2.43-0.17,3.157,0.986c0.549,1.024,0.096,2.369-0.96,2.868c-1.186,0.589-2.508,0.097-3.057-0.808
				C887.97,458.493,888.354,457.323,889.511,456.688z"/>
			<path fill="#23A9E1" d="M907.93,633.629l5.193-0.039l-49.33-85.438l12.718-47.641l-26.416-47.014
				c2.695-2.638,3.388-6.841,1.45-10.201c-2.513-4.328-8.059-6.04-12.432-3.779c-4.406,2.152-5.97,7.528-3.46,11.813
				c2.043,3.56,6.497,5.177,10.448,4.373l26.392,46.92l-12.797,47.582L907.93,633.629z M844.687,449.188
				c-1.057,0.537-2.536,0.017-3.063-0.942c-0.676-1.106-0.217-2.408,0.815-2.903c1.153-0.589,2.5-0.215,3.156,0.941
				C846.122,447.139,845.847,448.596,844.687,449.188z"/>
			<path fill="#23A9E1" d="M580.181,580.963l14.764,29.658l-12.715,47.588l51.397,89.105l5.193-0.037l-52.599-91.074l12.741-47.637
				l-14.895-29.807c2.854-2.582,3.493-6.748,1.535-10.115c-2.513-4.27-7.984-5.977-12.385-3.715
				c-4.358,2.205-5.921,7.43-3.458,11.715C571.881,580.254,576.156,581.914,580.181,580.963z M576.563,570.602
				c1.034-0.488,2.482-0.109,3.165,1.045c0.551,0.953,0.126,2.322-0.984,2.855c-1.165,0.582-2.458,0.066-3.028-0.898
				C575.028,572.451,575.411,571.24,576.563,570.602z"/>
			<path fill="#23A9E1" d="M933.879,552.941l51.658,79.211l5.354-0.035l-52.969-81.232c2.689-2.723,3.543-7.133,1.298-10.637
				c-2.59-4.131-8.316-5.697-12.536-3.293c-4.349,2.354-5.583,7.73-2.969,11.908C925.81,552.135,930.004,553.754,933.879,552.941z
				 M930.313,542.586c0.928-0.484,2.38-0.158,3.107,0.895c0.555,0.861,0.225,2.365-0.777,2.904
				c-1.087,0.686-2.584,0.205-3.135-0.656C928.778,544.582,929.104,543.268,930.313,542.586z"/>
			<path fill="#23A9E1" d="M538.215,629.836l68.229,118.168l5.325-0.041l-69.541-120.238c2.751-2.68,3.543-7.123,1.378-10.545
				c-2.669-4.23-8.313-5.725-12.614-3.381c-4.302,2.404-5.609,7.768-2.914,11.906C530.172,629.023,534.342,630.635,538.215,629.836z
				 M534.626,619.471c0.979-0.537,2.423-0.213,3.138,0.949c0.521,0.865,0.27,2.307-0.761,2.844
				c-1.132,0.648-2.634,0.178-3.158-0.701C533.114,621.418,533.489,620.113,534.626,619.471z"/>
			<path fill="#23A9E1" d="M246.984,576.414l-156.376,1.152l-30.044,28.285l-63.79,0.471l-15.197-13.904l-49.135,0.361
				c-0.616-3.09-3.661-5.525-7.303-5.496c-4.056,0.031-7.444,3.283-7.42,7.113c0.029,3.857,3.464,7.02,7.52,6.996
				c3.388-0.029,6.315-2.176,7.226-5.219l49.136-0.361l15.198,14.084l63.789-0.471l30.047-28.338l156.375-1.152L246.984,576.414z
				 M-74.799,596.223c-0.958,0.012-1.865-1.004-1.872-1.869c-0.005-0.969,0.892-1.705,1.848-1.709
				c1.006-0.014,1.948,0.705,1.954,1.674C-72.861,595.186-73.792,596.217-74.799,596.223z"/>
			<path fill="#23A9E1" d="M1408.502,56.806c4.163-0.031,7.783-2.665,8.842-6.108h0.159l-0.028-4.256h0.104
				c-1.033-3.708-4.7-6.437-9.196-6.406c-5.114,0.039-9.279,3.792-9.247,8.479C1399.17,53.108,1403.386,56.843,1408.502,56.806z
				 M1408.426,46.269c1.24,0.041,2.339,0.952,2.347,2.161c0.006,1.065-1.075,2.042-2.317,2.048
				c-1.369,0.012-2.311-0.949-2.318-2.014C1406.13,47.253,1407.057,46.279,1408.426,46.269z"/>
			<path fill="#23A9E1" d="M585.021,807.15c4.211-0.029,7.788-2.715,8.922-6.156h0.084l-0.031-4.248l0,0
				c-0.887-3.709-4.546-6.434-9.099-6.406c-5.118,0.039-9.304,3.787-9.27,8.473C575.66,803.406,579.898,807.186,585.021,807.15z
				 M584.945,796.578c1.242,0.088,2.331,0.994,2.338,2.146c0.009,1.064-1.067,2.045-2.308,2.055
				c-1.297,0.01-2.336-0.953-2.344-2.014C582.622,797.6,583.652,796.588,584.945,796.578z"/>
			<path fill="#23A9E1" d="M494.074,926.408c4.197-0.039,7.797-2.729,8.896-6.121h0.134l-0.031-4.301l0,0
				c-0.955-3.668-4.621-6.398-9.119-6.357c-5.113,0.035-9.275,3.791-9.243,8.475C484.745,922.701,488.959,926.443,494.074,926.408z
				 M494,915.857c1.27,0.043,2.364,0.949,2.371,2.16c0.009,1.113-1.072,1.988-2.344,2c-1.346,0.012-2.3-0.848-2.307-1.961
				C491.713,916.84,492.65,915.869,494,915.857z"/>
			<path fill="#23A9E1" d="M355.678,652.734c4.106-0.031,7.761-2.725,8.818-6.154h0.159l-0.031-4.26h0.023
				c-0.951-3.709-4.648-6.494-9.09-6.463c-5.17,0.041-9.329,3.852-9.295,8.529C346.296,648.977,350.509,652.773,355.678,652.734z
				 M355.604,642.09c1.188,0.143,2.305,0.969,2.312,2.215c0.009,1.063-1.094,2.033-2.282,2.037
				c-1.364,0.014-2.357-0.941-2.364-2.004C353.261,643.09,354.238,642.107,355.604,642.09z"/>
			<g>
				<polygon fill="#23A9E1" points="1437.529,86.208 1436.514,84.672 1271.502,85.887 1189.947,220.034 1190.002,220.188 
					1197.726,220.132 1197.675,219.98 1275.404,92.144 1432.737,90.987 1512.28,217.667 1436.229,342.885 1436.293,351.868 
					1438.407,351.853 1520.021,217.606 				"/>
			</g>
			<g>
				<polygon fill="#23A9E1" points="800.624,351.955 801.643,353.54 966.65,352.328 1048.205,218.077 1048.154,217.99 
					1040.449,218.047 1040.504,218.135 962.755,346.03 805.447,347.187 725.859,220.451 801.979,95.283 801.913,86.292 
					799.745,86.31 718.083,220.508 				"/>
			</g>
			<g>
				<polygon fill="#23A9E1" points="1196.476,221.828 1196.434,215.544 1042.146,216.679 960.563,350.924 960.615,351.017 
					968.424,350.963 968.349,350.871 1046.042,222.933 				"/>
			</g>
			<g>
				<polygon fill="#23A9E1" points="798.234,88.106 720.661,215.705 728.442,215.646 805.96,88.048 723.521,-43.397 722.51,-44.929 
					571.374,-43.815 571.417,-37.587 718.621,-38.671 				"/>
			</g>
			<g>
				<polygon fill="#23A9E1" points="1016.234,222.132 952.793,326.53 959.357,326.481 1022.772,222.089 952.915,110.653 
					952.078,109.399 812.189,110.428 746.12,219.149 752.686,219.1 815.49,115.714 948.862,114.729 				"/>
			</g>
			<path fill="#23A9E1" d="M749.39,228.835c4.142-0.029,7.768-2.768,8.854-6.199h0.152l-0.031-4.258l0,0
				c-0.906-3.716-4.623-6.39-9.094-6.36c-5.113,0.039-9.306,3.739-9.271,8.482C740.033,225.081,744.275,228.875,749.39,228.835z
				 M749.318,218.253c1.217,0.039,2.387,0.948,2.396,2.165c0.007,1.052-1.147,1.982-2.366,1.989
				c-1.294,0.011-2.31-0.904-2.317-1.956C747.024,219.238,748.024,218.264,749.318,218.253z"/>
			<path fill="#23A9E1" d="M951.869,338.286c4.132-0.032,7.764-2.717,8.851-6.16h0.103l-0.028-4.254h0.05
				c-0.956-3.714-4.626-6.434-9.097-6.406c-5.194,0.038-9.279,3.835-9.249,8.522C942.533,334.543,946.675,338.325,951.869,338.286z
				 M951.795,327.747c1.158-0.004,2.31,1.002,2.317,2.155c0.006,1.118-1.129,1.994-2.289,2.005
				c-1.368,0.011-2.305-0.855-2.313-1.974C949.502,328.777,950.428,327.757,951.795,327.747z"/>
			<path fill="#23A9E1" d="M569.354-30.519c4.159-0.03,7.758-2.712,8.87-6.109l0.129-0.004l-0.029-4.294l0,0
				c-0.956-3.719-4.601-6.49-9.091-6.456c-5.121,0.039-9.306,3.838-9.272,8.528C559.993-34.263,564.232-30.481,569.354-30.519z
				 M569.28-41.1c1.238,0.086,2.33,0.945,2.336,2.157c0.009,1.115-1.066,2.036-2.308,2.048c-1.347,0.007-2.315-0.899-2.322-2.014
				C566.979-40.121,567.932-41.094,569.28-41.1z"/>
			<path fill="#23A9E1" d="M1432.825,60.252c-4.145,0.031-7.819,2.71-8.826,6.154l-3.022,0.019l0.029,4.288l2.847-0.02
				c0.925,3.675,4.584,6.393,9.088,6.362c5.17-0.039,9.308-3.782,9.276-8.467C1442.186,64,1437.992,60.215,1432.825,60.252z
				 M1432.902,70.833c-1.215-0.091-2.311-0.995-2.32-2.159c-0.008-1.119,1.08-2.035,2.29-2.045c1.343-0.01,2.327,0.893,2.335,2.011
				C1435.219,69.802,1434.246,70.82,1432.902,70.833z"/>
			<path fill="#23A9E1" d="M1040.054,125.087c4.209-0.031,7.807-2.718,8.899-6.102l177.125-1.306l30.597-45.696l171.72-1.262
				l-0.03-4.162l-171.718,1.264l-30.599,45.497l-176.948,1.305c-0.978-3.621-4.627-6.39-9.17-6.355
				c-5.12,0.04-9.226,3.824-9.197,8.476C1030.767,121.382,1034.93,125.125,1040.054,125.087z M1039.978,114.499
				c1.212,0.087,2.383,1.045,2.39,2.163c0.007,1.103-1.148,2.078-2.361,2.085c-1.324,0.013-2.328-0.943-2.337-2.054
				C1037.662,115.583,1038.653,114.511,1039.978,114.499z"/>
			<path fill="#23A9E1" d="M826.417,89.013c4.183-0.031,7.809-2.764,8.896-6.2l2.941-0.02l-0.028-4.253l-2.791,0.02
				c-0.954-3.708-4.621-6.395-9.14-6.366c-5.146,0.04-9.304,3.744-9.27,8.482C817.057,85.266,821.268,89.05,826.417,89.013z
				 M826.338,78.433c1.212,0.028,2.356,0.955,2.367,2.16c0.006,1.059-1.129,1.993-2.337,2.002c-1.345,0.01-2.333-0.907-2.341-1.967
				C824.015,79.421,824.995,78.445,826.338,78.433z"/>
			<g>
				<polygon fill="#23A9E1" points="1031.687,159.59 976.411,77.715 835.383,78.75 835.413,83 976.439,81.962 1031.715,163.896 
					1112.254,163.304 1112.23,159 				"/>
				<path fill="#23A9E1" d="M1129.887,160.373c-0.033-4.69-4.238-8.38-9.382-8.341c-4.446,0.031-8.1,2.809-9.002,6.542l-2.874,0.019
					l0.028,4.255l3.022-0.017c1.137,3.415,4.806,6.09,8.943,6.062C1125.767,168.854,1129.919,164.964,1129.887,160.373z
					 M1122.886,160.421c0.01,1.11-0.942,2.043-2.311,2.055c-1.212,0.008-2.332-0.911-2.338-2.021
					c-0.01-1.159,1.102-2.079,2.306-2.194C1121.912,158.251,1122.877,159.263,1122.886,160.421z"/>
			</g>
			<path fill="#23A9E1" d="M932.559,122.783c-4.467-1.995-9.875-0.074-12.15,4.385c-1.779,3.445-0.871,7.593,2.035,10.028
				L863.78,255.434l15.28,46.959l-24.534,46.56l5.137-0.04l23.592-44.676l-15.296-47.043l58.529-117.991
				c4.067,0.803,8.269-1.168,10.136-4.809C938.915,129.928,937.041,124.772,932.559,122.783z M930.548,131.688
				c-0.513,0.964-1.77,1.458-2.988,0.935c-1.123-0.472-1.613-1.779-1.086-2.79c0.618-1.222,2.01-1.666,3.074-1.137
				C930.739,129.219,931.159,130.425,930.548,131.688z"/>
			<path fill="#23A9E1" d="M942.939,151.458c-4.563-2-10.049,0.014-12.218,4.432c-1.812,3.441-0.924,7.64,2.013,10.134
				l-42.635,86.66l15.302,46.894l-25.913,49.193l5.12-0.036l24.891-47.351L894.23,254.53l42.521-86.554
				c3.986,0.602,8.364-1.22,10.225-4.856C949.225,158.652,947.353,153.451,942.939,151.458z M940.752,160.417
				c-0.402,0.861-1.896,1.507-2.887,1.03c-1.22-0.525-1.608-1.93-1.123-2.897c0.604-1.203,1.925-1.595,3.144-1.072
				C940.896,157.903,941.421,159.2,940.752,160.417z"/>
			<path fill="#23A9E1" d="M1403.587,46.111l-160.272,1.18l-20.4,28.226l-73.494,0.541l-15.194-13.952l-49.078,0.357
				c-0.666-2.988-3.68-5.477-7.324-5.449c-4.116,0.031-7.424,3.295-7.397,7.107c0.029,3.917,3.381,7.027,7.496,6.996
				c3.436-0.025,6.339-2.169,7.253-5.219l49.076-0.364l15.197,14.05l73.488-0.54l20.402-28.228l160.273-1.179L1403.587,46.111z
				 M1077.886,65.952c-0.933,0.008-1.841-0.898-1.85-1.872c-0.004-0.925,0.89-1.649,1.823-1.657
				c1.029-0.008,1.894,0.705,1.899,1.631C1079.766,65.026,1078.914,65.944,1077.886,65.952z"/>
			<path fill="#23A9E1" d="M766.045,389.806c-2.115-3.366-6.447-4.873-10.104-3.991l-91.226-141.962l-102.57,0.515l-88.339-137.501
				l-3.835,2.122l88.347,137.531l102.486-0.414l91.085,141.771c-2.901,2.636-3.59,6.987-1.24,10.544
				c2.641,4.188,8.241,5.535,12.504,3.096C767.328,399.166,768.74,393.84,766.045,389.806z M756.39,395.24
				c-0.575-1.017-0.296-2.365,0.805-3.001c0.956-0.598,2.403-0.157,3.007,0.79c0.674,1.153,0.358,2.421-0.625,2.958
				C758.492,396.574,757.102,396.35,756.39,395.24z"/>
			<path fill="#23A9E1" d="M540.803,150.541l-3.213,1.813l46.364,75.717l115.014-2.296l32.829,51.117l-5.088,19.324l25.279,39.286
				c-2.492,2.149-3.221,5.763-1.34,8.703c2.067,3.218,6.859,4.298,10.326,2.297c3.529-1.972,4.716-6.307,2.602-9.589
				c-1.726-2.692-5.191-3.974-8.455-3.224l-25.291-39.29l5.283-19.414l-32.875-51.07l-115.087,2.343L540.803,150.541z
				 M758.105,341.98c-0.872,0.537-2.038,0.16-2.481-0.609c-0.579-0.823-0.352-1.836,0.527-2.372c0.794-0.434,2.19-0.252,2.683,0.559
				C759.361,340.324,758.908,341.548,758.105,341.98z"/>
			<path fill="#23A9E1" d="M1199.98,282.828l83.979-0.62l-0.028-3.438l-83.974,0.624l-22.669-21.14l-71.695,0.529
				c-0.795-3.091-3.781-5.338-7.379-5.314c-4.081,0.031-7.444,3.241-7.419,6.92c0.03,4.098,3.439,7.12,7.521,7.088
				c3.361-0.025,6.26-2.173,7.199-5.023l71.801-0.526L1199.98,282.828z M1096.354,260.35c-0.005-0.775,0.913-1.551,1.898-1.562
				c1.06-0.005,1.947,0.757,1.952,1.534c0.008,1.154-0.862,1.886-1.926,1.944C1097.292,262.274,1096.359,261.507,1096.354,260.35z"
				/>
			<path fill="#23A9E1" d="M1490.763,213.668c-3.644-2.155-8.214-1.102-10.326,2.16c-1.845,2.715-1.487,6.146,0.648,8.397
				l-37.956,57.005l-30.998,6.792l-42.38,63.707l4.319-0.032l41.13-61.903l31.257-6.609l37.847-56.963
				c3.261,0.953,6.873-0.191,8.797-2.96C1495.243,219.961,1494.156,215.578,1490.763,213.668z M1488.27,220.445
				c-0.511,0.824-1.669,1.078-2.452,0.702c-1.001-0.577-1.173-1.737-0.688-2.556c0.541-0.782,1.754-1.077,2.703-0.499
				C1488.567,218.51,1488.777,219.678,1488.27,220.445z"/>
			<path fill="#23A9E1" d="M540.518,473.508l-35.347-66.322l-57.267-5.574l-10.816-20.256l-4.963,0.032l11.739,22.091l57.163,5.618
				l35.292,66.18c-3.119,2.394-4.147,6.753-2.152,10.448c2.281,4.295,7.748,6.184,12.231,4.073
				c4.433-2.117,6.175-7.248,3.896-11.571C548.453,474.803,544.237,472.895,540.518,473.508z M543.253,483.972
				c-1.142,0.491-2.457,0.113-3.063-1.037c-0.521-1.008-0.141-2.369,0.991-2.912c1.055-0.484,2.428,0.039,3.008,1.098
				C544.738,482.222,544.312,483.478,543.253,483.972z"/>
			<path fill="#23A9E1" d="M530.619,561.041l-21.88-40.969l6.901-18.99l-28.45-53.374l-40.442-12.748l-28.508-53.469l-4.134,0.028
				l29.29,55.015l40.361,12.79l28.448,53.39l-6.741,18.887l21.878,41.053c-2.596,1.912-3.655,5.48-2.034,8.566
				c1.812,3.377,6.475,4.781,10.13,3.072c3.664-1.73,5.182-6.039,3.396-9.354C537.319,562.049,534.008,560.58,530.619,561.041z
				 M532.874,569.57c-0.875,0.387-1.964,0.008-2.385-0.859c-0.446-0.764-0.17-1.877,0.763-2.266
				c0.842-0.406,2.193-0.059,2.642,0.738C534.311,567.961,533.803,569.227,532.874,569.57z"/>
			<path fill="#23A9E1" d="M448.026,524.051l-32.064-60.063l10.141-28.194l-28.845-54.148l-4.062,0.027l29.655,55.646l-10.371,28.3
				l31.962,59.957c-2.625,2.102-3.526,5.588-1.902,8.561c1.81,3.424,6.366,4.836,9.95,3.219c3.861-1.857,5.254-6.031,3.451-9.395
				C454.416,525.107,451.127,523.598,448.026,524.051z M450.024,532.684c-0.797,0.34-1.937-0.084-2.384-0.842
				c-0.469-0.871-0.143-1.984,0.654-2.375c1.057-0.504,2.122-0.016,2.644,0.744C451.359,531.084,451.029,532.203,450.024,532.684z"
				/>
			<path fill="#23A9E1" d="M1433.055,263.229l42.227-62.829l-24.695-48.575l12.889-19.18l-2.605-3.946l-14.017,20.886l24.536,48.576
				l-42.106,62.64c-3.856-1.238-8.312,0.197-10.749,3.748c-2.715,4.078-1.504,9.389,2.697,11.905
				c4.225,2.437,9.857,1.138,12.559-2.937C1436.057,270.215,1435.576,265.919,1433.055,263.229z M1425.018,270.878
				c-1.118-0.576-1.463-1.885-0.75-2.993c0.721-0.926,2.079-1.271,3.203-0.695c0.981,0.609,1.224,1.972,0.564,2.892
				C1427.32,271.25,1425.943,271.449,1425.018,270.878z"/>
			<path fill="#23A9E1" d="M1347.946,301.064l26.114-38.84l20.876-4.414l33.97-50.549l-9.377-38.881l34.068-50.684l-2.225-3.32
				l-35.012,52.151l9.347,38.833l-33.988,50.546l-20.779,4.492l-26.093,38.85c-3.109-1.079-6.973-0.085-8.945,2.823
				c-2.117,3.258-0.975,7.69,2.448,9.69c3.501,2.108,8.227,1.052,10.347-2.195C1350.522,306.893,1350.149,303.462,1347.946,301.064z
				 M1341.423,307.292c-0.904-0.472-1.05-1.582-0.587-2.358c0.564-0.782,1.646-1.08,2.552-0.546
				c0.833,0.416,1.177,1.624,0.667,2.499C1343.517,307.617,1342.2,307.775,1341.423,307.292z"/>
			<path fill="#23A9E1" d="M1338.803,215.797l38.186-56.853l31.127-6.662l34.381-51.277l-2.117-3.221l-35.371,52.684l-31.28,6.515
				l-38.196,56.765c-3.18-0.992-6.872,0.092-8.795,2.964c-2.173,3.301-1.08,7.588,2.294,9.597c3.661,2.142,8.249,1.051,10.403-2.147
				C1341.246,221.434,1340.836,218.058,1338.803,215.797z M1331.971,221.885c-0.725-0.42-0.944-1.577-0.405-2.362
				c0.489-0.821,1.72-1.118,2.397-0.64c1.012,0.564,1.232,1.625,0.771,2.46C1334.198,222.109,1332.983,222.41,1331.971,221.885z"/>
		</g>
	</g>
	<g>
		<path fill="#005373" d="M7.15,798.979h26.699l75.544,98.138l75.848-98.138h25.788l-91.32,114.738H98.471L7.15,798.979z"/>
		<path fill="#005373" d="M301.139,798.164h22.451l96.782,114.739h-25.788l-24.878-30.108H254.114l-25.182,30.108h-24.575
			L301.139,798.164z M360.3,871.239l-48.239-58.102l-48.542,58.102H360.3z"/>
		<path fill="#005373" d="M451.318,865.218v-66.239h23.968v65.425c0,24.576,24.271,38.409,64.926,38.409
			c39.138,0,64.016-12.694,64.016-37.595v-66.239h23.968v65.263c0,33.201-35.497,50.452-88.59,50.452
			C487.119,914.693,451.318,897.442,451.318,865.218z"/>
		<path fill="#005373" d="M684.927,798.979h23.968v102.044H828.43v11.881H684.927V798.979z"/>
		<path fill="#005373" d="M898.513,810.859h-71.297v-11.881H994.08v11.881h-71.296v102.044h-24.271V810.859z"/>
	</g>
</g>
</svg>
