<?xml version="1.0" encoding="utf-8"?>
<!-- Generator: Adobe Illustrator 16.0.0, SVG Export Plug-In . SVG Version: 6.00 Build 0)  -->
<!DOCTYPE svg PUBLIC "-//W3C//DTD SVG 1.1//EN" "http://www.w3.org/Graphics/SVG/1.1/DTD/svg11.dtd">
<svg version="1.1" id="Layer_1" xmlns="http://www.w3.org/2000/svg" xmlns:xlink="http://www.w3.org/1999/xlink" x="0px" y="0px"
	 width="500px" height="200px" viewBox="0 0 500 200" enable-background="new 0 0 500 200" xml:space="preserve">
<g>
	<g opacity="0.6">
		<g>
			<g>
				<polygon fill="#026695" points="367.695,120.935 354.99,121.017 348.949,112.615 348.144,112.621 354.587,121.588 
					367.7,121.503 				"/>
			</g>
			<g>
				<polygon fill="#026695" points="403.274,120.216 397.543,112.246 396.734,112.252 402.872,120.787 415.984,120.703 
					415.979,120.135 				"/>
			</g>
			<g>
				<polygon fill="#026695" points="326.84,162.359 326.942,162.499 344.039,162.389 352.493,150.244 352.49,150.23 
					351.682,150.236 351.693,150.248 343.633,161.822 327.34,161.928 319.095,150.459 326.979,139.129 326.974,138.32 
					326.746,138.322 318.292,150.463 				"/>
			</g>
			<g>
				<polygon fill="#026695" points="318.85,126.663 318.747,126.519 303.094,126.619 303.099,127.193 318.354,127.096 
					326.593,138.564 318.673,149.945 318.679,150.707 318.944,150.705 327.398,138.559 				"/>
			</g>
			<g>
				<polygon fill="#026695" points="349.33,150.732 342.831,160.07 343.515,160.066 350.01,150.727 342.765,140.646 
					342.678,140.529 328.189,140.622 321.15,150.729 321.837,150.725 328.53,141.097 342.344,141.008 				"/>
			</g>
			<g>
				<polygon fill="#026695" points="345.019,111.578 327.919,111.688 327.82,111.828 319.47,123.834 327.785,135.412 
					328.34,135.408 328.337,135.055 320.271,123.828 328.325,112.255 344.624,112.15 352.863,123.619 352.86,123.623 
					353.661,123.619 353.666,123.613 				"/>
			</g>
			<g>
				<polygon fill="#026695" points="394.186,135.029 394.086,135.175 376.988,135.285 368.34,123.244 368.351,123.235 
					369.146,123.23 369.141,123.239 377.386,134.713 393.682,134.608 401.736,123.029 393.665,111.804 393.658,110.99 
					393.889,110.988 402.534,123.025 				"/>
			</g>
			<g>
				<polygon fill="#026695" points="352.993,123.779 352.988,123.215 368.972,123.113 377.616,135.148 377.611,135.162 
					376.803,135.167 376.811,135.154 368.574,123.68 				"/>
			</g>
			<g>
				<polygon fill="#026695" points="401.496,99.107 401.597,98.967 417.253,98.866 417.258,99.438 402.004,99.536 393.948,111.111 
					402.19,122.581 401.732,122.584 401.737,123.152 401.794,123.152 393.143,111.116 				"/>
			</g>
			<g>
				<polygon fill="#026695" points="378.059,113.398 378.144,113.277 392.635,113.184 399.834,123.203 399.15,123.208 
					392.299,113.672 378.49,113.76 371.66,123.568 378.649,133.287 378.719,133.287 378.722,133.769 378.31,133.771 370.98,123.572 
									"/>
			</g>
			<g>
				<path fill="#026695" d="M383.641,110.656c-0.431,0.004-0.801,0.232-0.911,0.553l-6.135,0.039l-5.736,7.174l-8.335,0.053
					l0.003,0.386l8.335-0.054l5.737-7.174l6.117-0.039c0.105,0.34,0.477,0.587,0.938,0.584c0.549-0.004,0.975-0.347,0.971-0.766
					C384.621,110.987,384.19,110.652,383.641,110.656z M383.648,111.605c-0.12,0.001-0.236-0.077-0.237-0.186
					c-0.001-0.105,0.113-0.193,0.234-0.194c0.147-0.001,0.252,0.086,0.253,0.19C383.899,111.525,383.796,111.605,383.648,111.605z"
					/>
				<path fill="#026695" d="M361.66,119.379c0.429-0.004,0.804-0.252,0.919-0.559l0.311-0.002l-0.003-0.389l-0.289,0.002
					c-0.102-0.336-0.481-0.578-0.949-0.575c-0.531,0.003-0.959,0.343-0.956,0.767C360.696,119.039,361.13,119.382,361.66,119.379z
					 M361.652,118.419c0.129,0.005,0.247,0.087,0.248,0.196c0.001,0.101-0.116,0.185-0.245,0.186
					c-0.14,0.001-0.238-0.082-0.24-0.183C361.415,118.508,361.513,118.42,361.652,118.419z"/>
			</g>
			<path fill="#026695" d="M348.589,113.3c0.428-0.003,0.806-0.245,0.919-0.556h0.008l-0.003-0.385h0.009
				c-0.1-0.338-0.482-0.58-0.945-0.577c-0.535,0.004-0.965,0.349-0.961,0.764C347.618,112.965,348.053,113.303,348.589,113.3z
				 M348.581,112.348c0.126,0.004,0.242,0.085,0.242,0.19c0.001,0.101-0.113,0.185-0.239,0.185
				c-0.145,0.002-0.244-0.081-0.245-0.182C348.338,112.436,348.437,112.349,348.581,112.348z"/>
			<path fill="#026695" d="M425.427,103.628c0.437-0.003,0.806-0.246,0.918-0.558h0.017l-0.003-0.385l0,0
				c-0.1-0.336-0.476-0.582-0.944-0.579c-0.53,0.004-0.964,0.347-0.96,0.775C424.457,103.288,424.896,103.631,425.427,103.628z
				 M425.419,102.679c0.129-0.001,0.241,0.081,0.242,0.194c0.001,0.098-0.11,0.182-0.239,0.182c-0.134,0.002-0.239-0.081-0.24-0.178
				C425.182,102.762,425.285,102.68,425.419,102.679z"/>
			<path fill="#026695" d="M321.462,151.864c0.432-0.003,0.81-0.245,0.923-0.552h0.014l-0.003-0.391l0,0
				c-0.1-0.335-0.476-0.586-0.945-0.583c-0.529,0.003-0.958,0.347-0.955,0.771C320.498,151.529,320.933,151.867,321.462,151.864z
				 M321.455,150.91c0.129,0,0.244,0.086,0.245,0.191c0.001,0.097-0.113,0.185-0.242,0.186c-0.137,0.001-0.239-0.086-0.239-0.183
				C321.217,151,321.319,150.912,321.455,150.91z"/>
			<path fill="#026695" d="M378.77,134.371c0.432-0.002,0.807-0.245,0.92-0.556l0.016-0.001l-0.003-0.385l0,0
				c-0.094-0.336-0.474-0.583-0.944-0.58c-0.53,0.004-0.964,0.343-0.961,0.768C377.801,134.033,378.24,134.375,378.77,134.371z
				 M378.762,133.414c0.131,0.004,0.25,0.09,0.251,0.195c0.001,0.096-0.117,0.184-0.248,0.186c-0.137,0-0.239-0.086-0.239-0.183
				C378.524,133.507,378.625,133.415,378.762,133.414z"/>
			<path fill="#026695" d="M399.612,124.22c0.431-0.003,0.807-0.245,0.916-0.558h0.019l-0.003-0.385l0,0
				c-0.097-0.336-0.479-0.582-0.944-0.58c-0.53,0.004-0.964,0.344-0.961,0.771C398.643,123.885,399.081,124.223,399.612,124.22z
				 M399.604,123.267c0.125,0.003,0.241,0.086,0.242,0.194c0.001,0.098-0.114,0.185-0.239,0.186
				c-0.143,0.001-0.241-0.084-0.242-0.182C399.364,123.355,399.462,123.268,399.604,123.267z"/>
			<path fill="#026695" d="M317.675,130.584c0.432-0.003,0.805-0.246,0.914-0.557h0.019l-0.003-0.381h0.003
				c-0.1-0.336-0.479-0.587-0.945-0.584c-0.533,0.004-0.964,0.352-0.961,0.775C316.705,130.253,317.142,130.587,317.675,130.584z
				 M317.667,129.631c0.123-0.001,0.241,0.086,0.242,0.199c0,0.098-0.116,0.181-0.239,0.182c-0.139,0.001-0.242-0.082-0.243-0.178
				C317.427,129.72,317.528,129.631,317.667,129.631z"/>
			<path fill="#026695" d="M302.884,127.788c0.432-0.003,0.804-0.25,0.92-0.557h0.013l-0.003-0.394h0.003
				c-0.1-0.336-0.479-0.578-0.944-0.575c-0.536,0.003-0.965,0.343-0.961,0.771C301.914,127.445,302.348,127.791,302.884,127.788z
				 M302.876,126.826c0.126,0.008,0.239,0.086,0.24,0.199c0.001,0.096-0.111,0.18-0.237,0.181c-0.139,0.001-0.241-0.081-0.242-0.177
				C302.636,126.916,302.737,126.828,302.876,126.826z"/>
			<path fill="#026695" d="M396.888,112.657c0.434-0.003,0.81-0.25,0.922-0.556h0.009l-0.003-0.391h0.011
				c-0.105-0.336-0.481-0.578-0.95-0.575c-0.533,0.003-0.956,0.343-0.952,0.771C395.927,112.322,396.355,112.661,396.888,112.657z
				 M396.88,111.699c0.127,0.009,0.25,0.087,0.251,0.2c0.001,0.095-0.121,0.181-0.248,0.181c-0.137,0.001-0.238-0.082-0.239-0.178
				C396.643,111.789,396.743,111.701,396.88,111.699z"/>
			<path fill="#026695" d="M416.239,121.126c0.434-0.003,0.802-0.245,0.922-0.553h0.011l-0.003-0.39h0.008
				c-0.102-0.336-0.48-0.582-0.949-0.579c-0.533,0.003-0.965,0.347-0.961,0.767C415.27,120.787,415.706,121.129,416.239,121.126z
				 M416.231,120.168c0.123,0.008,0.244,0.092,0.246,0.195c0,0.1-0.12,0.185-0.243,0.186c-0.136,0.001-0.241-0.082-0.241-0.183
				C415.991,120.262,416.095,120.168,416.231,120.168z"/>
			<path fill="#026695" d="M440.142,109.939c0.437-0.003,0.812-0.246,0.922-0.557h0.011l-0.003-0.385h0.005
				c-0.099-0.336-0.476-0.582-0.947-0.58c-0.532,0.004-0.964,0.348-0.961,0.771C439.172,109.604,439.609,109.943,440.142,109.939z
				 M440.134,108.981c0.126,0.004,0.247,0.091,0.248,0.2c0,0.096-0.119,0.184-0.245,0.184c-0.136,0.002-0.241-0.084-0.242-0.181
				C439.894,109.075,439.997,108.982,440.134,108.981z"/>
			<path fill="#026695" d="M433.559,110.58c0.432-0.002,0.807-0.25,0.918-0.557h0.016l-0.004-0.389h0.009
				c-0.1-0.336-0.481-0.578-0.95-0.575c-0.53,0.003-0.965,0.343-0.961,0.767C432.589,110.24,433.029,110.584,433.559,110.58z
				 M433.552,109.623c0.125,0.004,0.241,0.086,0.242,0.195c0,0.102-0.114,0.184-0.24,0.186c-0.136,0-0.241-0.082-0.241-0.183
				C433.311,109.713,433.415,109.625,433.552,109.623z"/>
			<path fill="#026695" d="M340.15,87.812c0.434-0.003,0.807-0.254,0.922-0.556h0.014l-0.004-0.394l0,0
				c-0.1-0.333-0.476-0.579-0.944-0.575c-0.533,0.003-0.959,0.347-0.955,0.771C339.187,87.474,339.617,87.815,340.15,87.812z
				 M340.143,86.855c0.128,0.004,0.244,0.09,0.244,0.195c0.001,0.095-0.113,0.18-0.241,0.181c-0.137,0.001-0.242-0.082-0.243-0.177
				C339.901,86.948,340.006,86.856,340.143,86.855z"/>
			<path fill="#026695" d="M347.131,91.743c0.431-0.002,0.807-0.251,0.919-0.553l0.02,0l-0.004-0.389l0,0
				c-0.102-0.336-0.48-0.586-0.947-0.583c-0.533,0.003-0.959,0.347-0.955,0.771C346.166,91.404,346.598,91.747,347.131,91.743z
				 M347.123,90.79c0.131,0.003,0.242,0.086,0.243,0.191c0.001,0.1-0.109,0.185-0.24,0.186c-0.14,0.001-0.242-0.083-0.242-0.183
				C346.883,90.878,346.983,90.79,347.123,90.79z"/>
			<path fill="#026695" d="M417.84,99.946c0.431-0.003,0.805-0.246,0.916-0.557h0.017l-0.003-0.385l0,0
				c-0.1-0.336-0.477-0.583-0.942-0.58c-0.529,0.003-0.966,0.343-0.963,0.767C416.867,99.607,417.311,99.95,417.84,99.946z
				 M417.832,98.993c0.126-0.001,0.239,0.086,0.24,0.191c0.001,0.096-0.11,0.184-0.237,0.185c-0.144,0.001-0.241-0.086-0.242-0.182
				C417.592,99.083,417.688,98.994,417.832,98.993z"/>
			<path fill="#026695" d="M368.233,121.941c0.431-0.002,0.812-0.249,0.925-0.557h0.008l-0.003-0.389h0.006
				c-0.1-0.336-0.478-0.579-0.947-0.576c-0.53,0.004-0.964,0.343-0.961,0.771C367.264,121.604,367.703,121.945,368.233,121.941z
				 M368.226,120.988c0.131,0,0.247,0.082,0.248,0.195c0.001,0.092-0.113,0.18-0.245,0.18c-0.134,0.002-0.239-0.085-0.239-0.178
				C367.988,121.072,368.092,120.99,368.226,120.988z"/>
			<path fill="#026695" d="M306.479,123.418c0.435-0.002,0.808-0.244,0.919-0.557l0.311-0.002l-0.003-0.385l-0.294,0.002
				c-0.1-0.335-0.481-0.582-0.945-0.58c-0.53,0.004-0.961,0.344-0.958,0.768C305.513,123.084,305.949,123.422,306.479,123.418z
				 M306.472,122.467c0.126-0.001,0.244,0.085,0.245,0.189c0.001,0.101-0.116,0.185-0.242,0.186
				c-0.14,0.001-0.241-0.082-0.242-0.183C306.231,122.555,306.332,122.468,306.472,122.467z"/>
			<path fill="#026695" d="M345.833,108.949c-0.423,0.004-0.797,0.232-0.92,0.553l-17.897,0.115l-9.145,12.788l-10.754,0.069
				l0.003,0.385l10.754-0.068l9.145-12.785l17.882-0.115c0.12,0.324,0.497,0.588,0.944,0.586c0.543-0.004,0.982-0.353,0.979-0.771
				C346.82,109.28,346.376,108.946,345.833,108.949z M345.84,109.898c-0.112,0-0.236-0.086-0.237-0.187
				c0-0.109,0.122-0.198,0.234-0.198c0.147-0.002,0.253,0.086,0.253,0.195C346.092,109.809,345.988,109.896,345.84,109.898z"/>
			<path fill="#026695" d="M279.648,129.102c0.434-0.003,0.807-0.241,0.919-0.554l18.354-0.118l3.169-4.135l17.79-0.114
				l-0.003-0.376l-17.94,0.115l-3.166,4.127l-18.189,0.117c-0.099-0.336-0.477-0.579-0.944-0.576
				c-0.531,0.004-0.962,0.34-0.958,0.768C278.682,128.77,279.118,129.105,279.648,129.102z M279.641,128.147
				c0.129,0.008,0.244,0.091,0.245,0.2c0.001,0.096-0.113,0.181-0.242,0.182c-0.139,0-0.241-0.082-0.242-0.179
				C279.4,128.241,279.501,128.148,279.641,128.147z"/>
			<path fill="#026695" d="M329.533,138.676c0.432-0.002,0.81-0.248,0.92-0.557l0.311-0.002l-0.004-0.389l-0.292,0.002
				c-0.101-0.332-0.48-0.579-0.946-0.576c-0.53,0.004-0.964,0.348-0.961,0.771C328.564,138.338,329.004,138.68,329.533,138.676z
				 M329.525,137.719c0.129,0.004,0.248,0.09,0.248,0.199c0.001,0.096-0.116,0.185-0.245,0.186c-0.139,0-0.238-0.086-0.239-0.183
				C329.288,137.813,329.387,137.72,329.525,137.719z"/>
			<g>
				<polygon fill="#026695" points="350.93,145.076 345.204,137.662 329.705,137.761 329.709,138.146 345.207,138.046 
					350.934,145.461 359.271,145.407 359.269,145.023 				"/>
				<path fill="#026695" d="M361.104,145.146c-0.004-0.425-0.443-0.762-0.974-0.76c-0.463,0.004-0.844,0.255-0.933,0.588
					l-0.295,0.002l0.003,0.394l0.312-0.002c0.117,0.306,0.494,0.544,0.926,0.541C360.674,145.905,361.107,145.561,361.104,145.146z
					 M360.378,145.151c0.001,0.095-0.104,0.18-0.239,0.181c-0.126,0.001-0.239-0.082-0.24-0.178
					c-0.001-0.109,0.111-0.193,0.237-0.199C360.271,144.955,360.377,145.042,360.378,145.151z"/>
			</g>
			<path fill="#026695" d="M340.658,141.74c-0.462-0.181-1.023-0.01-1.258,0.393c-0.186,0.32-0.091,0.688,0.214,0.913l-6.078,10.696
				l1.579,4.253l-2.539,4.219l0.53-0.003l2.441-4.053l-1.585-4.254l6.067-10.682c0.421,0.07,0.855-0.098,1.051-0.437
				C341.319,142.383,341.122,141.921,340.658,141.74z M340.45,142.542c-0.053,0.087-0.187,0.136-0.308,0.089
				c-0.117-0.048-0.167-0.16-0.119-0.253c0.071-0.109,0.21-0.146,0.323-0.103C340.47,142.318,340.514,142.432,340.45,142.542z"/>
			<path fill="#026695" d="M341.731,144.334c-0.473-0.18-1.037,0.002-1.269,0.402c-0.18,0.308-0.091,0.688,0.21,0.916l-4.418,7.849
				l1.588,4.239l-2.686,4.457l0.534-0.004l2.584-4.289l-1.588-4.24l4.408-7.829c0.409,0.054,0.864-0.114,1.057-0.444
				C342.388,144.991,342.193,144.516,341.731,144.334z M341.516,145.141c-0.047,0.084-0.202,0.143-0.311,0.096
				c-0.123-0.049-0.161-0.175-0.113-0.254c0.063-0.114,0.201-0.146,0.325-0.104C341.522,144.923,341.573,145.036,341.516,145.141z"
				/>
			<path fill="#026695" d="M384.101,119.771l1.531,2.676l-1.324,4.314l5.332,8.061l0.538-0.004l-5.448-8.238l1.322-4.315
				l-1.546-2.692c0.298-0.238,0.361-0.61,0.159-0.915c-0.261-0.392-0.827-0.541-1.283-0.337c-0.447,0.199-0.621,0.664-0.355,1.06
				C383.237,119.707,383.686,119.857,384.101,119.771z M383.729,118.834c0.106-0.049,0.252-0.016,0.327,0.089
				c0.058,0.093,0.01,0.214-0.099,0.259c-0.123,0.055-0.26,0.01-0.317-0.072C383.569,118.996,383.609,118.891,383.729,118.834z"/>
			<path fill="#026695" d="M385.637,134.848l0.538-0.004l-5.11-7.732l1.317-4.312l-2.736-4.255c0.279-0.238,0.351-0.619,0.15-0.923
				c-0.261-0.392-0.835-0.547-1.288-0.343c-0.456,0.195-0.618,0.682-0.358,1.069c0.212,0.322,0.673,0.469,1.083,0.396l2.733,4.247
				l-1.325,4.306L385.637,134.848z M379.085,118.155c-0.109,0.048-0.263,0.001-0.317-0.085c-0.069-0.101-0.022-0.219,0.085-0.264
				c0.119-0.053,0.259-0.02,0.327,0.086C379.234,117.97,379.206,118.102,379.085,118.155z"/>
			<path fill="#026695" d="M351.684,130.081l1.529,2.685l-1.316,4.307l5.324,8.064l0.538-0.004l-5.449-8.242l1.32-4.312
				l-1.543-2.697c0.295-0.233,0.361-0.61,0.159-0.915c-0.261-0.387-0.827-0.541-1.283-0.337c-0.451,0.2-0.613,0.673-0.358,1.061
				C350.824,130.018,351.268,130.167,351.684,130.081z M351.309,129.143c0.107-0.043,0.258-0.009,0.328,0.096
				c0.058,0.086,0.014,0.21-0.102,0.258c-0.121,0.053-0.255,0.006-0.314-0.081C351.15,129.311,351.189,129.201,351.309,129.143z"/>
			<path fill="#026695" d="M388.325,127.545l5.352,7.169l0.555-0.003l-5.487-7.352c0.278-0.247,0.367-0.646,0.135-0.963
				c-0.269-0.374-0.862-0.516-1.299-0.299c-0.451,0.213-0.579,0.7-0.308,1.078C387.489,127.473,387.924,127.618,388.325,127.545z
				 M387.956,126.607c0.096-0.043,0.246-0.014,0.321,0.082c0.058,0.077,0.023,0.213-0.08,0.262c-0.112,0.063-0.268,0.02-0.325-0.059
				C387.797,126.789,387.83,126.67,387.956,126.607z"/>
			<path fill="#026695" d="M347.337,134.504l7.067,10.694l0.552-0.003l-7.204-10.883c0.285-0.242,0.367-0.645,0.144-0.953
				c-0.277-0.384-0.861-0.52-1.307-0.307c-0.446,0.217-0.582,0.703-0.303,1.077C346.503,134.431,346.936,134.576,347.337,134.504z
				 M346.965,133.566c0.102-0.049,0.251-0.02,0.325,0.086c0.054,0.078,0.027,0.209-0.079,0.257
				c-0.117,0.059-0.272,0.017-0.327-0.063C346.809,133.742,346.848,133.624,346.965,133.566z"/>
			<path fill="#026695" d="M317.167,129.67l-16.2,0.104l-3.112,2.561l-6.608,0.042l-1.574-1.259l-5.09,0.033
				c-0.064-0.279-0.38-0.5-0.757-0.498c-0.42,0.004-0.771,0.298-0.769,0.645c0.003,0.35,0.358,0.635,0.779,0.633
				c0.351-0.002,0.654-0.197,0.748-0.473l5.091-0.032l1.574,1.274l6.608-0.043l3.112-2.564l16.199-0.104L317.167,129.67z
				 M283.832,131.462c-0.1,0.001-0.193-0.091-0.194-0.169c-0.001-0.088,0.093-0.154,0.191-0.154
				c0.104-0.002,0.202,0.063,0.202,0.151C284.032,131.368,283.936,131.461,283.832,131.462z"/>
			<path fill="#026695" d="M437.493,82.644c0.432-0.002,0.807-0.241,0.916-0.553h0.017l-0.003-0.385h0.011
				c-0.107-0.336-0.487-0.583-0.953-0.58c-0.529,0.003-0.961,0.343-0.957,0.768C436.526,82.309,436.964,82.647,437.493,82.644z
				 M437.485,81.69c0.129,0.003,0.242,0.086,0.243,0.196c0.001,0.096-0.111,0.185-0.24,0.185c-0.142,0.001-0.239-0.085-0.239-0.182
				C437.248,81.779,437.344,81.691,437.485,81.69z"/>
			<path fill="#026695" d="M352.186,150.551c0.436-0.002,0.807-0.245,0.924-0.557h0.009l-0.003-0.385l0,0
				c-0.092-0.336-0.471-0.582-0.942-0.58c-0.53,0.004-0.964,0.344-0.961,0.768C351.216,150.213,351.654,150.555,352.186,150.551z
				 M352.178,149.594c0.128,0.01,0.241,0.09,0.242,0.195c0.001,0.096-0.11,0.185-0.239,0.186c-0.134,0.001-0.242-0.086-0.243-0.182
				C351.938,149.688,352.044,149.596,352.178,149.594z"/>
			<path fill="#026695" d="M342.764,161.344c0.435-0.003,0.808-0.246,0.922-0.553h0.014l-0.003-0.39l0,0
				c-0.1-0.332-0.479-0.579-0.945-0.575c-0.529,0.003-0.961,0.343-0.957,0.768C341.798,161.009,342.234,161.348,342.764,161.344z
				 M342.756,160.39c0.132,0.003,0.245,0.086,0.246,0.195c0.001,0.101-0.111,0.181-0.243,0.181
				c-0.139,0.002-0.238-0.076-0.239-0.178C342.52,160.479,342.616,160.391,342.756,160.39z"/>
			<path fill="#026695" d="M328.427,136.576c0.426-0.003,0.804-0.246,0.913-0.557h0.017l-0.003-0.386h0.003
				c-0.099-0.335-0.482-0.587-0.942-0.585c-0.535,0.004-0.967,0.349-0.963,0.771C327.455,136.236,327.891,136.58,328.427,136.576z
				 M328.419,135.613c0.123,0.013,0.238,0.087,0.239,0.2c0.001,0.097-0.113,0.185-0.236,0.185c-0.142,0.001-0.244-0.086-0.245-0.182
				C328.177,135.703,328.277,135.615,328.419,135.613z"/>
			<g>
				<polygon fill="#026695" points="440.501,85.305 440.396,85.166 423.301,85.275 414.853,97.416 414.858,97.43 415.658,97.425 
					415.653,97.411 423.705,85.842 440.004,85.737 448.244,97.202 440.366,108.535 440.373,109.348 440.592,109.346 449.046,97.197 
									"/>
			</g>
			<g>
				<polygon fill="#026695" points="374.521,109.355 374.626,109.499 391.72,109.389 400.169,97.239 400.163,97.231 399.365,97.236 
					399.371,97.244 391.316,108.818 375.021,108.924 366.775,97.454 374.661,86.126 374.654,85.312 374.43,85.314 365.97,97.459 
									"/>
			</g>
			<g>
				<polygon fill="#026695" points="415.529,97.579 415.524,97.01 399.541,97.113 391.09,109.262 391.095,109.271 391.903,109.266 
					391.896,109.257 399.944,97.679 				"/>
			</g>
			<g>
				<polygon fill="#026695" points="374.273,85.476 366.236,97.024 367.043,97.019 375.073,85.471 366.533,73.575 366.429,73.437 
					350.771,73.537 350.776,74.101 366.025,74.003 				"/>
			</g>
			<g>
				<polygon fill="#026695" points="396.856,97.606 390.285,107.054 390.965,107.05 397.534,97.602 390.297,87.517 390.21,87.403 
					375.719,87.497 368.874,97.336 369.555,97.332 376.061,87.975 389.877,87.886 				"/>
			</g>
			<path fill="#026695" d="M369.213,98.213c0.429-0.003,0.805-0.25,0.917-0.562h0.017l-0.004-0.385l0,0
				c-0.094-0.336-0.479-0.579-0.941-0.576c-0.53,0.004-0.965,0.338-0.961,0.768C368.244,97.873,368.684,98.216,369.213,98.213z
				 M369.206,97.255c0.126,0.004,0.247,0.086,0.248,0.196c0,0.095-0.119,0.179-0.245,0.18c-0.135,0.001-0.239-0.082-0.24-0.177
				C368.968,97.344,369.071,97.256,369.206,97.255z"/>
			<path fill="#026695" d="M390.189,108.117c0.428-0.002,0.804-0.244,0.916-0.557h0.011l-0.003-0.385h0.005
				c-0.099-0.336-0.479-0.582-0.941-0.58c-0.539,0.004-0.962,0.348-0.959,0.771C389.222,107.779,389.65,108.121,390.189,108.117z
				 M390.181,107.164c0.12,0,0.239,0.091,0.24,0.195c0.001,0.102-0.116,0.181-0.236,0.182c-0.143,0-0.239-0.078-0.24-0.179
				C389.943,107.258,390.039,107.166,390.181,107.164z"/>
			<path fill="#026695" d="M367.234,72.158c0.431-0.002,0.81-0.246,0.922-0.557h0.011l-0.003-0.384l0,0
				c-0.094-0.336-0.473-0.583-0.942-0.581c-0.532,0.003-0.961,0.343-0.958,0.767C366.268,71.819,366.701,72.162,367.234,72.158z
				 M367.227,71.201c0.123,0.004,0.241,0.09,0.242,0.195c0.001,0.101-0.116,0.185-0.239,0.185c-0.136,0.001-0.242-0.081-0.243-0.182
				C366.986,71.293,367.091,71.202,367.227,71.201z"/>
			<path fill="#026695" d="M357.145,76.417c0.426-0.003,0.801-0.245,0.914-0.557l0.013,0l-0.003-0.384l0.003,0
				c-0.1-0.331-0.479-0.582-0.939-0.579c-0.538,0.003-0.964,0.347-0.961,0.771C356.175,76.082,356.605,76.42,357.145,76.417z
				 M357.137,75.469c0.123-0.001,0.238,0.084,0.239,0.19c0.001,0.091-0.113,0.185-0.236,0.186c-0.144,0-0.247-0.091-0.248-0.183
				C356.891,75.556,356.992,75.47,357.137,75.469z"/>
			<path fill="#026695" d="M350.563,74.741c0.431-0.003,0.804-0.246,0.919-0.553l0.013,0l-0.003-0.389l0,0
				c-0.099-0.337-0.477-0.587-0.941-0.584c-0.53,0.003-0.964,0.347-0.961,0.771C349.593,74.402,350.032,74.744,350.563,74.741z
				 M350.555,73.783c0.129,0.008,0.241,0.085,0.242,0.195c0.001,0.101-0.11,0.185-0.239,0.186c-0.14,0-0.24-0.082-0.24-0.182
				C350.316,73.872,350.415,73.784,350.555,73.783z"/>
			<path fill="#026695" d="M440.013,82.956c-0.429,0.003-0.81,0.246-0.914,0.557l-0.313,0.002l0.003,0.388l0.294-0.002
				c0.097,0.333,0.476,0.579,0.942,0.576c0.535-0.003,0.964-0.342,0.961-0.766C440.982,83.295,440.549,82.952,440.013,82.956z
				 M440.021,83.913c-0.125-0.008-0.238-0.09-0.239-0.195c-0.001-0.101,0.111-0.185,0.237-0.185c0.139-0.001,0.24,0.081,0.241,0.182
				C440.261,83.82,440.16,83.912,440.021,83.913z"/>
			<path fill="#026695" d="M399.324,88.823c0.437-0.003,0.809-0.246,0.922-0.552l18.35-0.118l3.169-4.135l17.789-0.115l-0.003-0.376
				l-17.789,0.115l-3.169,4.117l-18.331,0.118c-0.102-0.328-0.479-0.578-0.95-0.575c-0.53,0.003-0.956,0.346-0.953,0.767
				C398.362,88.488,398.793,88.827,399.324,88.823z M399.316,87.865c0.125,0.008,0.247,0.095,0.248,0.195
				c0,0.1-0.119,0.188-0.245,0.189c-0.137,0.001-0.241-0.085-0.242-0.186C399.076,87.963,399.18,87.866,399.316,87.865z"/>
			<path fill="#026695" d="M326.19,76.551c0.431-0.003,0.804-0.242,0.919-0.548l18.351-0.118l3.169-4.131l17.79-0.114l-0.003-0.385
				l-17.79,0.114l-3.169,4.127l-18.335,0.118c-0.099-0.337-0.481-0.583-0.944-0.581c-0.532,0.003-0.961,0.343-0.957,0.767
				C325.224,76.215,325.657,76.554,326.19,76.551z M326.182,75.597c0.126,0.004,0.245,0.09,0.246,0.195
				c0.001,0.102-0.117,0.185-0.242,0.186c-0.14,0.001-0.241-0.081-0.242-0.183C325.942,75.69,326.043,75.598,326.182,75.597z"/>
			<path fill="#026695" d="M377.192,85.559c0.434-0.003,0.81-0.25,0.922-0.562l0.305-0.001l-0.003-0.385l-0.289,0.001
				c-0.099-0.335-0.479-0.579-0.947-0.576c-0.533,0.003-0.964,0.339-0.96,0.768C376.223,85.219,376.659,85.562,377.192,85.559z
				 M377.185,84.601c0.125,0.002,0.244,0.086,0.245,0.195c0.001,0.096-0.117,0.18-0.242,0.181c-0.14,0.001-0.241-0.082-0.242-0.178
				C376.943,84.69,377.045,84.602,377.185,84.601z"/>
			<g>
				<polygon fill="#026695" points="398.457,91.946 392.731,84.536 378.121,84.63 378.124,85.014 392.734,84.92 398.461,92.335 
					406.804,92.282 406.801,91.893 				"/>
				<path fill="#026695" d="M408.631,92.017c-0.004-0.424-0.439-0.758-0.973-0.755c-0.46,0.003-0.839,0.254-0.933,0.592
					l-0.297,0.002l0.003,0.385l0.313-0.002c0.118,0.31,0.498,0.552,0.927,0.549C408.203,92.785,408.634,92.432,408.631,92.017z
					 M407.905,92.021c0.001,0.1-0.098,0.185-0.239,0.186c-0.126,0-0.241-0.083-0.242-0.183c-0.001-0.105,0.113-0.188,0.238-0.199
					C407.805,91.825,407.904,91.916,407.905,92.021z"/>
			</g>
			<path fill="#026695" d="M388.188,88.614c-0.463-0.18-1.023-0.006-1.259,0.397c-0.185,0.312-0.09,0.687,0.211,0.907l-6.077,10.701
				l1.583,4.25l-2.542,4.215l0.532-0.004l2.444-4.043l-1.585-4.258l6.063-10.679c0.422,0.073,0.856-0.105,1.05-0.435
				C388.847,89.261,388.652,88.794,388.188,88.614z M387.98,89.42c-0.054,0.087-0.184,0.132-0.31,0.085
				c-0.116-0.042-0.168-0.161-0.113-0.253c0.064-0.11,0.209-0.15,0.318-0.103C388,89.197,388.043,89.307,387.98,89.42z"/>
			<path fill="#026695" d="M389.264,91.209c-0.473-0.181-1.041,0.001-1.266,0.401c-0.188,0.312-0.096,0.691,0.208,0.917
				l-4.416,7.843l1.585,4.245l-2.685,4.451l0.53-0.003l2.579-4.284l-1.582-4.241l4.405-7.833c0.413,0.055,0.866-0.11,1.059-0.439
				C389.915,91.861,389.721,91.39,389.264,91.209z M389.037,92.021c-0.042,0.078-0.196,0.137-0.299,0.093
				c-0.126-0.047-0.167-0.174-0.116-0.262c0.063-0.109,0.199-0.145,0.325-0.097C389.052,91.793,389.106,91.911,389.037,92.021z"/>
			<path fill="#026695" d="M356.574,75.458l-8.191,0.053l-2.316,2.556l-7.401,0.047l-1.576-1.258l-5.082,0.032
				c-0.072-0.275-0.382-0.497-0.763-0.494c-0.417,0.003-0.771,0.302-0.768,0.644c0.003,0.35,0.36,0.631,0.778,0.628
				c0.351-0.002,0.654-0.196,0.754-0.472l5.083-0.033l1.576,1.275l7.401-0.048l2.316-2.56l8.191-0.053L356.574,75.458z
				 M331.251,77.2c-0.095,0-0.188-0.083-0.188-0.165c0-0.092,0.092-0.153,0.186-0.154c0.107-0.001,0.199,0.06,0.199,0.151
				C331.448,77.116,331.357,77.199,331.251,77.2z"/>
			<path fill="#026695" d="M436.984,81.676l-16.604,0.106l-2.113,2.555l-7.613,0.049l-1.574-1.262l-5.084,0.032
				c-0.069-0.271-0.381-0.496-0.759-0.493c-0.427,0.002-0.77,0.298-0.767,0.643c0.003,0.354,0.351,0.636,0.776,0.633
				c0.356-0.002,0.656-0.196,0.751-0.472l5.085-0.033l1.574,1.272l7.612-0.049l2.113-2.555l16.604-0.106L436.984,81.676z
				 M403.243,83.471c-0.097,0.001-0.19-0.081-0.191-0.169c0-0.084,0.093-0.149,0.188-0.15c0.107-0.001,0.196,0.063,0.197,0.147
				C403.438,83.388,403.351,83.471,403.243,83.471z"/>
			<path fill="#026695" d="M370.938,112.78c-0.219-0.304-0.668-0.44-1.047-0.36l-9.45-12.849l-10.626,0.047l-9.151-12.444
				l-0.397,0.192l9.152,12.447l10.617-0.038l9.436,12.83c-0.301,0.238-0.372,0.633-0.128,0.955c0.273,0.379,0.854,0.5,1.295,0.28
				C371.071,113.628,371.218,113.146,370.938,112.78z M369.938,113.272c-0.06-0.092-0.031-0.214,0.083-0.272
				c0.1-0.053,0.249-0.014,0.312,0.072c0.07,0.105,0.037,0.22-0.064,0.268C370.156,113.393,370.012,113.373,369.938,113.272z"/>
			<path fill="#026695" d="M347.604,91.127l-0.333,0.164l4.804,6.853l11.914-0.208l3.401,4.626l-0.527,1.749l2.619,3.556
				c-0.258,0.194-0.334,0.521-0.139,0.788c0.214,0.291,0.71,0.389,1.069,0.207c0.366-0.179,0.488-0.57,0.27-0.867
				c-0.179-0.244-0.538-0.359-0.876-0.292l-2.62-3.556l0.548-1.758l-3.406-4.622l-11.922,0.212L347.604,91.127z M370.116,108.452
				c-0.091,0.049-0.212,0.015-0.258-0.056c-0.06-0.073-0.036-0.165,0.055-0.214c0.083-0.04,0.228-0.022,0.278,0.05
				C370.246,108.303,370.199,108.413,370.116,108.452z"/>
			<path fill="#026695" d="M415.892,103.1l8.7-0.057l-0.003-0.311l-8.699,0.056l-2.349-1.913l-7.427,0.048
				c-0.083-0.279-0.393-0.483-0.765-0.481c-0.424,0.003-0.771,0.293-0.769,0.626c0.003,0.371,0.355,0.645,0.779,0.642
				c0.348-0.002,0.648-0.197,0.745-0.454l7.438-0.049L415.892,103.1z M405.156,101.064c0-0.07,0.095-0.14,0.197-0.141
				c0.109-0.001,0.201,0.068,0.202,0.139c0.001,0.104-0.09,0.17-0.199,0.176C405.254,101.238,405.157,101.17,405.156,101.064z"/>
			<path fill="#026695" d="M446.015,96.84c-0.377-0.195-0.851-0.1-1.069,0.195c-0.19,0.246-0.154,0.557,0.067,0.76l-3.933,5.159
				l-3.211,0.615l-4.39,5.766l0.447-0.003l4.261-5.603l3.238-0.599l3.92-5.155c0.339,0.086,0.713-0.017,0.911-0.268
				C446.479,97.409,446.367,97.013,446.015,96.84z M445.757,97.454c-0.053,0.074-0.173,0.097-0.254,0.063
				c-0.104-0.052-0.121-0.157-0.071-0.231c0.056-0.07,0.182-0.098,0.28-0.045C445.788,97.278,445.81,97.384,445.757,97.454z"/>
			<path fill="#026695" d="M347.575,120.355l-3.662-6.002l-5.933-0.505l-1.12-1.833l-0.514,0.003l1.216,2l5.922,0.509l3.655,5.988
				c-0.322,0.217-0.43,0.611-0.223,0.945c0.236,0.39,0.803,0.561,1.268,0.369c0.459-0.191,0.639-0.656,0.403-1.047
				C348.397,120.473,347.96,120.301,347.575,120.355z M347.858,121.303c-0.118,0.045-0.254,0.01-0.317-0.094
				c-0.054-0.092-0.015-0.215,0.103-0.264c0.109-0.044,0.252,0.004,0.313,0.1C348.013,121.145,347.969,121.258,347.858,121.303z"/>
			<path fill="#026695" d="M346.55,128.277l-2.267-3.707l0.715-1.719l-2.947-4.83l-4.189-1.154l-2.953-4.84l-0.429,0.004
				l3.034,4.979l4.182,1.158l2.947,4.832l-0.699,1.709l2.267,3.715c-0.269,0.174-0.379,0.496-0.21,0.775
				c0.188,0.307,0.67,0.434,1.049,0.278c0.38-0.157,0.537-0.547,0.352-0.847C347.244,128.369,346.9,128.236,346.55,128.277z
				 M346.783,129.05c-0.091,0.035-0.203,0.001-0.247-0.077c-0.046-0.07-0.018-0.17,0.079-0.205c0.087-0.037,0.228-0.006,0.273,0.066
				C346.932,128.904,346.879,129.019,346.783,129.05z"/>
			<path fill="#026695" d="M337.993,124.93l-3.321-5.436l1.051-2.551l-2.988-4.901l-0.421,0.003l3.072,5.035l-1.075,2.562
				l3.312,5.427c-0.271,0.189-0.365,0.506-0.197,0.775c0.188,0.309,0.66,0.438,1.031,0.291c0.399-0.168,0.544-0.546,0.357-0.851
				C338.655,125.026,338.314,124.889,337.993,124.93z M338.2,125.711c-0.082,0.031-0.2-0.008-0.247-0.076
				c-0.048-0.078-0.015-0.18,0.068-0.215c0.109-0.045,0.22-0.001,0.273,0.068C338.339,125.566,338.305,125.668,338.2,125.711z"/>
			<path fill="#026695" d="M440.037,101.325l4.374-5.686l-2.558-4.396l1.335-1.735l-0.271-0.357l-1.451,1.89l2.541,4.396
				l-4.361,5.669c-0.399-0.112-0.861,0.018-1.114,0.34c-0.28,0.369-0.155,0.849,0.279,1.077c0.438,0.22,1.021,0.103,1.302-0.267
				C440.348,101.957,440.299,101.568,440.037,101.325z M439.204,102.018c-0.115-0.053-0.151-0.17-0.077-0.271
				c0.074-0.084,0.215-0.116,0.332-0.063c0.102,0.056,0.127,0.179,0.058,0.262C439.443,102.051,439.301,102.068,439.204,102.018z"/>
			<path fill="#026695" d="M431.22,104.75l2.706-3.516l2.162-0.399l3.52-4.575l-0.972-3.519l3.529-4.587l-0.23-0.301l-3.627,4.72
				l0.969,3.515l-3.521,4.574l-2.152,0.406l-2.703,3.517c-0.322-0.099-0.723-0.008-0.927,0.256c-0.22,0.294-0.102,0.695,0.253,0.876
				c0.363,0.191,0.853,0.096,1.072-0.198C431.487,105.277,431.448,104.967,431.22,104.75z M430.544,105.313
				c-0.093-0.042-0.108-0.143-0.061-0.213c0.059-0.07,0.171-0.098,0.265-0.05c0.086,0.038,0.122,0.147,0.069,0.227
				C430.761,105.342,430.625,105.356,430.544,105.313z"/>
			<path fill="#026695" d="M430.273,97.032l3.955-5.145l3.225-0.603l3.562-4.641l-0.219-0.292l-3.664,4.768l-3.241,0.59
				l-3.956,5.137c-0.33-0.089-0.713,0.008-0.911,0.268c-0.226,0.299-0.112,0.687,0.237,0.869c0.38,0.194,0.854,0.095,1.077-0.195
				C430.526,97.543,430.483,97.237,430.273,97.032z M429.565,97.583c-0.075-0.038-0.098-0.143-0.042-0.213
				c0.051-0.075,0.178-0.102,0.248-0.059c0.105,0.051,0.128,0.147,0.08,0.223C429.796,97.604,429.67,97.631,429.565,97.583z"/>
		</g>
	</g>
	<g opacity="0.6">
		<g>
			<g>
				<polygon fill="#026695" points="138.956,125.873 126.251,125.955 120.21,117.554 119.404,117.56 125.848,126.526 
					138.961,126.441 				"/>
			</g>
			<g>
				<polygon fill="#026695" points="174.535,125.154 168.804,117.185 167.995,117.19 174.133,125.726 187.245,125.641 
					187.24,125.072 				"/>
			</g>
			<g>
				<polygon fill="#026695" points="90.11,131.602 90.008,131.457 74.354,131.558 74.359,132.131 89.614,132.033 97.854,143.502 
					89.934,154.883 89.939,155.645 90.205,155.643 98.659,143.498 				"/>
			</g>
			<g>
				<polygon fill="#026695" points="116.279,116.517 99.18,116.627 99.081,116.767 90.73,128.771 99.046,140.351 99.601,140.347 
					99.598,139.993 91.531,128.767 99.586,117.193 115.885,117.088 124.124,128.558 124.121,128.562 124.922,128.557 
					124.927,128.552 				"/>
			</g>
			<g>
				<polygon fill="#026695" points="165.446,139.968 165.347,140.113 148.249,140.223 139.601,128.183 139.611,128.174 
					140.407,128.169 140.401,128.178 148.646,139.651 164.942,139.547 172.997,127.968 164.926,116.742 164.919,115.928 
					165.149,115.927 173.795,127.963 				"/>
			</g>
			<g>
				<polygon fill="#026695" points="124.254,128.718 124.249,128.153 140.232,128.051 148.877,140.087 148.872,140.1 
					148.063,140.105 148.071,140.092 139.835,128.618 				"/>
			</g>
			<g>
				<polygon fill="#026695" points="172.757,104.046 172.857,103.905 188.514,103.805 188.519,104.376 173.265,104.475 
					165.209,116.05 173.451,127.52 172.993,127.522 172.998,128.091 173.055,128.09 164.403,116.055 				"/>
			</g>
			<g>
				<polygon fill="#026695" points="149.319,118.337 149.404,118.215 163.896,118.122 171.095,128.142 170.411,128.146 
					163.56,118.609 149.751,118.698 142.921,128.506 149.91,138.226 149.979,138.226 149.982,138.707 149.57,138.709 
					142.241,128.511 				"/>
			</g>
			<g>
				<path fill="#026695" d="M154.901,115.595c-0.431,0.003-0.801,0.232-0.911,0.553l-6.135,0.039l-5.736,7.173l-8.335,0.054
					l0.003,0.386l8.335-0.054l5.737-7.174l6.117-0.039c0.105,0.34,0.477,0.587,0.938,0.584c0.549-0.004,0.975-0.347,0.971-0.767
					C155.882,115.926,155.451,115.591,154.901,115.595z M154.909,116.544c-0.12,0.001-0.236-0.077-0.237-0.187
					c-0.001-0.104,0.113-0.192,0.234-0.193c0.147-0.001,0.252,0.086,0.253,0.19C155.16,116.464,155.057,116.543,154.909,116.544z"/>
				<path fill="#026695" d="M132.921,124.316c0.429-0.003,0.804-0.251,0.919-0.558l0.311-0.002l-0.003-0.389l-0.289,0.002
					c-0.102-0.336-0.481-0.578-0.949-0.575c-0.531,0.003-0.959,0.343-0.956,0.767C131.957,123.977,132.391,124.32,132.921,124.316z
					 M132.913,123.357c0.129,0.004,0.247,0.086,0.248,0.195c0.001,0.102-0.116,0.186-0.245,0.187
					c-0.14,0.001-0.238-0.082-0.24-0.183C132.676,123.446,132.773,123.358,132.913,123.357z"/>
			</g>
			<path fill="#026695" d="M119.85,118.238c0.428-0.003,0.806-0.246,0.919-0.557h0.008l-0.003-0.385h0.009
				c-0.1-0.337-0.482-0.579-0.945-0.576c-0.535,0.004-0.965,0.349-0.961,0.764C118.879,117.903,119.313,118.241,119.85,118.238z
				 M119.842,117.286c0.126,0.003,0.242,0.085,0.242,0.19c0.001,0.101-0.113,0.185-0.239,0.185
				c-0.145,0.001-0.244-0.081-0.245-0.182C119.599,117.374,119.697,117.287,119.842,117.286z"/>
			<path fill="#026695" d="M196.688,108.566c0.437-0.003,0.806-0.246,0.918-0.558h0.017l-0.003-0.385l0,0
				c-0.1-0.336-0.476-0.583-0.944-0.579c-0.53,0.004-0.964,0.347-0.96,0.775C195.718,108.227,196.157,108.569,196.688,108.566z
				 M196.68,107.617c0.129-0.001,0.241,0.08,0.242,0.194c0.001,0.097-0.11,0.181-0.239,0.182c-0.134,0.001-0.239-0.081-0.24-0.178
				C196.442,107.7,196.546,107.618,196.68,107.617z"/>
			<path fill="#026695" d="M92.723,156.803c0.432-0.002,0.81-0.246,0.923-0.553h0.014l-0.003-0.389l0,0
				c-0.1-0.336-0.476-0.588-0.945-0.584c-0.529,0.002-0.958,0.346-0.955,0.77C91.759,156.469,92.193,156.807,92.723,156.803z
				 M92.716,155.85c0.129-0.002,0.244,0.086,0.245,0.189c0.001,0.098-0.113,0.186-0.242,0.186c-0.137,0.002-0.239-0.086-0.239-0.182
				C92.478,155.938,92.58,155.85,92.716,155.85z"/>
			<path fill="#026695" d="M150.03,139.31c0.432-0.003,0.807-0.245,0.92-0.556l0.016-0.001l-0.003-0.385l0,0
				c-0.094-0.336-0.474-0.583-0.944-0.58c-0.53,0.004-0.964,0.343-0.961,0.768C149.062,138.971,149.501,139.313,150.03,139.31z
				 M150.022,138.353c0.131,0.004,0.25,0.09,0.251,0.195c0.001,0.096-0.117,0.184-0.248,0.185c-0.137,0.001-0.239-0.086-0.239-0.182
				C149.785,138.445,149.886,138.354,150.022,138.353z"/>
			<path fill="#026695" d="M170.873,129.158c0.431-0.003,0.807-0.246,0.916-0.558h0.019l-0.003-0.385l0,0
				c-0.097-0.336-0.479-0.583-0.944-0.58c-0.53,0.004-0.964,0.343-0.961,0.771C169.903,128.823,170.342,129.161,170.873,129.158z
				 M170.865,128.205c0.125,0.002,0.241,0.086,0.242,0.194c0.001,0.098-0.114,0.185-0.239,0.185
				c-0.143,0.002-0.241-0.084-0.242-0.182C170.625,128.294,170.723,128.206,170.865,128.205z"/>
			<path fill="#026695" d="M88.936,135.521c0.432-0.002,0.805-0.245,0.914-0.557h0.019l-0.003-0.38h0.003
				c-0.1-0.337-0.479-0.587-0.945-0.584c-0.533,0.004-0.964,0.351-0.961,0.775C87.966,135.191,88.402,135.525,88.936,135.521z
				 M88.928,134.568c0.123,0,0.241,0.087,0.242,0.2c0,0.097-0.116,0.181-0.239,0.182c-0.139,0.001-0.242-0.082-0.243-0.179
				C88.688,134.658,88.789,134.569,88.928,134.568z"/>
			<path fill="#026695" d="M74.145,132.727c0.432-0.003,0.804-0.25,0.92-0.557h0.013l-0.003-0.395h0.003
				c-0.1-0.335-0.479-0.577-0.944-0.574c-0.536,0.003-0.965,0.342-0.961,0.771C73.175,132.383,73.608,132.729,74.145,132.727z
				 M74.137,131.765c0.126,0.008,0.239,0.086,0.24,0.199c0.001,0.096-0.111,0.18-0.237,0.181c-0.139,0.001-0.241-0.081-0.242-0.177
				C73.896,131.854,73.998,131.766,74.137,131.765z"/>
			<path fill="#026695" d="M168.148,117.596c0.434-0.003,0.81-0.25,0.922-0.557h0.009l-0.003-0.39h0.011
				c-0.105-0.337-0.481-0.578-0.95-0.575c-0.533,0.003-0.956,0.343-0.952,0.771C167.188,117.261,167.616,117.6,168.148,117.596z
				 M168.141,116.638c0.127,0.009,0.25,0.087,0.251,0.2c0.001,0.095-0.121,0.18-0.248,0.181c-0.137,0.001-0.238-0.082-0.239-0.178
				C167.903,116.728,168.004,116.639,168.141,116.638z"/>
			<path fill="#026695" d="M187.5,126.064c0.434-0.004,0.802-0.245,0.922-0.553h0.011l-0.003-0.391h0.008
				c-0.102-0.335-0.48-0.581-0.949-0.578c-0.533,0.003-0.965,0.347-0.961,0.766C186.53,125.726,186.967,126.067,187.5,126.064z
				 M187.492,125.106c0.123,0.007,0.244,0.091,0.246,0.194c0,0.101-0.12,0.186-0.243,0.187c-0.136,0.001-0.241-0.082-0.241-0.183
				C187.252,125.2,187.355,125.106,187.492,125.106z"/>
			<path fill="#026695" d="M211.402,114.878c0.437-0.003,0.812-0.246,0.922-0.557h0.011l-0.003-0.385h0.005
				c-0.099-0.337-0.476-0.583-0.947-0.58c-0.532,0.003-0.964,0.348-0.961,0.771C210.433,114.542,210.87,114.881,211.402,114.878z
				 M211.395,113.92c0.126,0.004,0.247,0.091,0.248,0.199c0,0.097-0.119,0.185-0.245,0.185c-0.136,0.002-0.241-0.084-0.242-0.181
				C211.154,114.014,211.258,113.921,211.395,113.92z"/>
			<path fill="#026695" d="M204.819,115.519c0.432-0.003,0.807-0.25,0.918-0.557h0.016l-0.004-0.39h0.009
				c-0.1-0.336-0.481-0.578-0.95-0.574c-0.53,0.003-0.965,0.343-0.961,0.766C203.85,115.179,204.29,115.521,204.819,115.519z
				 M204.813,114.562c0.125,0.003,0.241,0.086,0.242,0.195c0,0.101-0.114,0.184-0.24,0.185c-0.136,0.001-0.241-0.081-0.241-0.182
				C204.571,114.65,204.676,114.563,204.813,114.562z"/>
			<path fill="#026695" d="M111.411,92.75c0.434-0.003,0.807-0.254,0.922-0.556h0.014l-0.004-0.394l0,0
				c-0.1-0.333-0.476-0.579-0.944-0.575c-0.533,0.003-0.959,0.347-0.955,0.771C110.447,92.412,110.878,92.754,111.411,92.75z
				 M111.403,91.793c0.128,0.004,0.244,0.09,0.244,0.195c0.001,0.096-0.113,0.181-0.241,0.181c-0.137,0.001-0.242-0.082-0.243-0.177
				C111.162,91.886,111.267,91.794,111.403,91.793z"/>
			<path fill="#026695" d="M118.392,96.682c0.431-0.003,0.807-0.251,0.919-0.553l0.02-0.001l-0.004-0.389l0,0
				c-0.102-0.336-0.48-0.587-0.947-0.584c-0.533,0.004-0.959,0.347-0.955,0.771C117.427,96.343,117.858,96.686,118.392,96.682z
				 M118.384,95.728c0.131,0.003,0.242,0.086,0.243,0.191c0.001,0.1-0.109,0.185-0.24,0.186c-0.14,0.001-0.242-0.083-0.242-0.183
				C118.144,95.816,118.244,95.729,118.384,95.728z"/>
			<path fill="#026695" d="M189.101,104.885c0.431-0.003,0.805-0.246,0.916-0.557h0.017l-0.003-0.385l0,0
				c-0.1-0.337-0.477-0.583-0.942-0.58c-0.529,0.003-0.966,0.343-0.963,0.767C188.128,104.545,188.571,104.889,189.101,104.885z
				 M189.093,103.932c0.126-0.001,0.239,0.086,0.24,0.191c0.001,0.096-0.11,0.184-0.237,0.185c-0.144,0.001-0.241-0.086-0.242-0.182
				C188.853,104.021,188.948,103.933,189.093,103.932z"/>
			<path fill="#026695" d="M139.494,126.88c0.431-0.003,0.812-0.249,0.925-0.557h0.008l-0.003-0.39h0.006
				c-0.1-0.336-0.478-0.578-0.947-0.575c-0.53,0.003-0.964,0.343-0.961,0.771C138.524,126.541,138.964,126.884,139.494,126.88z
				 M139.486,125.927c0.131-0.001,0.247,0.081,0.248,0.194c0.001,0.093-0.113,0.181-0.245,0.181
				c-0.134,0.002-0.239-0.085-0.239-0.178C139.249,126.011,139.353,125.928,139.486,125.927z"/>
			<path fill="#026695" d="M77.74,128.356c0.435-0.002,0.808-0.245,0.919-0.557l0.311-0.002l-0.003-0.385l-0.294,0.002
				c-0.1-0.335-0.481-0.583-0.945-0.58c-0.53,0.003-0.961,0.344-0.958,0.767C76.773,128.022,77.21,128.36,77.74,128.356z
				 M77.732,127.405c0.126-0.001,0.244,0.085,0.245,0.189c0.001,0.101-0.116,0.185-0.242,0.186c-0.14,0.001-0.241-0.082-0.242-0.183
				C77.492,127.493,77.593,127.406,77.732,127.405z"/>
			<path fill="#026695" d="M117.094,113.888c-0.423,0.003-0.797,0.232-0.92,0.553l-17.897,0.115l-9.145,12.788l-10.754,0.068
				l0.003,0.385l10.754-0.068l9.145-12.784l17.882-0.115c0.12,0.323,0.497,0.588,0.944,0.585c0.543-0.003,0.982-0.352,0.979-0.771
				C118.081,114.219,117.637,113.885,117.094,113.888z M117.101,114.836c-0.112,0.001-0.236-0.085-0.237-0.186
				c0-0.109,0.122-0.198,0.234-0.199c0.147-0.001,0.253,0.087,0.253,0.196C117.353,114.747,117.249,114.835,117.101,114.836z"/>
			<path fill="#026695" d="M50.909,134.04c0.434-0.003,0.807-0.241,0.919-0.554l18.354-0.118l3.169-4.135l17.79-0.114l-0.003-0.376
				l-17.94,0.115l-3.166,4.127l-18.189,0.117c-0.099-0.337-0.477-0.579-0.944-0.576c-0.531,0.003-0.962,0.339-0.958,0.767
				C49.942,133.708,50.379,134.043,50.909,134.04z M50.901,133.086c0.129,0.008,0.244,0.09,0.245,0.2
				c0.001,0.096-0.113,0.181-0.242,0.182c-0.139,0-0.241-0.083-0.242-0.179C50.661,133.18,50.762,133.086,50.901,133.086z"/>
			<path fill="#026695" d="M100.794,143.613c0.432-0.002,0.81-0.248,0.92-0.557l0.311-0.002l-0.004-0.389l-0.292,0.002
				c-0.101-0.33-0.48-0.578-0.946-0.576c-0.53,0.004-0.964,0.348-0.961,0.773C99.825,143.275,100.265,143.617,100.794,143.613z
				 M100.786,142.658c0.129,0.002,0.248,0.088,0.248,0.197c0.001,0.098-0.116,0.186-0.245,0.186
				c-0.139,0.002-0.238-0.086-0.239-0.182C100.549,142.75,100.647,142.658,100.786,142.658z"/>
			<g>
				<polygon fill="#026695" points="122.19,150.016 116.465,142.6 100.966,142.699 100.97,143.084 116.468,142.984 122.194,150.398 
					130.532,150.346 130.529,149.961 				"/>
				<path fill="#026695" d="M132.365,150.084c-0.004-0.424-0.443-0.762-0.974-0.758c-0.463,0.002-0.844,0.254-0.933,0.588
					l-0.295,0.002l0.003,0.393l0.312-0.002c0.117,0.305,0.494,0.543,0.926,0.541C131.935,150.844,132.368,150.498,132.365,150.084z
					 M131.639,150.09c0.001,0.096-0.104,0.18-0.239,0.18c-0.126,0.002-0.239-0.082-0.24-0.178c-0.001-0.109,0.111-0.193,0.237-0.197
					C131.532,149.893,131.638,149.98,131.639,150.09z"/>
			</g>
			<path fill="#026695" d="M155.361,124.709l1.531,2.676l-1.324,4.315l5.332,8.06l0.538-0.003l-5.448-8.238l1.322-4.315
				l-1.546-2.693c0.298-0.238,0.361-0.609,0.159-0.914c-0.261-0.393-0.827-0.541-1.283-0.338c-0.447,0.199-0.621,0.664-0.355,1.061
				C154.498,124.646,154.946,124.796,155.361,124.709z M154.989,123.771c0.106-0.048,0.252-0.015,0.327,0.09
				c0.058,0.093,0.01,0.214-0.099,0.259c-0.123,0.054-0.26,0.01-0.317-0.072C154.83,123.935,154.87,123.829,154.989,123.771z"/>
			<path fill="#026695" d="M156.897,139.785l0.538-0.003l-5.11-7.732l1.317-4.312l-2.736-4.255c0.279-0.239,0.351-0.619,0.15-0.923
				c-0.261-0.393-0.835-0.547-1.288-0.343c-0.456,0.195-0.618,0.682-0.358,1.069c0.212,0.322,0.673,0.469,1.083,0.396l2.733,4.247
				l-1.325,4.306L156.897,139.785z M150.346,123.094c-0.109,0.048-0.263,0.001-0.317-0.086c-0.069-0.1-0.022-0.218,0.085-0.263
				c0.119-0.053,0.259-0.02,0.327,0.085C150.495,122.908,150.467,123.04,150.346,123.094z"/>
			<path fill="#026695" d="M122.944,135.02l1.529,2.684l-1.316,4.307l5.324,8.064l0.538-0.004l-5.449-8.242l1.32-4.311l-1.543-2.697
				c0.295-0.234,0.361-0.611,0.159-0.916c-0.261-0.387-0.827-0.541-1.283-0.336c-0.451,0.199-0.613,0.672-0.358,1.061
				C122.085,134.955,122.528,135.105,122.944,135.02z M122.569,134.081c0.107-0.044,0.258-0.009,0.328,0.095
				c0.058,0.087,0.014,0.211-0.102,0.259c-0.121,0.053-0.255,0.006-0.314-0.081C122.411,134.249,122.45,134.14,122.569,134.081z"/>
			<path fill="#026695" d="M159.586,132.483l5.352,7.169l0.555-0.004l-5.487-7.352c0.278-0.246,0.367-0.646,0.135-0.963
				c-0.269-0.373-0.862-0.515-1.299-0.298c-0.451,0.213-0.579,0.7-0.308,1.078C158.75,132.41,159.185,132.557,159.586,132.483z
				 M159.217,131.546c0.096-0.044,0.246-0.014,0.321,0.081c0.058,0.078,0.023,0.214-0.08,0.263c-0.112,0.063-0.268,0.019-0.325-0.06
				C159.058,131.727,159.091,131.607,159.217,131.546z"/>
			<path fill="#026695" d="M118.598,139.442l7.067,10.694l0.552-0.004l-7.204-10.882c0.285-0.242,0.367-0.645,0.144-0.954
				c-0.277-0.383-0.861-0.519-1.307-0.306c-0.446,0.217-0.582,0.702-0.303,1.077C117.764,139.369,118.196,139.515,118.598,139.442z
				 M118.226,138.504c0.102-0.048,0.251-0.019,0.325,0.086c0.054,0.079,0.027,0.209-0.079,0.258
				c-0.117,0.059-0.272,0.016-0.327-0.063C118.069,138.681,118.108,138.563,118.226,138.504z"/>
			<path fill="#026695" d="M88.428,134.607l-16.2,0.104l-3.112,2.56l-6.608,0.043l-1.574-1.259l-5.09,0.033
				c-0.064-0.28-0.38-0.5-0.757-0.498c-0.42,0.003-0.771,0.298-0.769,0.645c0.003,0.349,0.358,0.635,0.779,0.633
				c0.351-0.003,0.654-0.197,0.748-0.473l5.091-0.032l1.574,1.274l6.608-0.043l3.112-2.564l16.199-0.104L88.428,134.607z
				 M55.093,136.4c-0.1,0.001-0.193-0.091-0.194-0.169c-0.001-0.088,0.093-0.154,0.191-0.155c0.104-0.001,0.202,0.064,0.202,0.152
				C55.293,136.307,55.196,136.399,55.093,136.4z"/>
			<path fill="#026695" d="M208.754,87.582c0.432-0.003,0.807-0.241,0.916-0.553h0.017l-0.003-0.385h0.011
				c-0.107-0.336-0.487-0.583-0.953-0.58c-0.529,0.003-0.961,0.343-0.957,0.768C207.787,87.247,208.225,87.585,208.754,87.582z
				 M208.746,86.628c0.129,0.004,0.242,0.087,0.243,0.196c0.001,0.096-0.111,0.185-0.24,0.185c-0.142,0.002-0.239-0.085-0.239-0.182
				C208.509,86.718,208.604,86.629,208.746,86.628z"/>
			<path fill="#026695" d="M99.688,141.514c0.426-0.002,0.804-0.245,0.913-0.556h0.017l-0.003-0.386h0.003
				c-0.099-0.336-0.482-0.588-0.942-0.585c-0.535,0.004-0.967,0.349-0.963,0.771C98.716,141.175,99.151,141.518,99.688,141.514z
				 M99.68,140.552c0.123,0.013,0.238,0.087,0.239,0.2c0.001,0.096-0.113,0.184-0.236,0.185c-0.142,0.001-0.244-0.086-0.245-0.182
				C99.438,140.642,99.538,140.553,99.68,140.552z"/>
			<g>
				<polygon fill="#026695" points="211.762,90.243 211.656,90.104 194.562,90.214 186.113,102.354 186.119,102.368 
					186.919,102.363 186.914,102.35 194.966,90.78 211.265,90.676 219.505,102.14 211.627,113.473 211.634,114.286 211.853,114.284 
					220.307,102.135 				"/>
			</g>
			<g>
				<polygon fill="#026695" points="145.781,114.293 145.887,114.438 162.98,114.327 171.43,102.177 171.424,102.169 
					170.626,102.175 170.632,102.183 162.577,113.757 146.281,113.861 138.036,102.392 145.922,91.064 145.915,90.25 145.69,90.252 
					137.23,102.397 				"/>
			</g>
			<g>
				<polygon fill="#026695" points="186.79,102.517 186.785,101.948 170.802,102.051 162.351,114.2 162.355,114.209 
					163.164,114.203 163.156,114.195 171.205,102.617 				"/>
			</g>
			<g>
				<polygon fill="#026695" points="145.534,90.414 137.497,101.963 138.304,101.957 146.334,90.409 137.794,78.514 137.689,78.375 
					122.032,78.476 122.037,79.039 137.286,78.941 				"/>
			</g>
			<g>
				<polygon fill="#026695" points="168.117,102.545 161.546,111.992 162.226,111.988 168.795,102.54 161.558,92.455 
					161.471,92.342 146.979,92.435 140.135,102.274 140.815,102.27 147.321,92.913 161.138,92.824 				"/>
			</g>
			<path fill="#026695" d="M140.474,103.151c0.429-0.003,0.805-0.251,0.917-0.562h0.017l-0.004-0.385l0,0
				c-0.094-0.337-0.479-0.579-0.941-0.576c-0.53,0.004-0.965,0.338-0.961,0.768C139.505,102.812,139.944,103.154,140.474,103.151z
				 M140.467,102.193c0.126,0.004,0.247,0.086,0.248,0.195c0,0.096-0.119,0.18-0.245,0.18c-0.135,0.002-0.239-0.081-0.24-0.177
				C140.229,102.282,140.332,102.194,140.467,102.193z"/>
			<path fill="#026695" d="M161.45,113.056c0.428-0.002,0.804-0.245,0.916-0.557h0.011l-0.003-0.385h0.005
				c-0.099-0.336-0.479-0.583-0.941-0.58c-0.539,0.004-0.962,0.348-0.959,0.771C160.482,112.718,160.911,113.06,161.45,113.056z
				 M161.441,112.103c0.12-0.001,0.239,0.091,0.24,0.195c0.001,0.101-0.116,0.181-0.236,0.181c-0.143,0.001-0.239-0.077-0.24-0.178
				C161.204,112.196,161.3,112.104,161.441,112.103z"/>
			<path fill="#026695" d="M138.495,77.097c0.431-0.003,0.81-0.246,0.922-0.557h0.011l-0.003-0.385l0,0
				c-0.094-0.336-0.473-0.583-0.942-0.58c-0.532,0.003-0.961,0.343-0.958,0.767C137.528,76.758,137.962,77.1,138.495,77.097z
				 M138.487,76.139c0.123,0.005,0.241,0.09,0.242,0.195c0.001,0.101-0.116,0.185-0.239,0.186c-0.136,0.001-0.242-0.081-0.243-0.182
				C138.247,76.231,138.352,76.14,138.487,76.139z"/>
			<path fill="#026695" d="M128.405,81.355c0.426-0.003,0.801-0.245,0.914-0.558h0.013l-0.003-0.385h0.003
				c-0.1-0.331-0.479-0.582-0.939-0.579c-0.538,0.003-0.964,0.347-0.961,0.771C127.436,81.021,127.866,81.358,128.405,81.355z
				 M128.397,80.407c0.123-0.001,0.238,0.084,0.239,0.19c0.001,0.091-0.113,0.185-0.236,0.186c-0.144,0-0.247-0.092-0.248-0.183
				C128.151,80.494,128.253,80.408,128.397,80.407z"/>
			<path fill="#026695" d="M121.823,79.679c0.431-0.003,0.804-0.245,0.919-0.553h0.013l-0.003-0.389l0,0
				c-0.099-0.337-0.477-0.588-0.941-0.584c-0.53,0.003-0.964,0.347-0.961,0.771C120.854,79.34,121.293,79.683,121.823,79.679z
				 M121.815,78.722c0.129,0.008,0.241,0.085,0.242,0.194c0.001,0.102-0.11,0.185-0.239,0.186c-0.14,0.001-0.24-0.081-0.24-0.182
				C121.577,78.81,121.676,78.722,121.815,78.722z"/>
			<path fill="#026695" d="M211.273,87.894c-0.429,0.003-0.81,0.246-0.914,0.558l-0.313,0.002l0.003,0.388l0.294-0.002
				c0.097,0.333,0.476,0.578,0.942,0.575c0.535-0.003,0.964-0.342,0.961-0.766C212.243,88.233,211.81,87.891,211.273,87.894z
				 M211.281,88.852c-0.125-0.009-0.238-0.091-0.239-0.195c-0.001-0.102,0.111-0.185,0.237-0.186
				c0.139-0.001,0.24,0.081,0.241,0.182C211.521,88.758,211.421,88.851,211.281,88.852z"/>
			<path fill="#026695" d="M170.585,93.762c0.437-0.003,0.809-0.246,0.922-0.553l18.35-0.118l3.169-4.135l17.789-0.115l-0.003-0.376
				l-17.789,0.114l-3.169,4.117l-18.331,0.118c-0.102-0.327-0.479-0.578-0.95-0.574c-0.53,0.003-0.956,0.346-0.953,0.767
				C169.623,93.426,170.054,93.765,170.585,93.762z M170.577,92.804c0.125,0.008,0.247,0.095,0.248,0.195
				c0,0.1-0.119,0.188-0.245,0.188c-0.137,0.001-0.241-0.085-0.242-0.186S170.44,92.805,170.577,92.804z"/>
			<path fill="#026695" d="M97.451,81.489c0.431-0.003,0.804-0.242,0.919-0.549l18.351-0.118l3.169-4.131l17.79-0.114l-0.003-0.385
				l-17.79,0.114l-3.169,4.127l-18.335,0.118c-0.099-0.337-0.481-0.583-0.944-0.58c-0.532,0.003-0.961,0.343-0.957,0.767
				C96.484,81.153,96.918,81.492,97.451,81.489z M97.442,80.535c0.126,0.004,0.245,0.09,0.246,0.195
				c0.001,0.102-0.117,0.185-0.242,0.186c-0.14,0.001-0.241-0.081-0.242-0.183C97.203,80.629,97.304,80.536,97.442,80.535z"/>
			<path fill="#026695" d="M148.453,90.497c0.434-0.003,0.81-0.251,0.922-0.562l0.305-0.002l-0.003-0.385l-0.289,0.002
				c-0.099-0.336-0.479-0.579-0.947-0.576c-0.533,0.003-0.964,0.339-0.96,0.768C147.483,90.157,147.92,90.5,148.453,90.497z
				 M148.445,89.539c0.125,0.003,0.244,0.087,0.245,0.195c0.001,0.097-0.117,0.181-0.242,0.182c-0.14,0.001-0.241-0.082-0.242-0.178
				C148.204,89.629,148.306,89.54,148.445,89.539z"/>
			<g>
				<polygon fill="#026695" points="169.718,96.884 163.992,89.474 149.382,89.568 149.385,89.952 163.995,89.858 169.722,97.273 
					178.064,97.22 178.062,96.831 				"/>
				<path fill="#026695" d="M179.892,96.955c-0.004-0.425-0.439-0.759-0.973-0.755c-0.46,0.003-0.839,0.254-0.933,0.592
					l-0.297,0.002l0.003,0.385l0.313-0.002c0.118,0.31,0.498,0.552,0.927,0.549C179.464,97.723,179.895,97.37,179.892,96.955z
					 M179.166,96.959c0.001,0.101-0.098,0.186-0.239,0.187c-0.126,0-0.241-0.083-0.242-0.184c-0.001-0.104,0.113-0.188,0.238-0.198
					C179.065,96.763,179.165,96.854,179.166,96.959z"/>
			</g>
			<path fill="#026695" d="M159.449,93.553c-0.463-0.181-1.023-0.007-1.259,0.397c-0.185,0.312-0.09,0.687,0.211,0.907l-6.077,10.7
				l1.583,4.25l-2.542,4.214l0.532-0.003l2.444-4.044l-1.585-4.257l6.063-10.679c0.422,0.072,0.856-0.105,1.05-0.436
				C160.107,94.199,159.913,93.732,159.449,93.553z M159.241,94.358c-0.054,0.088-0.184,0.132-0.31,0.085
				c-0.116-0.042-0.168-0.161-0.113-0.253c0.064-0.11,0.209-0.15,0.318-0.103C159.261,94.136,159.304,94.245,159.241,94.358z"/>
			<path fill="#026695" d="M160.524,96.147c-0.473-0.181-1.041,0.002-1.266,0.401c-0.188,0.312-0.096,0.691,0.208,0.917
				l-4.416,7.843l1.585,4.245l-2.685,4.451l0.53-0.003l2.579-4.285l-1.582-4.24l4.405-7.834c0.413,0.055,0.866-0.11,1.059-0.439
				C161.176,96.799,160.981,96.328,160.524,96.147z M160.298,96.959c-0.042,0.078-0.196,0.137-0.299,0.093
				c-0.126-0.047-0.167-0.174-0.116-0.262c0.063-0.109,0.199-0.145,0.325-0.097C160.313,96.731,160.367,96.849,160.298,96.959z"/>
			<path fill="#026695" d="M127.835,80.396l-8.191,0.053l-2.316,2.557l-7.401,0.047l-1.576-1.258l-5.082,0.032
				c-0.072-0.275-0.382-0.496-0.763-0.494c-0.417,0.003-0.771,0.303-0.768,0.645c0.003,0.35,0.36,0.631,0.778,0.628
				c0.351-0.002,0.654-0.196,0.754-0.472l5.083-0.033l1.576,1.275l7.401-0.048l2.316-2.56l8.191-0.053L127.835,80.396z
				 M102.512,82.139c-0.095,0-0.188-0.083-0.188-0.165c0-0.092,0.092-0.153,0.186-0.154c0.107-0.001,0.199,0.06,0.199,0.151
				C102.709,82.054,102.618,82.138,102.512,82.139z"/>
			<path fill="#026695" d="M208.245,86.614l-16.604,0.106l-2.113,2.555l-7.613,0.049l-1.574-1.263l-5.084,0.032
				c-0.069-0.271-0.381-0.495-0.759-0.493c-0.427,0.003-0.77,0.299-0.767,0.644c0.003,0.354,0.351,0.636,0.776,0.633
				c0.356-0.002,0.656-0.196,0.751-0.472l5.085-0.033l1.574,1.271l7.612-0.049l2.113-2.555l16.604-0.106L208.245,86.614z
				 M174.504,88.409c-0.097,0.001-0.19-0.081-0.191-0.169c0-0.084,0.093-0.149,0.188-0.149c0.107-0.001,0.196,0.063,0.197,0.147
				C174.699,88.326,174.611,88.409,174.504,88.409z"/>
			<path fill="#026695" d="M142.199,117.719c-0.219-0.304-0.668-0.441-1.047-0.361l-9.45-12.848l-10.626,0.047l-9.151-12.444
				l-0.397,0.192l9.152,12.446l10.617-0.037l9.436,12.83c-0.301,0.238-0.372,0.633-0.128,0.954c0.273,0.38,0.854,0.501,1.295,0.281
				C142.332,118.566,142.479,118.084,142.199,117.719z M141.199,118.211c-0.06-0.092-0.031-0.214,0.083-0.272
				c0.1-0.053,0.249-0.014,0.312,0.072c0.07,0.104,0.037,0.22-0.064,0.268C141.417,118.331,141.272,118.311,141.199,118.211z"/>
			<path fill="#026695" d="M118.865,96.065l-0.333,0.164l4.804,6.853l11.914-0.208l3.401,4.626l-0.527,1.749l2.619,3.556
				c-0.258,0.194-0.334,0.521-0.139,0.788c0.214,0.29,0.71,0.389,1.069,0.207c0.366-0.179,0.488-0.571,0.27-0.867
				c-0.179-0.244-0.538-0.36-0.876-0.292l-2.62-3.557l0.548-1.757l-3.406-4.622l-11.922,0.213L118.865,96.065z M141.377,113.391
				c-0.091,0.049-0.212,0.015-0.258-0.056c-0.06-0.073-0.036-0.165,0.055-0.214c0.083-0.04,0.228-0.023,0.278,0.05
				C141.507,113.241,141.46,113.352,141.377,113.391z"/>
			<path fill="#026695" d="M187.152,108.037l8.7-0.057l-0.003-0.311l-8.699,0.057l-2.349-1.913l-7.427,0.048
				c-0.083-0.279-0.393-0.483-0.765-0.481c-0.424,0.003-0.771,0.294-0.769,0.627c0.003,0.371,0.355,0.645,0.779,0.642
				c0.348-0.002,0.648-0.197,0.745-0.455l7.438-0.048L187.152,108.037z M176.417,106.003c0-0.07,0.095-0.141,0.197-0.141
				c0.109-0.001,0.201,0.067,0.202,0.138c0.001,0.104-0.09,0.171-0.199,0.177C176.515,106.177,176.418,106.108,176.417,106.003z"/>
			<path fill="#026695" d="M217.275,101.778c-0.377-0.195-0.851-0.1-1.069,0.195c-0.19,0.246-0.154,0.557,0.067,0.76l-3.933,5.159
				l-3.211,0.615l-4.39,5.766l0.447-0.004l4.261-5.602l3.238-0.599l3.92-5.155c0.339,0.087,0.713-0.017,0.911-0.268
				C217.74,102.348,217.628,101.951,217.275,101.778z M217.018,102.392c-0.053,0.074-0.173,0.098-0.254,0.063
				c-0.104-0.053-0.121-0.157-0.071-0.231c0.056-0.07,0.182-0.098,0.28-0.045C217.049,102.217,217.07,102.322,217.018,102.392z"/>
			<path fill="#026695" d="M118.836,125.294l-3.662-6.002l-5.933-0.505l-1.12-1.833l-0.514,0.003l1.216,2l5.922,0.508l3.655,5.989
				c-0.322,0.217-0.43,0.611-0.223,0.945c0.236,0.39,0.803,0.56,1.268,0.369c0.459-0.191,0.639-0.656,0.403-1.047
				C119.658,125.411,119.221,125.238,118.836,125.294z M119.119,126.241c-0.118,0.045-0.254,0.01-0.317-0.094
				c-0.054-0.092-0.015-0.215,0.103-0.264c0.109-0.044,0.252,0.004,0.313,0.1C119.273,126.083,119.229,126.196,119.119,126.241z"/>
			<path fill="#026695" d="M117.811,133.216l-2.267-3.707l0.715-1.719l-2.947-4.831l-4.189-1.153l-2.953-4.84l-0.429,0.003
				l3.034,4.979l4.182,1.157l2.947,4.832l-0.699,1.709l2.267,3.716c-0.269,0.173-0.379,0.496-0.21,0.775
				c0.188,0.306,0.67,0.433,1.049,0.278c0.38-0.157,0.537-0.547,0.352-0.847C118.505,133.308,118.161,133.175,117.811,133.216z
				 M118.044,133.988c-0.091,0.035-0.203,0.001-0.247-0.077c-0.046-0.07-0.018-0.171,0.079-0.206
				c0.087-0.036,0.228-0.005,0.273,0.067C118.192,133.843,118.14,133.957,118.044,133.988z"/>
			<path fill="#026695" d="M109.254,129.868l-3.321-5.436l1.051-2.552l-2.988-4.9l-0.421,0.003l3.072,5.035l-1.075,2.562
				l3.312,5.427c-0.271,0.189-0.365,0.505-0.197,0.774c0.188,0.31,0.66,0.438,1.031,0.291c0.399-0.168,0.544-0.545,0.357-0.85
				C109.916,129.965,109.575,129.827,109.254,129.868z M109.461,130.649c-0.082,0.031-0.2-0.008-0.247-0.076
				c-0.048-0.079-0.015-0.18,0.068-0.215c0.109-0.045,0.22-0.001,0.273,0.067C109.6,130.505,109.565,130.606,109.461,130.649z"/>
			<path fill="#026695" d="M211.298,106.264l4.374-5.687l-2.558-4.396l1.335-1.735l-0.271-0.356l-1.451,1.89l2.541,4.396
				l-4.361,5.67c-0.399-0.112-0.861,0.018-1.114,0.339c-0.28,0.369-0.155,0.85,0.279,1.078c0.438,0.22,1.021,0.103,1.302-0.267
				C211.608,106.896,211.56,106.507,211.298,106.264z M210.465,106.956c-0.115-0.053-0.151-0.171-0.077-0.271
				c0.074-0.084,0.215-0.116,0.332-0.063c0.102,0.056,0.127,0.179,0.058,0.262C210.704,106.989,210.562,107.007,210.465,106.956z"/>
			<path fill="#026695" d="M202.48,109.688l2.706-3.515l2.162-0.399l3.52-4.575l-0.972-3.519l3.529-4.587l-0.23-0.301l-3.627,4.72
				l0.969,3.515l-3.521,4.574l-2.152,0.406l-2.703,3.517c-0.322-0.099-0.723-0.008-0.927,0.256c-0.22,0.294-0.102,0.695,0.253,0.876
				c0.363,0.191,0.853,0.096,1.072-0.198C202.748,110.215,202.709,109.904,202.48,109.688z M201.805,110.251
				c-0.093-0.042-0.108-0.143-0.061-0.213c0.059-0.071,0.171-0.098,0.265-0.05c0.086,0.038,0.122,0.147,0.069,0.227
				C202.021,110.28,201.886,110.295,201.805,110.251z"/>
			<path fill="#026695" d="M201.534,101.971l3.955-5.146l3.225-0.603l3.562-4.641l-0.219-0.292l-3.664,4.769l-3.241,0.59
				l-3.956,5.137c-0.33-0.089-0.713,0.009-0.911,0.269c-0.226,0.299-0.112,0.687,0.237,0.869c0.38,0.193,0.854,0.095,1.077-0.195
				C201.787,102.481,201.744,102.176,201.534,101.971z M200.826,102.521c-0.075-0.038-0.098-0.143-0.042-0.213
				c0.051-0.075,0.178-0.102,0.248-0.059c0.105,0.051,0.128,0.147,0.08,0.223C201.057,102.542,200.931,102.569,200.826,102.521z"/>
		</g>
	</g>
	<g opacity="0.6">
		<g>
			<g>
				<polygon fill="#026695" points="275.148,107.62 286.644,107.535 292.108,116.241 292.837,116.236 287.008,106.942 
					275.145,107.031 				"/>
			</g>
			<g>
				<polygon fill="#026695" points="242.96,108.365 248.145,116.624 248.876,116.619 243.324,107.772 231.461,107.86 
					231.465,108.449 				"/>
			</g>
			<g>
				<polygon fill="#026695" points="312.11,64.688 312.018,64.542 296.55,64.656 288.901,77.244 288.904,77.257 289.637,77.252 
					289.626,77.238 296.918,65.243 311.658,65.135 319.117,77.021 311.984,88.763 311.99,89.601 312.195,89.599 319.844,77.016 				
					"/>
			</g>
			<g>
				<polygon fill="#026695" points="319.339,101.683 319.432,101.832 333.594,101.729 333.589,101.134 319.788,101.234 
					312.334,89.348 319.5,77.553 319.494,76.764 319.254,76.766 311.605,89.354 				"/>
			</g>
			<g>
				<polygon fill="#026695" points="291.764,76.737 297.644,67.059 297.025,67.063 291.148,76.743 297.704,87.19 297.782,87.312 
					310.89,87.216 317.258,76.741 316.637,76.746 310.582,86.724 298.084,86.815 				"/>
			</g>
			<g>
				<polygon fill="#026695" points="295.664,117.316 311.135,117.203 311.224,117.058 318.778,104.615 311.256,92.615 
					310.753,92.619 310.757,92.985 318.054,104.621 310.767,116.615 296.021,116.725 288.567,104.837 288.57,104.833 
					287.845,104.838 287.841,104.843 				"/>
			</g>
			<g>
				<polygon fill="#026695" points="251.183,93.012 251.273,92.861 266.741,92.747 274.565,105.226 274.556,105.235 273.835,105.24 
					273.841,105.231 266.382,93.34 251.639,93.448 244.352,105.448 251.653,117.083 251.659,117.927 251.451,117.928 
					243.63,105.453 				"/>
			</g>
			<g>
				<polygon fill="#026695" points="288.449,104.671 288.454,105.256 273.993,105.362 266.173,92.889 266.177,92.875 
					266.908,92.869 266.902,92.883 274.353,104.774 				"/>
			</g>
			<g>
				<polygon fill="#026695" points="244.569,130.242 244.478,130.388 230.313,130.492 230.31,129.898 244.109,129.797 
					251.397,117.801 243.94,105.913 244.354,105.91 244.351,105.321 244.3,105.322 252.126,117.796 				"/>
			</g>
			<g>
				<polygon fill="#026695" points="265.772,115.43 265.696,115.557 252.586,115.653 246.073,105.268 246.69,105.264 
					252.89,115.147 265.383,115.056 271.562,104.891 265.238,94.817 265.176,94.817 265.173,94.318 265.545,94.316 272.177,104.886 
									"/>
			</g>
			<g>
				<path fill="#026695" d="M260.723,118.272c0.39-0.004,0.725-0.241,0.824-0.573l5.55-0.04l5.19-7.435l7.541-0.056l-0.003-0.399
					l-7.541,0.056l-5.19,7.435l-5.535,0.041c-0.095-0.353-0.431-0.608-0.848-0.605c-0.497,0.004-0.882,0.359-0.878,0.794
					C259.836,117.93,260.226,118.275,260.723,118.272z M260.715,117.288c0.109-0.001,0.214,0.08,0.215,0.193
					c0.001,0.108-0.103,0.2-0.212,0.201c-0.133,0.001-0.228-0.089-0.229-0.198C260.488,117.371,260.582,117.289,260.715,117.288z"/>
				<path fill="#026695" d="M280.608,109.232c-0.388,0.004-0.727,0.261-0.831,0.578l-0.281,0.002l0.003,0.403l0.261-0.002
					c0.093,0.348,0.436,0.599,0.859,0.597c0.48-0.004,0.867-0.355,0.865-0.795C281.48,109.585,281.089,109.229,280.608,109.232z
					 M280.615,110.227c-0.116-0.004-0.224-0.089-0.224-0.202c-0.001-0.104,0.104-0.192,0.221-0.193
					c0.127-0.001,0.217,0.085,0.218,0.189C280.831,110.135,280.742,110.227,280.615,110.227z"/>
			</g>
			<path fill="#026695" d="M292.435,115.532c-0.388,0.003-0.729,0.255-0.832,0.577h-0.007l0.003,0.398h-0.008
				c0.09,0.35,0.436,0.6,0.855,0.598c0.483-0.004,0.872-0.361,0.868-0.791C293.313,115.879,292.919,115.529,292.435,115.532z
				 M292.441,116.52c-0.114-0.004-0.219-0.088-0.22-0.197c-0.001-0.104,0.104-0.191,0.217-0.191
				c0.131-0.002,0.222,0.084,0.222,0.188C292.661,116.428,292.572,116.519,292.441,116.52z"/>
			<path fill="#026695" d="M222.919,125.557c-0.395,0.003-0.729,0.255-0.831,0.577l-0.015,0.001l0.002,0.398l0,0
				c0.09,0.348,0.431,0.604,0.854,0.601c0.48-0.005,0.873-0.359,0.869-0.804C223.796,125.908,223.398,125.553,222.919,125.557z
				 M222.926,126.54c-0.116,0.001-0.219-0.083-0.22-0.202c0-0.1,0.101-0.187,0.217-0.188c0.121-0.001,0.216,0.084,0.217,0.185
				C223.141,126.454,223.047,126.539,222.926,126.54z"/>
			<path fill="#026695" d="M316.976,75.564c-0.39,0.002-0.732,0.254-0.834,0.572h-0.013l0.003,0.404l0,0
				c0.09,0.348,0.43,0.608,0.855,0.605c0.479-0.003,0.866-0.359,0.863-0.798C317.848,75.911,317.455,75.561,316.976,75.564z
				 M316.982,76.552c-0.116,0.001-0.222-0.089-0.222-0.198c-0.001-0.101,0.103-0.191,0.219-0.192
				c0.124-0.001,0.217,0.089,0.217,0.189C317.197,76.46,317.105,76.551,316.982,76.552z"/>
			<path fill="#026695" d="M265.129,93.693c-0.39,0.003-0.729,0.255-0.832,0.577l-0.014,0l0.002,0.398l0,0
				c0.085,0.349,0.429,0.605,0.855,0.602c0.479-0.004,0.872-0.354,0.868-0.795C266.006,94.045,265.608,93.69,265.129,93.693z
				 M265.137,94.686c-0.119-0.004-0.227-0.093-0.228-0.203c0-0.099,0.106-0.19,0.225-0.191c0.124-0.001,0.216,0.089,0.217,0.188
				C265.352,94.59,265.26,94.685,265.137,94.686z"/>
			<path fill="#026695" d="M246.273,104.215c-0.391,0.003-0.73,0.255-0.829,0.578h-0.017l0.003,0.398l0,0
				c0.087,0.348,0.433,0.604,0.854,0.602c0.48-0.004,0.872-0.355,0.869-0.8C247.15,104.563,246.753,104.211,246.273,104.215z
				 M246.28,105.203c-0.113-0.003-0.218-0.09-0.219-0.201c-0.001-0.102,0.103-0.191,0.216-0.192c0.129-0.001,0.219,0.087,0.22,0.188
				C246.498,105.111,246.409,105.202,246.28,105.203z"/>
			<path fill="#026695" d="M320.402,97.62c-0.391,0.002-0.728,0.254-0.827,0.577h-0.017l0.002,0.395h-0.002
				c0.09,0.349,0.434,0.608,0.855,0.605c0.481-0.004,0.871-0.364,0.869-0.803C321.28,97.962,320.885,97.616,320.402,97.62z
				 M320.409,98.607c-0.111,0-0.218-0.09-0.219-0.208c0-0.1,0.104-0.187,0.216-0.188c0.126-0.001,0.22,0.085,0.221,0.185
				C320.627,98.515,320.535,98.606,320.409,98.607z"/>
			<path fill="#026695" d="M333.783,100.517c-0.39,0.003-0.727,0.259-0.831,0.577h-0.013l0.004,0.408h-0.004
				c0.091,0.348,0.434,0.599,0.855,0.596c0.484-0.004,0.872-0.354,0.869-0.799C334.661,100.873,334.269,100.513,333.783,100.517z
				 M333.791,101.514c-0.114-0.009-0.217-0.09-0.217-0.207c-0.001-0.1,0.101-0.187,0.214-0.187c0.126-0.001,0.219,0.083,0.219,0.183
				C334.008,101.421,333.917,101.512,333.791,101.514z"/>
			<path fill="#026695" d="M248.738,116.198c-0.393,0.003-0.733,0.259-0.834,0.577h-0.008l0.003,0.404h-0.009
				c0.095,0.348,0.436,0.599,0.86,0.596c0.481-0.004,0.865-0.355,0.861-0.8C249.607,116.545,249.22,116.194,248.738,116.198z
				 M248.745,117.191c-0.115-0.009-0.227-0.09-0.228-0.207c-0.001-0.1,0.11-0.188,0.225-0.188c0.124-0.001,0.216,0.085,0.217,0.184
				C248.96,117.099,248.868,117.189,248.745,117.191z"/>
			<path fill="#026695" d="M231.23,107.422c-0.393,0.003-0.725,0.254-0.834,0.572h-0.01l0.002,0.404h-0.007
				c0.092,0.348,0.436,0.603,0.859,0.6c0.482-0.004,0.873-0.359,0.869-0.794C232.107,107.772,231.713,107.418,231.23,107.422z
				 M231.238,108.414c-0.112-0.008-0.221-0.095-0.223-0.201c0-0.104,0.108-0.192,0.22-0.193c0.123-0.001,0.218,0.085,0.218,0.189
				C231.455,108.316,231.361,108.414,231.238,108.414z"/>
			<path fill="#026695" d="M209.606,119.016c-0.396,0.003-0.734,0.254-0.835,0.576h-0.009l0.002,0.398h-0.005
				c0.089,0.35,0.431,0.604,0.857,0.602c0.481-0.003,0.873-0.36,0.869-0.799C210.483,119.363,210.087,119.012,209.606,119.016z
				 M209.613,120.008c-0.114-0.004-0.224-0.094-0.225-0.207c0-0.1,0.107-0.19,0.222-0.191c0.123-0.001,0.219,0.088,0.219,0.188
				C209.83,119.911,209.736,120.007,209.613,120.008z"/>
			<path fill="#026695" d="M215.562,118.352c-0.391,0.002-0.729,0.258-0.83,0.576h-0.014l0.003,0.404h-0.008
				c0.09,0.348,0.436,0.599,0.86,0.596c0.479-0.004,0.873-0.355,0.869-0.795C216.438,118.703,216.04,118.348,215.562,118.352z
				 M215.568,119.344c-0.114-0.004-0.219-0.09-0.22-0.203c0-0.104,0.104-0.19,0.217-0.191c0.124-0.001,0.218,0.084,0.218,0.188
				C215.786,119.25,215.692,119.342,215.568,119.344z"/>
			<path fill="#026695" d="M300.068,141.948c-0.392,0.003-0.729,0.263-0.834,0.577h-0.012l0.003,0.407l0,0
				c0.09,0.345,0.431,0.6,0.854,0.597c0.482-0.004,0.867-0.359,0.864-0.8C300.94,142.299,300.551,141.945,300.068,141.948z
				 M300.076,142.94c-0.116-0.005-0.222-0.093-0.222-0.202c-0.001-0.1,0.103-0.188,0.219-0.188c0.123-0.002,0.219,0.085,0.22,0.184
				C300.294,142.844,300.199,142.939,300.076,142.94z"/>
			<path fill="#026695" d="M293.754,137.874c-0.39,0.003-0.73,0.261-0.832,0.573h-0.018l0.003,0.403l0,0
				c0.093,0.349,0.436,0.608,0.857,0.604c0.482-0.003,0.867-0.359,0.864-0.799C294.626,138.225,294.235,137.87,293.754,137.874z
				 M293.76,138.862c-0.118-0.003-0.219-0.089-0.219-0.198c-0.001-0.104,0.098-0.191,0.217-0.191
				c0.126-0.002,0.219,0.085,0.219,0.189C293.978,138.771,293.887,138.861,293.76,138.862z"/>
			<path fill="#026695" d="M229.782,129.372c-0.39,0.003-0.728,0.255-0.829,0.577h-0.015l0.003,0.398l0,0
				c0.09,0.349,0.431,0.604,0.853,0.602c0.479-0.004,0.874-0.355,0.871-0.795C230.662,129.724,230.262,129.368,229.782,129.372z
				 M229.789,130.36c-0.114,0.001-0.216-0.09-0.217-0.198c-0.001-0.1,0.1-0.19,0.214-0.191c0.13-0.001,0.219,0.089,0.219,0.188
				C230.007,130.268,229.92,130.359,229.789,130.36z"/>
			<path fill="#026695" d="M274.661,106.576c-0.39,0.003-0.734,0.258-0.837,0.577h-0.007l0.003,0.403h-0.006
				c0.091,0.348,0.433,0.6,0.857,0.597c0.48-0.004,0.872-0.355,0.869-0.799C275.539,106.927,275.141,106.572,274.661,106.576z
				 M274.668,107.564c-0.118,0-0.223-0.085-0.224-0.202c-0.001-0.096,0.103-0.187,0.222-0.188c0.121-0.001,0.216,0.089,0.217,0.185
				C274.884,107.477,274.79,107.563,274.668,107.564z"/>
			<path fill="#026695" d="M330.531,105.045c-0.394,0.003-0.73,0.255-0.832,0.578l-0.281,0.002l0.003,0.398l0.266-0.002
				c0.091,0.348,0.437,0.604,0.855,0.602c0.479-0.004,0.87-0.356,0.867-0.795C331.405,105.393,331.011,105.042,330.531,105.045z
				 M330.538,106.031c-0.114,0.002-0.222-0.088-0.223-0.195c0-0.104,0.105-0.191,0.22-0.193c0.126,0,0.219,0.085,0.22,0.189
				C330.755,105.94,330.664,106.031,330.538,106.031z"/>
			<path fill="#026695" d="M294.928,120.041c0.383-0.003,0.721-0.24,0.832-0.572l16.191-0.119l8.273-13.254l9.729-0.071
				l-0.003-0.399l-9.729,0.071l-8.272,13.249l-16.178,0.12c-0.109-0.335-0.45-0.609-0.854-0.606c-0.491,0.004-0.889,0.365-0.886,0.8
				C294.034,119.698,294.436,120.045,294.928,120.041z M294.921,119.059c0.102-0.002,0.214,0.088,0.215,0.192
				c0,0.113-0.11,0.205-0.212,0.206c-0.134,0.001-0.229-0.09-0.229-0.203C294.693,119.15,294.787,119.06,294.921,119.059z"/>
			<path fill="#026695" d="M354.805,99.155c-0.393,0.003-0.729,0.25-0.831,0.574l-16.604,0.122l-2.867,4.285l-16.095,0.119
				l0.003,0.39l16.23-0.12l2.864-4.277l16.456-0.122c0.09,0.349,0.432,0.601,0.854,0.598c0.48-0.003,0.87-0.352,0.867-0.795
				C355.68,99.499,355.285,99.152,354.805,99.155z M354.812,100.145c-0.116-0.008-0.221-0.094-0.222-0.208
				c-0.001-0.099,0.104-0.187,0.22-0.188c0.125,0,0.218,0.085,0.219,0.185C355.029,100.047,354.938,100.144,354.812,100.145z"/>
			<path fill="#026695" d="M309.674,89.232c-0.391,0.003-0.732,0.258-0.832,0.577l-0.281,0.002l0.004,0.403l0.264-0.002
				c0.092,0.343,0.436,0.6,0.856,0.597c0.479-0.004,0.872-0.36,0.869-0.8C310.551,89.583,310.153,89.229,309.674,89.232z
				 M309.681,90.224c-0.116-0.003-0.224-0.093-0.225-0.206c-0.001-0.1,0.105-0.192,0.222-0.193c0.126,0,0.217,0.089,0.217,0.189
				C309.896,90.128,309.807,90.224,309.681,90.224z"/>
			<g>
				<polygon fill="#026695" points="290.316,82.599 295.496,90.284 309.519,90.181 309.516,89.782 295.493,89.886 290.313,82.2 
					282.77,82.256 282.772,82.654 				"/>
				<path fill="#026695" d="M281.111,82.526c0.004,0.44,0.4,0.79,0.881,0.787c0.419-0.004,0.764-0.264,0.844-0.609l0.267-0.002
					l-0.003-0.408l-0.281,0.002c-0.105-0.316-0.447-0.564-0.838-0.561C281.501,81.74,281.108,82.097,281.111,82.526z
					 M281.769,82.521c-0.001-0.099,0.094-0.187,0.217-0.188c0.113-0.001,0.217,0.085,0.217,0.185
					c0.001,0.113-0.101,0.201-0.214,0.206C281.864,82.725,281.77,82.635,281.769,82.521z"/>
			</g>
			<path fill="#026695" d="M299.609,86.057c0.418,0.188,0.926,0.011,1.138-0.407c0.168-0.332,0.082-0.712-0.193-0.946l5.499-11.085
				l-1.429-4.408l2.297-4.372l-0.479,0.003l-2.209,4.201l1.434,4.408l-5.489,11.071c-0.38-0.074-0.773,0.102-0.95,0.452
				C299.011,85.391,299.189,85.869,299.609,86.057z M299.798,85.226c0.048-0.09,0.168-0.141,0.277-0.092
				c0.106,0.049,0.151,0.166,0.108,0.262c-0.064,0.113-0.19,0.15-0.292,0.106C299.78,85.458,299.739,85.34,299.798,85.226z"/>
			<path fill="#026695" d="M298.639,83.368c0.427,0.187,0.938-0.002,1.147-0.417c0.162-0.318,0.082-0.712-0.19-0.95l3.997-8.134
				l-1.437-4.394l2.43-4.62l-0.483,0.004l-2.338,4.445l1.437,4.395l-3.988,8.114c-0.37-0.055-0.781,0.119-0.956,0.461
				C298.045,82.688,298.22,83.18,298.639,83.368z M298.834,82.532c0.042-0.087,0.183-0.147,0.28-0.099
				c0.111,0.05,0.146,0.181,0.103,0.263c-0.058,0.118-0.183,0.151-0.294,0.106C298.827,82.758,298.781,82.641,298.834,82.532z"/>
			<path fill="#026695" d="M260.307,108.826l-1.386-2.773l1.198-4.473l-4.824-8.353l-0.486,0.003l4.929,8.538l-1.196,4.473
				l1.398,2.791c-0.27,0.247-0.327,0.632-0.144,0.948c0.235,0.406,0.748,0.561,1.161,0.35c0.404-0.207,0.562-0.688,0.321-1.1
				C261.087,108.893,260.682,108.736,260.307,108.826z M260.643,109.797c-0.096,0.051-0.228,0.016-0.296-0.092
				c-0.052-0.097-0.009-0.223,0.09-0.27c0.111-0.055,0.235-0.009,0.287,0.076C260.787,109.629,260.751,109.737,260.643,109.797z"/>
			<path fill="#026695" d="M258.916,93.201l-0.486,0.003l4.623,8.015l-1.191,4.468l2.476,4.41c-0.252,0.247-0.317,0.642-0.136,0.956
				c0.235,0.406,0.755,0.566,1.165,0.355c0.413-0.202,0.56-0.707,0.324-1.108c-0.191-0.334-0.609-0.485-0.979-0.41l-2.474-4.401
				l1.199-4.463L258.916,93.201z M264.844,110.5c0.099-0.05,0.237-0.001,0.287,0.089c0.063,0.104,0.021,0.226-0.076,0.272
				c-0.108,0.055-0.234,0.02-0.296-0.088C264.709,110.692,264.734,110.556,264.844,110.5z"/>
			<path fill="#026695" d="M289.634,98.141l-1.383-2.782l1.191-4.463l-4.817-8.358l-0.487,0.003l4.931,8.542l-1.194,4.468
				l1.396,2.795c-0.267,0.242-0.327,0.633-0.144,0.949c0.235,0.4,0.748,0.561,1.161,0.349c0.408-0.207,0.555-0.697,0.323-1.1
				C290.412,98.207,290.011,98.051,289.634,98.141z M289.974,99.112c-0.098,0.046-0.233,0.01-0.297-0.098
				c-0.052-0.089-0.012-0.218,0.092-0.268c0.109-0.055,0.23-0.006,0.284,0.084C290.117,98.939,290.081,99.052,289.974,99.112z"/>
			<path fill="#026695" d="M256.484,100.769l-4.842-7.43l-0.501,0.003l4.964,7.62c-0.252,0.255-0.332,0.669-0.122,0.997
				c0.243,0.388,0.78,0.534,1.176,0.31c0.407-0.221,0.523-0.726,0.278-1.117C257.24,100.844,256.848,100.693,256.484,100.769z
				 M256.818,101.74c-0.087,0.045-0.223,0.015-0.291-0.084c-0.052-0.081-0.021-0.222,0.073-0.272
				c0.102-0.064,0.242-0.02,0.294,0.062C256.963,101.553,256.932,101.676,256.818,101.74z"/>
			<path fill="#026695" d="M293.567,93.557l-6.395-11.084l-0.499,0.004l6.518,11.278c-0.258,0.251-0.332,0.668-0.13,0.989
				c0.251,0.397,0.779,0.537,1.183,0.317c0.403-0.226,0.525-0.729,0.273-1.116C294.321,93.632,293.931,93.481,293.567,93.557z
				 M293.903,94.528c-0.092,0.05-0.227,0.02-0.294-0.089c-0.049-0.082-0.025-0.217,0.071-0.267c0.106-0.061,0.247-0.017,0.296,0.065
				C294.045,94.346,294.01,94.468,293.903,94.528z"/>
			<path fill="#026695" d="M320.862,98.567l14.655-0.108l2.816-2.653l5.979-0.044l1.425,1.304l4.604-0.034
				c0.058,0.29,0.343,0.518,0.685,0.516c0.38-0.003,0.697-0.309,0.695-0.668c-0.003-0.361-0.324-0.658-0.705-0.655
				c-0.317,0.002-0.592,0.204-0.677,0.489l-4.605,0.034l-1.425-1.321l-5.979,0.044l-2.815,2.658l-14.656,0.108L320.862,98.567z
				 M351.021,96.709c0.09-0.001,0.175,0.094,0.175,0.175c0.001,0.091-0.083,0.16-0.173,0.161c-0.094,0.001-0.183-0.066-0.183-0.158
				C350.839,96.807,350.926,96.71,351.021,96.709z"/>
			<path fill="#026695" d="M212.002,147.305c-0.391,0.003-0.73,0.25-0.829,0.572h-0.015l0.002,0.398h-0.009
				c0.097,0.35,0.44,0.605,0.862,0.602c0.479-0.004,0.869-0.355,0.866-0.795C212.876,147.651,212.481,147.301,212.002,147.305z
				 M212.009,148.293c-0.116-0.004-0.219-0.09-0.22-0.203c0-0.1,0.101-0.191,0.217-0.191c0.128-0.002,0.216,0.088,0.217,0.189
				C212.224,148.201,212.137,148.293,212.009,148.293z"/>
			<path fill="#026695" d="M289.181,76.925c-0.395,0.002-0.729,0.254-0.836,0.577h-0.009l0.003,0.398l0,0
				c0.084,0.348,0.427,0.604,0.854,0.602c0.479-0.004,0.872-0.355,0.868-0.795C290.058,77.276,289.661,76.921,289.181,76.925z
				 M289.188,77.917c-0.116-0.01-0.218-0.094-0.219-0.202c-0.001-0.1,0.1-0.191,0.216-0.192c0.121-0.001,0.219,0.089,0.22,0.188
				C289.405,77.82,289.309,77.916,289.188,77.917z"/>
			<path fill="#026695" d="M297.704,65.739c-0.394,0.003-0.73,0.255-0.834,0.574h-0.012l0.002,0.403l0,0
				c0.09,0.344,0.434,0.601,0.855,0.597c0.479-0.003,0.869-0.355,0.866-0.795C298.578,66.086,298.184,65.735,297.704,65.739z
				 M297.711,66.729c-0.119-0.004-0.221-0.089-0.222-0.203c-0.001-0.105,0.1-0.187,0.22-0.188c0.125-0.001,0.215,0.08,0.216,0.185
				C297.926,66.636,297.838,66.727,297.711,66.729z"/>
			<path fill="#026695" d="M310.675,91.409c-0.385,0.003-0.728,0.255-0.826,0.577h-0.015l0.003,0.4h-0.003
				c0.089,0.348,0.437,0.609,0.853,0.606c0.484-0.004,0.874-0.361,0.871-0.8C311.555,91.761,311.16,91.404,310.675,91.409z
				 M310.683,92.407c-0.112-0.013-0.217-0.09-0.217-0.208c-0.001-0.1,0.102-0.191,0.213-0.191c0.129-0.001,0.222,0.089,0.223,0.188
				C310.901,92.313,310.81,92.405,310.683,92.407z"/>
			<g>
				<polygon fill="#026695" points="209.281,144.547 209.376,144.691 224.842,144.577 232.485,131.994 232.48,131.98 
					231.756,131.985 231.761,132 224.476,143.99 209.73,144.099 202.275,132.217 209.403,120.471 209.396,119.629 209.199,119.63 
					201.55,132.222 				"/>
			</g>
			<g>
				<polygon fill="#026695" points="268.974,119.621 268.878,119.472 253.413,119.586 245.77,132.178 245.774,132.187 
					246.496,132.181 246.491,132.173 253.778,120.177 268.521,120.068 275.98,131.955 268.847,143.695 268.853,144.539 
					269.056,144.537 276.709,131.95 				"/>
			</g>
			<g>
				<polygon fill="#026695" points="231.873,131.826 231.877,132.416 246.337,132.309 253.983,119.717 253.979,119.709 
					253.247,119.714 253.254,119.723 245.973,131.723 				"/>
			</g>
			<g>
				<polygon fill="#026695" points="269.197,144.369 276.468,132.4 275.738,132.406 268.474,144.375 276.2,156.703 276.295,156.848 
					290.459,156.742 290.455,156.158 276.659,156.26 				"/>
			</g>
			<g>
				<polygon fill="#026695" points="248.766,131.797 254.712,122.006 254.097,122.01 248.153,131.802 254.7,142.254 
					254.779,142.372 267.89,142.275 274.082,132.078 273.467,132.082 267.58,141.779 255.08,141.872 				"/>
			</g>
			<path fill="#026695" d="M273.775,131.169c-0.388,0.003-0.729,0.259-0.83,0.581h-0.015l0.003,0.399l0,0
				c0.085,0.349,0.434,0.6,0.853,0.597c0.479-0.004,0.872-0.35,0.869-0.795C274.652,131.521,274.255,131.165,273.775,131.169z
				 M273.782,132.162c-0.114-0.004-0.224-0.09-0.225-0.203c-0.001-0.1,0.107-0.186,0.222-0.187c0.121-0.001,0.216,0.085,0.217,0.183
				C273.997,132.069,273.903,132.16,273.782,132.162z"/>
			<path fill="#026695" d="M254.798,120.903c-0.387,0.003-0.727,0.254-0.829,0.577h-0.01l0.003,0.399h-0.005
				c0.09,0.348,0.434,0.604,0.853,0.601c0.487-0.004,0.87-0.36,0.867-0.799C255.674,121.254,255.285,120.899,254.798,120.903z
				 M254.806,121.891c-0.108,0.002-0.217-0.093-0.218-0.201c-0.001-0.105,0.105-0.188,0.215-0.188
				c0.128-0.002,0.216,0.08,0.217,0.185C255.021,121.795,254.934,121.891,254.806,121.891z"/>
			<path fill="#026695" d="M275.565,158.172c-0.39,0.002-0.732,0.254-0.834,0.576h-0.01l0.003,0.398l0,0
				c0.084,0.35,0.427,0.605,0.852,0.602c0.482-0.002,0.87-0.355,0.867-0.795C276.44,158.523,276.048,158.168,275.565,158.172z
				 M275.572,159.164c-0.111-0.004-0.219-0.094-0.219-0.203c-0.001-0.104,0.104-0.191,0.217-0.191c0.122,0,0.219,0.084,0.219,0.189
				C275.79,159.068,275.695,159.164,275.572,159.164z"/>
			<path fill="#026695" d="M284.694,153.758c-0.386,0.004-0.725,0.254-0.827,0.578h-0.012l0.002,0.398h-0.002
				c0.09,0.344,0.434,0.604,0.85,0.6c0.487-0.002,0.872-0.359,0.869-0.799C285.571,154.105,285.182,153.754,284.694,153.758z
				 M284.701,154.74c-0.111,0.002-0.216-0.088-0.217-0.197c-0.001-0.094,0.103-0.191,0.214-0.191
				c0.13-0.002,0.224,0.094,0.225,0.189C284.924,154.65,284.831,154.74,284.701,154.74z"/>
			<path fill="#026695" d="M290.648,155.496c-0.389,0.002-0.727,0.254-0.831,0.572h-0.012l0.003,0.402l0,0
				c0.089,0.35,0.431,0.609,0.852,0.605c0.479-0.004,0.872-0.359,0.869-0.799C291.526,155.846,291.129,155.492,290.648,155.496z
				 M290.655,156.488c-0.116-0.008-0.218-0.088-0.219-0.203c-0.001-0.104,0.101-0.191,0.217-0.191c0.126,0,0.217,0.084,0.218,0.188
				C290.871,156.396,290.782,156.486,290.655,156.488z"/>
			<path fill="#026695" d="M209.723,146.981c0.388-0.003,0.732-0.255,0.827-0.577l0.283-0.002L210.83,146l-0.267,0.002
				c-0.087-0.345-0.43-0.6-0.853-0.596c-0.484,0.003-0.872,0.354-0.869,0.793C208.845,146.63,209.238,146.985,209.723,146.981z
				 M209.715,145.989c0.114,0.009,0.216,0.094,0.217,0.202c0.001,0.105-0.101,0.191-0.214,0.191
				c-0.126,0.002-0.218-0.083-0.219-0.188C209.498,146.086,209.589,145.99,209.715,145.989z"/>
			<path fill="#026695" d="M246.533,140.9c-0.395,0.003-0.731,0.255-0.834,0.572l-16.601,0.123l-2.867,4.285L210.138,146
				l0.003,0.391l16.094-0.119l2.867-4.268l16.584-0.123c0.092,0.34,0.434,0.6,0.859,0.596c0.48-0.003,0.865-0.357,0.862-0.794
				C247.404,141.248,247.014,140.896,246.533,140.9z M246.541,141.893c-0.113-0.008-0.224-0.098-0.225-0.201
				c0-0.104,0.108-0.195,0.222-0.196c0.124-0.001,0.219,0.089,0.219,0.192C246.758,141.791,246.665,141.893,246.541,141.893z"/>
			<path fill="#026695" d="M312.698,153.619c-0.39,0.004-0.728,0.252-0.832,0.568l-16.601,0.123l-2.867,4.281l-16.095,0.119
				l0.002,0.398l16.096-0.119l2.866-4.277l16.588-0.123c0.089,0.35,0.436,0.605,0.854,0.602c0.482-0.002,0.87-0.355,0.867-0.793
				C313.573,153.967,313.181,153.615,312.698,153.619z M312.706,154.607c-0.113-0.004-0.222-0.094-0.223-0.201
				c-0.001-0.105,0.105-0.191,0.22-0.193c0.126,0,0.218,0.084,0.219,0.189C312.923,154.512,312.831,154.607,312.706,154.607z"/>
			<path fill="#026695" d="M266.556,144.283c-0.392,0.004-0.731,0.26-0.833,0.582l-0.276,0.002l0.003,0.398l0.262-0.001
				c0.089,0.348,0.433,0.6,0.856,0.597c0.482-0.004,0.872-0.352,0.869-0.796C267.434,144.636,267.038,144.28,266.556,144.283z
				 M266.563,145.276c-0.113-0.003-0.221-0.09-0.222-0.202c-0.001-0.1,0.105-0.188,0.219-0.188c0.126-0.001,0.219,0.085,0.22,0.185
				C266.781,145.184,266.689,145.275,266.563,145.276z"/>
			<g>
				<polygon fill="#026695" points="247.318,137.664 252.498,145.344 265.716,145.246 265.713,144.848 252.496,144.945 
					247.315,137.26 239.767,137.316 239.77,137.719 				"/>
				<path fill="#026695" d="M238.114,137.591c0.003,0.439,0.397,0.786,0.879,0.782c0.417-0.003,0.759-0.264,0.844-0.613l0.269-0.002
					l-0.003-0.399l-0.283,0.002c-0.106-0.321-0.45-0.571-0.838-0.569C238.501,136.795,238.111,137.16,238.114,137.591z
					 M238.77,137.586c0-0.104,0.089-0.191,0.217-0.193c0.113,0,0.218,0.086,0.219,0.19c0.001,0.108-0.103,0.194-0.216,0.206
					C238.861,137.789,238.771,137.695,238.77,137.586z"/>
			</g>
			<path fill="#026695" d="M256.608,141.117c0.418,0.187,0.926,0.006,1.139-0.412c0.167-0.323,0.081-0.713-0.191-0.94l5.499-11.091
				l-1.433-4.404l2.3-4.367l-0.481,0.004l-2.211,4.19l1.433,4.412l-5.484,11.067c-0.382-0.075-0.775,0.109-0.95,0.451
				C256.013,140.446,256.188,140.93,256.608,141.117z M256.797,140.281c0.048-0.09,0.166-0.137,0.279-0.088
				c0.105,0.044,0.152,0.167,0.103,0.262c-0.059,0.115-0.188,0.156-0.288,0.106C256.778,140.513,256.739,140.399,256.797,140.281z"
				/>
			<path fill="#026695" d="M255.635,138.428c0.428,0.187,0.942-0.002,1.146-0.416c0.17-0.323,0.087-0.717-0.188-0.951l3.995-8.128
				l-1.434-4.399l2.429-4.613l-0.479,0.003l-2.333,4.44l1.431,4.396l-3.985,8.118c-0.373-0.057-0.784,0.115-0.958,0.456
				C255.046,137.752,255.222,138.24,255.635,138.428z M255.84,137.586c0.038-0.08,0.179-0.141,0.271-0.096
				c0.113,0.049,0.15,0.18,0.104,0.271c-0.057,0.113-0.18,0.15-0.295,0.1C255.827,137.822,255.777,137.701,255.84,137.586z"/>
			<path fill="#026695" d="M285.21,154.752l7.41-0.055l2.096-2.65l6.696-0.049l1.427,1.305l4.597-0.033
				c0.066,0.285,0.346,0.514,0.69,0.512c0.378-0.004,0.697-0.314,0.694-0.668c-0.002-0.363-0.326-0.654-0.704-0.65
				c-0.317,0.002-0.592,0.203-0.683,0.488l-4.598,0.033l-1.426-1.32l-6.696,0.049l-2.096,2.652l-7.411,0.055L285.21,154.752z
				 M308.12,152.945c0.085,0,0.17,0.086,0.17,0.172c0.001,0.096-0.082,0.158-0.168,0.16c-0.097,0-0.18-0.063-0.18-0.156
				C307.941,153.033,308.023,152.947,308.12,152.945z"/>
			<path fill="#026695" d="M212.462,148.309l15.021-0.111l1.912-2.647l6.888-0.05l1.424,1.308l4.6-0.034
				c0.063,0.281,0.345,0.514,0.687,0.512c0.386-0.002,0.696-0.309,0.694-0.666c-0.003-0.367-0.317-0.66-0.703-0.656
				c-0.322,0.002-0.594,0.203-0.68,0.488l-4.6,0.035l-1.424-1.318l-6.887,0.051l-1.912,2.648l-15.021,0.109L212.462,148.309z
				 M242.988,146.447c0.087-0.001,0.172,0.084,0.173,0.175c0,0.087-0.084,0.155-0.171,0.155c-0.097,0.002-0.177-0.065-0.178-0.152
				C242.812,146.533,242.891,146.447,242.988,146.447z"/>
			<path fill="#026695" d="M272.214,116.071c0.198,0.314,0.604,0.456,0.947,0.374l8.55,13.315l9.613-0.048l8.279,12.896l0.359-0.199
				l-8.28-12.899l-9.605,0.038l-8.536-13.297c0.272-0.247,0.337-0.656,0.116-0.989c-0.247-0.394-0.772-0.519-1.172-0.291
				C272.094,115.192,271.962,115.691,272.214,116.071z M273.119,115.561c0.054,0.096,0.028,0.222-0.075,0.282
				c-0.09,0.056-0.226,0.015-0.282-0.075c-0.063-0.107-0.033-0.227,0.059-0.277C272.922,115.436,273.053,115.457,273.119,115.561z"
				/>
			<path fill="#026695" d="M293.324,138.513l0.302-0.17l-4.346-7.103l-10.779,0.216l-3.077-4.794l0.477-1.813l-2.368-3.686
				c0.232-0.201,0.301-0.541,0.125-0.816c-0.194-0.302-0.643-0.403-0.968-0.216c-0.331,0.187-0.441,0.593-0.244,0.899
				c0.162,0.253,0.487,0.373,0.793,0.303l2.37,3.686l-0.495,1.82l3.081,4.791l10.786-0.221L293.324,138.513z M272.958,120.557
				c0.082-0.051,0.191-0.016,0.233,0.057c0.054,0.077,0.032,0.172-0.05,0.223c-0.074,0.041-0.205,0.023-0.252-0.052
				C272.841,120.711,272.883,120.598,272.958,120.557z"/>
			<path fill="#026695" d="M231.545,126.104l-7.871,0.059l0.002,0.322l7.87-0.059l2.125,1.983l6.719-0.05
				c0.075,0.289,0.355,0.501,0.692,0.498c0.383-0.003,0.698-0.304,0.695-0.649c-0.003-0.385-0.322-0.668-0.705-0.664
				c-0.315,0.002-0.587,0.204-0.675,0.471l-6.729,0.05L231.545,126.104z M241.257,128.213c0.001,0.072-0.085,0.146-0.178,0.146
				c-0.1,0.001-0.183-0.07-0.183-0.144c-0.001-0.108,0.081-0.177,0.18-0.183C241.169,128.033,241.256,128.104,241.257,128.213z"/>
			<path fill="#026695" d="M204.292,132.592c0.341,0.202,0.77,0.104,0.967-0.203c0.173-0.254,0.14-0.576-0.061-0.787l3.558-5.347
				l2.905-0.638l3.972-5.976l-0.405,0.004l-3.854,5.806l-2.93,0.62l-3.547,5.343c-0.306-0.09-0.645,0.018-0.824,0.277
				C203.872,132.002,203.974,132.412,204.292,132.592z M204.525,131.955c0.048-0.076,0.157-0.1,0.23-0.064
				c0.094,0.054,0.11,0.162,0.064,0.24c-0.05,0.072-0.164,0.101-0.253,0.046C204.498,132.137,204.478,132.027,204.525,131.955z"/>
			<path fill="#026695" d="M293.352,108.22l3.313,6.221l5.367,0.523l1.014,1.899l0.465-0.003l-1.1-2.073l-5.357-0.526l-3.308-6.207
				c0.292-0.225,0.389-0.634,0.201-0.979c-0.214-0.404-0.726-0.58-1.146-0.383c-0.415,0.199-0.578,0.68-0.364,1.085
				C292.607,108.098,293.003,108.277,293.352,108.22z M293.095,107.238c0.107-0.047,0.23-0.011,0.287,0.098
				c0.049,0.094,0.014,0.222-0.093,0.272c-0.099,0.046-0.228-0.004-0.282-0.103C292.956,107.402,292.995,107.284,293.095,107.238z"
				/>
			<path fill="#026695" d="M294.279,100.009l2.051,3.842l-0.647,1.781l2.666,5.007l3.791,1.195l2.672,5.016l0.388-0.003l-2.745-5.16
				l-3.783-1.2l-2.666-5.008l0.632-1.771l-2.051-3.851c0.243-0.18,0.343-0.514,0.19-0.804c-0.169-0.317-0.606-0.449-0.949-0.289
				c-0.343,0.163-0.485,0.567-0.318,0.878C293.651,99.915,293.962,100.052,294.279,100.009z M294.067,99.209
				c0.082-0.036,0.185-0.001,0.224,0.08c0.042,0.072,0.016,0.177-0.071,0.213c-0.079,0.038-0.206,0.006-0.247-0.069
				C293.934,99.36,293.981,99.241,294.067,99.209z"/>
			<path fill="#026695" d="M302.02,103.479l3.006,5.635l-0.951,2.644l2.704,5.079l0.381-0.003l-2.78-5.219l0.973-2.654l-2.996-5.624
				c0.246-0.197,0.331-0.524,0.179-0.804c-0.17-0.32-0.597-0.453-0.933-0.302c-0.361,0.174-0.492,0.565-0.323,0.881
				C301.421,103.379,301.729,103.521,302.02,103.479z M301.833,102.669c0.074-0.032,0.182,0.008,0.224,0.079
				c0.043,0.082,0.013,0.186-0.062,0.223c-0.1,0.047-0.199,0.002-0.248-0.07C301.707,102.818,301.738,102.714,301.833,102.669z"/>
			<path fill="#026695" d="M209.7,127.943l-3.957,5.893l2.314,4.557l-1.208,1.799l0.244,0.369l1.313-1.959l-2.299-4.555l3.946-5.876
				c0.361,0.116,0.779-0.019,1.007-0.352c0.254-0.383,0.141-0.88-0.252-1.117c-0.396-0.228-0.924-0.106-1.177,0.276
				C209.419,127.288,209.464,127.69,209.7,127.943z M210.454,127.225c0.104,0.055,0.137,0.178,0.07,0.281
				c-0.068,0.087-0.195,0.12-0.301,0.065c-0.092-0.058-0.115-0.185-0.053-0.271C210.238,127.19,210.367,127.172,210.454,127.225z"/>
			<path fill="#026695" d="M217.678,124.395l-2.448,3.643l-1.956,0.414l-3.184,4.741l0.878,3.647l-3.193,4.754l0.208,0.312
				l3.281-4.892l-0.876-3.643l3.186-4.74l1.948-0.422l2.445-3.645c0.291,0.102,0.653,0.008,0.838-0.265
				c0.198-0.306,0.091-0.721-0.229-0.909c-0.329-0.197-0.771-0.098-0.971,0.207C217.436,123.848,217.471,124.17,217.678,124.395z
				 M218.289,123.811c0.084,0.044,0.098,0.148,0.055,0.221c-0.053,0.073-0.154,0.102-0.239,0.052
				c-0.078-0.04-0.11-0.153-0.063-0.235C218.093,123.779,218.216,123.766,218.289,123.811z"/>
			<path fill="#026695" d="M218.534,132.393l-3.579,5.332l-2.917,0.625l-3.222,4.81l0.199,0.302l3.314-4.941l2.932-0.611l3.58-5.324
				c0.298,0.093,0.645-0.008,0.824-0.277c0.203-0.311,0.101-0.713-0.215-0.9c-0.343-0.201-0.773-0.1-0.974,0.201
				C218.305,131.863,218.344,132.18,218.534,132.393z M219.175,131.821c0.068,0.039,0.088,0.147,0.038,0.221
				c-0.046,0.077-0.162,0.105-0.226,0.062c-0.095-0.054-0.115-0.153-0.072-0.231C218.966,131.8,219.08,131.771,219.175,131.821z"/>
		</g>
	</g>
	<g>
		<rect x="91.92" y="43.419" opacity="0.5" fill="#005374" width="19.555" height="13.55"/>
		<rect x="54.581" y="51.708" fill="#005374" width="47.116" height="33.742"/>
		<g>
			<g>
				<path fill="#005374" d="M55.35,86.604h10.33l29.227,61.081l29.344-61.081h9.978l-35.331,71.413h-8.216L55.35,86.604z"/>
				<path fill="#005374" d="M169.093,86.098h8.686l37.444,71.414h-9.977l-9.625-18.74h-44.721l-9.743,18.74h-9.508L169.093,86.098z
					 M191.981,131.58l-18.663-36.163l-18.781,36.163H191.981z"/>
				<path fill="#005374" d="M227.196,127.832V86.604h9.273v40.721c0,15.296,9.39,23.905,25.119,23.905
					c15.143,0,24.768-7.9,24.768-23.398V86.604h9.272v40.62c0,20.664-13.733,31.4-34.274,31.4
					C241.047,158.625,227.196,147.889,227.196,127.832z"/>
				<path fill="#005374" d="M317.578,86.604h9.273v63.513h46.246v7.395h-55.52V86.604z"/>
				<path fill="#005374" d="M400.214,93.999H372.63v-7.395h64.558v7.395h-27.584v63.513h-9.39V93.999z"/>
			</g>
			<g>
				<path fill="#FFFFFF" d="M57.022,58.875h5.051l16.099,11.098l16.099-11.098h5.051v20.337h-4.988V62.738L78.235,73.633h-0.252
					L61.884,62.768v16.444h-4.861V58.875z"/>
				<path fill="#005374" d="M111.825,58.875h31.945v2.092h-26.958v6.944h24.116v2.092h-24.116v7.118h27.273v2.092h-32.261V58.875z"
					/>
				<path fill="#005374" d="M152.168,69.101v-0.058c0-5.578,8.902-10.517,22.16-10.517c7.45,0,12.059,0.988,16.478,2.702
					l-3.22,1.743c-3.409-1.365-7.197-2.324-13.447-2.324c-9.785,0-16.793,3.806-16.793,8.338v0.058
					c0,4.852,6.755,8.454,17.488,8.454c5.05,0,9.722-0.9,12.752-2.033v-5.056h-13.447v-2.063h18.246v8.105
					c-4.104,1.686-10.291,3.109-17.741,3.109C160.755,79.56,152.168,74.912,152.168,69.101z"/>
				<path fill="#005374" d="M219.976,58.729h4.672l20.14,20.482h-5.366l-5.177-5.375H210.19l-5.24,5.375h-5.114L219.976,58.729z
					 M232.287,71.774l-10.038-10.372l-10.101,10.372H232.287z"/>
				<path fill="#005374" d="M253.502,58.875h4.987v9.036h25.506v-9.036h4.987v20.337h-4.987V70.06h-25.506v9.152h-4.987V58.875z"/>
				<path fill="#005374" d="M299.527,69.101v-0.058c0-5.607,9.154-10.517,22.602-10.517s22.476,4.852,22.476,10.459v0.058
					c0,5.607-9.154,10.517-22.602,10.517S299.527,74.708,299.527,69.101z M339.428,69.101v-0.058c0-4.619-7.324-8.396-17.425-8.396
					c-10.102,0-17.299,3.719-17.299,8.338v0.058c0,4.619,7.323,8.396,17.425,8.396S339.428,73.721,339.428,69.101z"/>
				<path fill="#005374" d="M353.192,69.101v-0.058c0-5.607,9.154-10.517,22.602-10.517c13.448,0,22.476,4.852,22.476,10.459v0.058
					c0,5.607-9.154,10.517-22.602,10.517S353.192,74.708,353.192,69.101z M393.093,69.101v-0.058c0-4.619-7.323-8.396-17.425-8.396
					s-17.298,3.719-17.298,8.338v0.058c0,4.619,7.323,8.396,17.424,8.396C385.896,77.439,393.093,73.721,393.093,69.101z"/>
				<path fill="#005374" d="M417.465,60.995h-14.836v-2.121h34.723v2.121h-14.836v18.216h-5.051V60.995z"/>
			</g>
		</g>
		<rect x="88.77" y="81.429" opacity="0.8" fill="#005374" width="16.361" height="12.048"/>
		<rect x="51.54" y="43.419" opacity="0.4" fill="#005374" width="17.044" height="13.55"/>
		<rect x="113.093" y="37.3" fill="#005374" width="10.443" height="6.896"/>
		<rect x="124.597" y="45.402" opacity="0.7" fill="#005374" width="8.142" height="4.495"/>
		<rect x="119.375" y="53.433" opacity="0.8" fill="#005374" width="6.271" height="3.448"/>
	</g>
</g>
</svg>
