<?xml version="1.0" encoding="utf-8"?>
<!-- Generator: Adobe Illustrator 16.0.0, SVG Export Plug-In . SVG Version: 6.00 Build 0)  -->
<!DOCTYPE svg PUBLIC "-//W3C//DTD SVG 1.1//EN" "http://www.w3.org/Graphics/SVG/1.1/DTD/svg11.dtd">
<svg version="1.1" id="Layer_1" xmlns="http://www.w3.org/2000/svg" xmlns:xlink="http://www.w3.org/1999/xlink" x="0px" y="0px"
	 width="500px" height="200px" viewBox="0 0 500 200" enable-background="new 0 0 500 200" xml:space="preserve">
<g>
	<path fill="#6D499C" d="M497.974,141.963c0,8.277-5.455,14.988-12.184,14.988H13.658c-6.729,0-12.184-6.711-12.184-14.988V54.064
		c0-8.277,5.455-14.988,12.184-14.988H485.79c6.729,0,12.184,6.711,12.184,14.988V141.963z"/>
	<path fill="#F4F3EF" d="M490.454,135.874c0,8.277-5.484,14.988-12.249,14.988H19.402c-6.765,0-12.249-6.711-12.249-14.988V61.558
		c0-8.277,5.483-14.988,12.249-14.988h458.803c6.765,0,12.249,6.711,12.249,14.988V135.874z"/>
</g>
<g>
	<path fill="#6D499C" d="M482.935,139.223H65.292v8.572h417.643c2.301,0,4.168-1.92,4.168-4.285l0,0
		C487.103,141.143,485.235,139.223,482.935,139.223z"/>
	<path fill="#BBA14F" d="M159.5,68.621h327.603V54.555H159.5c-2.367,0-4.285,3.148-4.285,7.033l0,0
		C155.215,65.472,157.133,68.621,159.5,68.621z"/>
</g>
<g>
	<g>
		<path fill="#6D499C" d="M275.561,132.623c-0.427,1-0.983,1.498-1.682,1.498c-0.608,0-1.122-0.386-1.546-1.166
			c-0.425-0.775-0.633-1.718-0.633-2.83c0-1.054,0.149-1.858,0.452-2.414l11.042-27.217c0.515-1.274,1.195-2.318,2.043-3.123
			c0.848-0.8,1.758-1.205,2.73-1.205c0.907,0,1.772,0.362,2.589,1.083c0.817,0.723,1.484,1.721,1.998,2.996l11.042,27.052
			c0.153,0.442,0.299,0.887,0.432,1.331c0.139,0.443,0.208,0.946,0.208,1.497c0,1.112-0.215,2.055-0.64,2.83
			c-0.423,0.78-0.938,1.166-1.542,1.166c-0.758,0-1.334-0.527-1.73-1.581l-10.584-25.885c-0.216-0.444-0.479-0.932-0.799-1.458
			c-0.316-0.527-0.643-0.791-0.974-0.791c-0.333,0-0.66,0.264-0.979,0.791c-0.32,0.526-0.57,1.014-0.751,1.458L275.561,132.623z
			 M285.147,125.13c0-1.438,0.273-2.664,0.82-3.659c0.544-1,1.209-1.497,2-1.497c0.786,0,1.453,0.497,1.998,1.497
			c0.546,0.995,0.817,2.221,0.817,3.659c0,1.444-0.271,2.664-0.817,3.664c-0.545,1.001-1.212,1.498-1.998,1.498
			c-0.791,0-1.456-0.497-2-1.498C285.421,127.794,285.147,126.574,285.147,125.13z"/>
		<path fill="#6D499C" d="M420.144,134.038c-0.605,0-1.119-0.39-1.544-1.166c-0.43-0.78-0.638-1.722-0.638-2.829
			c0-1.055,0.193-1.928,0.59-2.624c0.396-0.693,0.876-1.152,1.452-1.371c0.938-0.332,1.835-0.863,2.683-1.581
			c0.848-0.722,1.598-1.542,2.252-2.458c0.653-0.918,1.167-1.898,1.542-2.957c0.383-1.054,0.57-2.107,0.57-3.161
			s-0.188-2.094-0.57-3.122c-0.375-1.025-0.889-1.996-1.542-2.913c-0.654-0.913-1.404-1.731-2.252-2.454
			c-0.848-0.722-1.744-1.277-2.683-1.663c-0.576-0.279-1.056-0.752-1.452-1.414c-0.396-0.67-0.59-1.527-0.59-2.582
			c0-1.111,0.208-2.053,0.638-2.83c0.425-0.78,0.938-1.166,1.544-1.166c0.117,0,0.229,0.015,0.318,0.04
			c0.091,0.029,0.195,0.072,0.313,0.126c1.334,0.498,2.642,1.332,3.912,2.498c1.272,1.167,2.404,2.566,3.405,4.201
			c1.001,1.64,1.807,3.43,2.411,5.371c0.605,1.941,0.911,3.913,0.911,5.908c0,2.054-0.306,4.054-0.911,5.995
			c-0.604,1.941-1.41,3.718-2.411,5.327c-1.001,1.61-2.133,2.996-3.405,4.161c-1.271,1.161-2.578,1.996-3.912,2.498
			c-0.118,0.054-0.223,0.098-0.313,0.122C420.373,134.024,420.261,134.038,420.144,134.038z M448.295,134.038
			c-0.125,0-0.229-0.014-0.32-0.044c-0.091-0.024-0.194-0.068-0.319-0.122c-1.335-0.502-2.634-1.337-3.906-2.498
			c-1.271-1.165-2.411-2.551-3.411-4.161c-0.994-1.609-1.801-3.386-2.405-5.327c-0.611-1.941-0.909-3.941-0.909-5.995
			c0-1.995,0.298-3.967,0.909-5.908c0.604-1.941,1.411-3.731,2.405-5.371c1-1.635,2.141-3.034,3.411-4.201
			c1.272-1.166,2.571-2,3.906-2.498c0.125-0.054,0.229-0.097,0.319-0.126c0.091-0.025,0.195-0.04,0.32-0.04
			c0.604,0,1.119,0.386,1.542,1.166c0.425,0.777,0.64,1.718,0.64,2.83c0,1.055-0.201,1.912-0.59,2.582
			c-0.396,0.662-0.883,1.135-1.453,1.414c-0.945,0.386-1.835,0.941-2.683,1.663c-0.848,0.723-1.599,1.541-2.251,2.454
			c-0.653,0.917-1.168,1.888-1.544,2.913c-0.382,1.028-0.568,2.068-0.568,3.122s0.187,2.107,0.568,3.161
			c0.376,1.059,0.891,2.039,1.544,2.957c0.652,0.916,1.403,1.736,2.251,2.458c0.848,0.718,1.737,1.249,2.683,1.581
			c0.57,0.219,1.057,0.678,1.453,1.371c0.389,0.696,0.59,1.569,0.59,2.624c0,1.107-0.215,2.049-0.64,2.829
			C449.414,133.648,448.898,134.038,448.295,134.038z"/>
		<path fill="#6D499C" d="M376.543,115.964c0.425-0.946,0.766-2.016,1.021-3.206c0.258-1.195,0.383-2.482,0.383-3.873
			c0-1.552-0.16-3.01-0.472-4.367c-0.32-1.36-0.759-2.541-1.321-3.541c-0.563-0.995-1.216-2.194-1.952-2.78
			c-0.744-0.581-1.544-1.283-2.392-1.283h-27.217c-0.608,0-0.778,0.8-1.201,1.575c-0.425,0.776-0.296,2.133-0.296,3.239v3.938
			h28.902c0.451,0,0.854,0.346,1.201,0.985c0.349,0.64,0.522,1.391,0.522,2.221c0,0.887-0.167,1.424-0.501,1.98
			c-0.334,0.556-0.73,0.647-1.182,0.647h-28.943v18.529c0,1.107-0.129,1.727,0.296,2.507c0.423,0.776,0.593,0.84,1.201,0.84h27.217
			c0.848,0,1.647,0.033,2.392-0.552c0.736-0.58,1.39-1.21,1.952-2.21s1.001-2.083,1.321-3.415c0.312-1.331,0.472-2.731,0.472-4.288
			c0-1.332-0.125-2.571-0.383-3.766C377.309,117.954,376.968,116.904,376.543,115.964z M373.2,125.14
			c-0.347,0.614-0.75,0.941-1.201,0.941h-24.92v-7.293h24.92c0.451,0,0.854,0.834,1.201,1.419c0.349,0.581,0.522,1.602,0.522,2.488
			C373.723,123.524,373.549,124.53,373.2,125.14z"/>
		<path fill="#6D499C" d="M271.151,109.554c-0.362-2.167-0.883-4.122-1.568-5.869c-0.681-1.747-1.514-3.587-2.497-4.698
			c-0.987-1.107-2.085-2.073-3.295-2.073h-20.722c-1.303,0-2.471,0.965-3.499,2.073c-1.032,1.111-1.908,2.786-2.637,4.531
			c-0.25,0.611-0.479,0.688-0.695,2.147h26.144c1.027,0,1.875,0.376,2.543,1.068c0.667,0.693,1.188,1.557,1.57,2.557
			c0.376,0.995,0.636,2.098,0.771,3.293c0.14,1.195,0.205,2.292,0.205,3.293c0,0.995-0.065,2.097-0.205,3.287
			c-0.136,1.196-0.396,2.288-0.771,3.288c-0.382,1-0.903,1.874-1.57,2.566c-0.668,0.693-1.516,1.063-2.543,1.063h-18.36
			c-1.056,0-1.915-0.37-2.564-1.063c-0.653-0.692-1.167-1.551-1.546-2.552c-0.378-1-0.635-2.102-0.775-3.292
			c-0.132-1.196-0.202-2.293-0.202-3.293s0.07-2.22,0.202-3.41c0.035-0.288,0.077-0.972,0.122-0.972h-4.302
			c-0.163,1.459-0.246,2.903-0.246,4.26c0,2.049,0.181,4.22,0.542,6.385c0.364,2.162,0.889,4.147,1.571,5.899
			c0.681,1.746,1.504,2.863,2.474,3.976s2.078,1.356,3.318,1.356h20.723c1.304,0,2.47-0.229,3.498-1.342
			c1.029-1.107,1.908-2.376,2.634-4.122c0.73-1.752,1.279-3.61,1.662-5.747c0.374-2.138,0.569-4.215,0.569-6.327
			C271.7,113.788,271.517,111.715,271.151,109.554z"/>
		<path fill="#6D499C" d="M341.283,104.152c-0.316-1.331-0.755-2.498-1.313-3.498c-0.563-0.999-1.216-2.199-1.956-2.78
			c-0.74-0.585-1.539-1.283-2.388-1.283h-27.221c-0.604,0-0.774,0.795-1.198,1.57c-0.423,0.781-0.289,2.132-0.289,3.239v3.938
			h28.893c0.455,0,0.854,0.337,1.206,0.947c0.348,0.609,0.521,1.346,0.521,2.18c0,0.889-0.173,1.435-0.521,2.021
			c-0.352,0.58-0.751,0.688-1.206,0.688h-28.893v18.533c0,1.107-0.134,2.049,0.289,2.829c0.424,0.776,0.769,1.162,1.373,1.162
			c0.576,0,1.153-0.386,1.591-1.162c0.438-0.78,0.727-1.722,0.727-2.829v-11.24h24.729c0.849,0,1.647,0.248,2.388-0.331
			c0.74-0.586,1.393-1.104,1.956-2.103c0.559-1,0.997-2.03,1.313-3.362c0.319-1.331,0.479-2.707,0.479-4.258
			C341.763,106.86,341.603,105.484,341.283,104.152z"/>
		<g>
			<path fill="#6D499C" d="M230.738,105.665c0.608,0,1.123-0.36,1.546-1.138c0.424-0.774,0.636-1.706,0.636-2.814
				c0-1.107-0.212-2.453-0.636-3.234c-0.424-0.775-0.938-1.565-1.546-1.565h-27.585c-0.848,0-1.633,0.702-2.363,1.283
				c-0.723,0.586-1.362,1.581-1.908,2.576c-0.545,1-0.976,2.321-1.296,3.653c-0.083,0.361-0.16,1.239-0.222,1.239H230.738z"/>
			<path fill="#6D499C" d="M233.806,118.666c-0.32-1.361-0.751-2.537-1.296-3.537s-1.188-1.98-1.928-2.566
				c-0.744-0.579-1.543-1.063-2.387-1.063h-5.83h-25.018c0.066,0,0.146,1.03,0.24,1.43c0.32,1.332,0.75,2.601,1.296,3.597
				c0.546,1,1.185,1.297,1.908,1.882c0.729,0.581,1.515,0.381,2.363,0.381h25.222c0.456,0,0.848,0.85,1.181,1.459
				c0.333,0.609,0.5,1.63,0.5,2.517c0,0.835-0.167,1.698-0.5,2.284c-0.333,0.584-0.726,1.033-1.181,1.033h-27.717
				c-0.608,0-1.125,0.366-1.549,1.143c-0.424,0.774-0.633,1.706-0.633,2.814c0,1.112,0.209,1.727,0.633,2.502
				c0.424,0.776,0.941,0.835,1.549,0.835h27.537c0.844,0,1.644,0.043,2.387-0.508c0.74-0.556,1.383-1.171,1.928-2.171
				c0.545-0.995,0.977-2.084,1.296-3.409c0.319-1.338,0.476-2.737,0.476-4.293C234.282,121.442,234.125,120.026,233.806,118.666z"/>
		</g>
		<path fill="#6D499C" d="M416.119,110.3c-0.368-2.167-0.889-4.117-1.57-5.868c-0.681-1.747-1.515-3.587-2.501-4.694
			c-0.987-1.112-2.086-2.074-3.294-2.074H388.03c-1.299,0-2.466,0.962-3.495,2.074c-1.028,1.107-1.911,2.782-2.641,4.532
			c-0.25,0.605-0.479,0.683-0.688,2.142h26.136c1.035,0,1.884,0.376,2.55,1.068c0.661,0.698,1.188,1.557,1.563,2.557
			c0.383,1,0.64,2.103,0.771,3.293c0.139,1.195,0.208,2.293,0.208,3.293s-0.069,2.098-0.208,3.288
			c-0.132,1.195-0.389,2.292-0.771,3.293c-0.375,0.995-0.902,1.868-1.563,2.561c-0.666,0.693-1.515,1.063-2.55,1.063H388.99
			c-1.064,0-1.919-0.37-2.571-1.063c-0.653-0.692-1.168-1.551-1.544-2.551c-0.382-0.995-0.639-2.098-0.771-3.293
			c-0.139-1.19-0.208-2.293-0.208-3.288c0-1,0.069-2.219,0.208-3.415c0.028-0.288,0.069-0.971,0.119-0.971h-4.302
			c-0.167,1.459-0.25,2.903-0.25,4.259c0,2.054,0.181,4.22,0.542,6.386c0.368,2.167,0.89,4.152,1.57,5.898
			c0.681,1.747,1.508,2.869,2.474,3.977c0.974,1.111,2.078,1.355,3.322,1.355h20.723c1.3,0,2.467-0.229,3.495-1.341
			c1.029-1.108,1.911-2.376,2.641-4.123c0.724-1.746,1.278-3.609,1.654-5.747c0.383-2.132,0.569-4.215,0.569-6.327
			C416.661,114.534,416.481,112.466,416.119,110.3z"/>
	</g>
	<g>
		<path fill="#6D499C" d="M214.741,85.087c-0.191,0.342-0.441,0.512-0.754,0.512c-0.271,0-0.5-0.131-0.688-0.4
			c-0.188-0.268-0.285-0.59-0.285-0.971c0-0.361,0.069-0.634,0.202-0.824l4.934-9.323c0.232-0.439,0.535-0.795,0.917-1.068
			c0.378-0.278,0.785-0.415,1.216-0.415c0.41,0,0.792,0.122,1.16,0.371c0.361,0.244,0.66,0.59,0.89,1.024l4.937,9.27
			c0.066,0.151,0.132,0.302,0.191,0.454c0.062,0.151,0.09,0.322,0.09,0.512c0,0.381-0.09,0.703-0.282,0.971
			c-0.191,0.269-0.42,0.4-0.691,0.4c-0.341,0-0.598-0.181-0.772-0.541l-4.732-8.869c-0.094-0.151-0.212-0.317-0.354-0.498
			c-0.142-0.181-0.289-0.274-0.438-0.274c-0.146,0-0.292,0.093-0.438,0.274c-0.139,0.18-0.25,0.346-0.334,0.498L214.741,85.087z
			 M219.024,82.521c0-0.498,0.122-0.912,0.365-1.253c0.247-0.347,0.542-0.518,0.893-0.518c0.354,0,0.653,0.171,0.896,0.518
			c0.243,0.341,0.361,0.755,0.361,1.253c0,0.493-0.118,0.912-0.361,1.254c-0.244,0.341-0.542,0.512-0.896,0.512
			c-0.351,0-0.646-0.171-0.893-0.512C219.146,83.434,219.024,83.015,219.024,82.521z"/>
		<path fill="#6D499C" d="M183.146,75.618c-0.473,0-0.858,0.122-1.146,0.356c-0.292,0.239-0.521,0.532-0.692,0.874
			c-0.17,0.341-0.285,0.717-0.344,1.126c-0.063,0.405-0.094,0.78-0.094,1.122c0,0.346,0.031,0.717,0.094,1.127
			c0.059,0.41,0.174,0.786,0.344,1.127c0.17,0.342,0.4,0.635,0.692,0.868c0.288,0.239,0.674,0.356,1.146,0.356h11.188
			c0.271,0,0.5,0.136,0.688,0.4c0.191,0.268,0.285,0.59,0.285,0.971c0,0.38-0.094,0.702-0.285,0.97
			c-0.188,0.264-0.417,0.396-0.688,0.396h-11.842c-0.553,0-1.049-0.185-1.48-0.566c-0.431-0.381-0.803-0.873-1.105-1.468
			c-0.306-0.601-0.542-1.264-0.702-2c-0.164-0.727-0.244-1.458-0.244-2.181c0-0.702,0.083-1.424,0.254-2.166
			c0.17-0.741,0.414-1.41,0.74-2.01c0.327-0.6,0.716-1.088,1.178-1.468c0.462-0.381,0.983-0.571,1.563-0.571h11.637
			c0.271,0,0.5,0.137,0.688,0.4c0.191,0.268,0.285,0.59,0.285,0.971c0,0.381-0.094,0.702-0.285,0.971
			c-0.188,0.263-0.417,0.395-0.688,0.395H183.146z M193.479,77.73c0.271,0,0.5,0.132,0.691,0.4c0.191,0.264,0.285,0.585,0.285,0.966
			s-0.094,0.708-0.285,0.971c-0.191,0.269-0.42,0.4-0.691,0.4h-10.111c-0.271,0-0.5-0.131-0.688-0.4
			c-0.194-0.263-0.285-0.59-0.285-0.971s0.091-0.702,0.285-0.966c0.188-0.269,0.417-0.4,0.688-0.4H193.479z"/>
		<path fill="#6D499C" d="M244.633,84.775c0,0.381-0.098,0.702-0.285,0.971c-0.188,0.263-0.42,0.4-0.688,0.4
			c-0.271,0-0.504-0.137-0.695-0.4c-0.188-0.269-0.285-0.59-0.285-0.971v-0.654c0-0.571-0.083-1.044-0.25-1.415
			c-0.17-0.371-0.382-0.658-0.632-0.868c-0.25-0.209-0.521-0.351-0.813-0.429c-0.289-0.073-0.549-0.112-0.778-0.112h-3.454h-0.063
			h-0.077h-3.454c-0.42,0-0.844-0.074-1.271-0.229c-0.424-0.151-0.827-0.381-1.209-0.683v4.391c0,0.381-0.091,0.702-0.282,0.971
			c-0.191,0.263-0.42,0.4-0.691,0.4s-0.5-0.137-0.688-0.4c-0.191-0.269-0.285-0.59-0.285-0.971v-9.694
			c0-0.38,0.094-0.702,0.285-0.971c0.188-0.263,0.417-0.395,0.688-0.395s0.5,0.132,0.691,0.395c0.191,0.269,0.282,0.59,0.282,0.971
			v0.483c0,0.609,0.087,1.107,0.257,1.498c0.167,0.39,0.378,0.697,0.628,0.912c0.25,0.219,0.518,0.371,0.803,0.459
			c0.285,0.083,0.549,0.127,0.792,0.127h3.513h0.018h0.063h3.454c0.417,0,0.84,0.078,1.268,0.229
			c0.427,0.151,0.831,0.38,1.206,0.683v-4.391c0-0.38,0.098-0.702,0.285-0.971c0.191-0.263,0.424-0.395,0.695-0.395
			c0.268,0,0.5,0.132,0.688,0.395c0.188,0.269,0.285,0.59,0.285,0.971V84.775z"/>
		<path fill="#6D499C" d="M163.333,83.946c0,0.38-0.098,0.702-0.285,0.97c-0.188,0.264-0.417,0.396-0.688,0.396
			s-0.5-0.132-0.691-0.396c-0.191-0.268-0.285-0.59-0.285-0.97v-9.694c0-0.38,0.094-0.703,0.285-0.971
			c0.191-0.263,0.42-0.4,0.691-0.4c0.131,0,0.257,0.039,0.361,0.117c0.111,0.073,0.219,0.171,0.326,0.283
			c0.869,1.063,1.616,1.902,2.245,2.508c0.628,0.609,1.202,1.068,1.716,1.371c0.515,0.302,1.005,0.493,1.474,0.57
			c0.466,0.074,0.962,0.113,1.49,0.113c0.529,0,1.019-0.034,1.473-0.098c0.456-0.068,0.936-0.254,1.443-0.556
			c0.507-0.303,1.077-0.761,1.702-1.371c0.633-0.605,1.386-1.455,2.266-2.537c0.229-0.263,0.458-0.4,0.691-0.4
			c0.271,0,0.5,0.137,0.691,0.4c0.188,0.268,0.285,0.59,0.285,0.971v9.694c0,0.38-0.098,0.702-0.285,0.97
			c-0.191,0.264-0.42,0.396-0.691,0.396s-0.5-0.132-0.691-0.396c-0.188-0.268-0.285-0.59-0.285-0.97v-6.757
			c-0.608,0.683-1.195,1.253-1.754,1.708c-0.56,0.458-1.109,0.824-1.644,1.097c-0.535,0.279-1.066,0.473-1.595,0.586
			c-0.528,0.117-1.063,0.17-1.605,0.17c-0.58,0-1.139-0.054-1.675-0.17c-0.535-0.113-1.07-0.307-1.604-0.586
			c-0.532-0.273-1.074-0.639-1.623-1.097c-0.549-0.454-1.126-1.024-1.737-1.708V83.946z"/>
		<path fill="#6D499C" d="M294.473,74.379c0.271,0,0.501,0.136,0.688,0.4c0.191,0.268,0.285,0.59,0.285,0.971
			c0,0.36-0.087,0.668-0.265,0.927c-0.175,0.253-0.385,0.405-0.629,0.439h-4.083c-0.403,0-0.739,0.122-1.004,0.356
			c-0.264,0.239-0.469,0.537-0.618,0.888c-0.15,0.351-0.254,0.727-0.307,1.122c-0.052,0.4-0.079,0.771-0.079,1.112v4.849
			c0,0.381-0.098,0.703-0.285,0.971c-0.187,0.264-0.42,0.396-0.688,0.396c-0.271,0-0.504-0.132-0.694-0.396
			c-0.188-0.268-0.282-0.59-0.282-0.971v-4.849c0-0.585,0.053-1.181,0.163-1.781c0.105-0.6,0.271-1.166,0.487-1.697h-6.661
			c-0.271,0-0.504-0.132-0.69-0.395c-0.188-0.269-0.285-0.59-0.285-0.971c0-0.381,0.097-0.703,0.285-0.971
			c0.187-0.264,0.42-0.4,0.69-0.4H294.473z"/>
		<path fill="#6D499C" d="M262.264,78.682c-0.168-0.742-0.396-1.41-0.703-2.01c-0.305-0.6-0.677-1.229-1.118-1.609
			c-0.438-0.381-0.932-0.712-1.474-0.712h-9.256c-0.583,0-1.104,0.332-1.563,0.712c-0.462,0.38-0.855,0.956-1.182,1.551
			c-0.111,0.209-0.216,0.234-0.306,0.736h11.682c0.458,0,0.838,0.127,1.136,0.366c0.296,0.239,0.532,0.532,0.699,0.874
			c0.17,0.341,0.284,0.721,0.347,1.131c0.063,0.405,0.09,0.786,0.09,1.127s-0.026,0.717-0.09,1.127
			c-0.063,0.41-0.177,0.781-0.347,1.127c-0.167,0.342-0.403,0.639-0.699,0.878c-0.298,0.234-0.678,0.361-1.136,0.361h-8.208
			c-0.472,0-0.854-0.127-1.146-0.361c-0.292-0.239-0.521-0.531-0.688-0.873c-0.174-0.347-0.285-0.722-0.348-1.132
			c-0.062-0.405-0.09-0.786-0.09-1.127s0.028-0.761,0.09-1.166c0.014-0.103,0.035-0.337,0.056-0.337h-1.925
			c-0.073,0.503-0.112,0.995-0.112,1.458c0,0.708,0.083,1.45,0.244,2.191c0.163,0.741,0.396,1.42,0.702,2.02
			c0.306,0.6,0.674,0.981,1.105,1.362c0.434,0.38,0.931,0.463,1.483,0.463h9.26c0.584,0,1.105-0.079,1.563-0.459
			c0.459-0.38,0.855-0.814,1.178-1.409c0.322-0.6,0.573-1.24,0.74-1.971c0.171-0.732,0.257-1.444,0.257-2.166
			C262.506,80.131,262.423,79.424,262.264,78.682z"/>
		<g>
			<path fill="#6D499C" d="M211.395,75.853c0.271,0,0.5-0.127,0.695-0.391c0.188-0.268,0.281-0.585,0.281-0.966
				c0-0.38-0.093-0.839-0.281-1.107c-0.195-0.264-0.424-0.537-0.695-0.537H199.56c-0.583,0-1.104,0.332-1.563,0.712
				c-0.462,0.381-0.855,0.927-1.182,1.527c-0.118,0.224-0.229,0.258-0.327,0.761H211.395z"/>
			<path fill="#6D499C" d="M211.672,78.995c-0.226-0.317-0.486-0.629-0.785-0.81c-0.296-0.181-0.616-0.337-0.953-0.337h-7.776
				c-0.271,0-0.5,0.2-0.691,0.468c-0.191,0.264-0.285,0.62-0.285,1c0,0.381,0.094,0.537,0.285,0.801
				c0.191,0.268,0.42,0.229,0.691,0.229h7.692c0.191,0,0.344,0.293,0.458,0.502c0.115,0.205,0.174,0.547,0.174,0.834
				c0,0.283-0.066,0.585-0.195,0.795c-0.128,0.21-0.274,0.366-0.438,0.366h-9.847c-0.473,0-0.855-0.126-1.146-0.366
				c-0.292-0.234-0.521-0.532-0.692-0.873c-0.17-0.341-0.285-0.717-0.344-1.127c-0.063-0.41-0.091-0.786-0.091-1.127
				c0-0.342,0.028-0.786,0.091-1.191c0.01-0.083,0.027-0.312,0.042-0.312h-1.938c-0.069,0.502-0.105,0.986-0.105,1.434
				c0,0.722,0.083,1.484,0.244,2.215c0.163,0.732,0.396,1.415,0.702,2.015c0.306,0.595,0.674,0.985,1.105,1.361
				c0.434,0.381,0.927,0.468,1.483,0.468h10.58c0.337,0,0.657,0.024,0.953-0.161c0.298-0.175,0.559-0.371,0.785-0.683
				c0.223-0.313,0.497-0.654,0.618-1.069c0.125-0.419,0.285-0.849,0.285-1.342v-0.629c0-0.473-0.16-0.927-0.285-1.351
				C212.169,79.678,211.895,79.307,211.672,78.995z"/>
		</g>
		<path fill="#6D499C" d="M279.866,78.682c-0.168-0.742-0.396-1.41-0.703-2.01c-0.305-0.6-0.677-1.229-1.118-1.609
			c-0.438-0.381-0.932-0.712-1.474-0.712h-9.257c-0.582,0-1.104,0.332-1.563,0.712c-0.461,0.38-0.854,0.956-1.181,1.551
			c-0.111,0.209-0.216,0.234-0.307,0.736h11.683c0.458,0,0.838,0.127,1.133,0.366c0.299,0.239,0.535,0.532,0.702,0.874
			c0.17,0.341,0.284,0.721,0.347,1.131c0.06,0.405,0.09,0.786,0.09,1.127s-0.03,0.717-0.09,1.127
			c-0.063,0.41-0.177,0.781-0.347,1.127c-0.167,0.342-0.403,0.639-0.702,0.878c-0.295,0.234-0.675,0.361-1.133,0.361h-8.207
			c-0.473,0-0.854-0.127-1.147-0.361c-0.292-0.239-0.521-0.531-0.688-0.873c-0.173-0.347-0.285-0.722-0.348-1.132
			c-0.062-0.405-0.09-0.786-0.09-1.127s0.028-0.761,0.09-1.166c0.015-0.103,0.035-0.337,0.056-0.337h-1.924
			c-0.074,0.503-0.112,0.995-0.112,1.458c0,0.708,0.083,1.45,0.244,2.191c0.162,0.741,0.396,1.42,0.701,2.02
			c0.306,0.6,0.674,0.981,1.104,1.362c0.435,0.38,0.932,0.463,1.484,0.463h9.26c0.584,0,1.104-0.079,1.563-0.459
			c0.459-0.38,0.855-0.814,1.178-1.409c0.322-0.6,0.573-1.24,0.74-1.971c0.17-0.732,0.257-1.444,0.257-2.166
			C280.108,80.131,280.025,79.424,279.866,78.682z"/>
	</g>
</g>
<g>
	<polygon fill="#BBA14F" points="76.724,117.894 69.718,122.113 65.236,128.954 57.092,129.715 50.086,133.934 42.419,131.087 
		34.276,131.848 28.604,125.956 20.937,123.107 18.382,115.339 12.71,109.446 13.78,101.338 11.226,93.568 15.708,86.728 
		16.778,78.619 23.786,74.399 28.267,67.559 36.41,66.798 43.417,62.578 51.083,65.426 59.227,64.665 64.9,70.557 72.566,73.404 
		75.12,81.174 80.792,87.066 79.722,95.175 82.277,102.943 77.794,109.785 	"/>
	<g>
		<path fill="#58246B" d="M49.741,130.238l-6.873-2.553l-7.3,0.683l-5.084-5.282l-6.873-2.552l-2.29-6.966l-5.084-5.281l0.959-7.269
			l-2.29-6.965l4.017-6.132l0.96-7.27l6.28-3.781l4.019-6.133l7.3-0.683l6.28-3.781l6.873,2.552l7.299-0.682l5.085,5.281
			l6.873,2.553l2.29,6.965l5.085,5.281l-0.96,7.269l2.29,6.966l-4.019,6.132l-0.959,7.269l-6.28,3.782l-4.019,6.133l-7.3,0.682
			L49.741,130.238z M43.101,125.921l6.46,2.399l5.904-3.555l6.862-0.642l3.777-5.765l5.903-3.556l0.901-6.833l3.777-5.764
			l-2.152-6.548l0.901-6.833l-4.779-4.965l-2.152-6.547l-6.46-2.399l-4.78-4.965l-6.862,0.641l-6.461-2.399l-5.904,3.556
			l-6.861,0.642l-3.776,5.765l-5.904,3.555l-0.902,6.833l-3.776,5.765l2.152,6.547l-0.902,6.833l4.78,4.965l2.152,6.548l6.461,2.399
			l4.779,4.965L43.101,125.921z"/>
	</g>
	<polygon fill="#58246B" points="65.292,82.37 40.233,114.143 28.211,94.79 40.297,103.354 	"/>
</g>
<text transform="matrix(1 0 0 1 341.7627 64.9414)" font-family="'Gotham-Black'" font-size="12">View Corporate Profile</text>
<g>
	<g id="_x32__1_">
		<path fill="#6D499C" d="M117.203,91.472c-1.917,0-3.47,1.752-3.47,5.937c0,0.188,0.009,0.374,0.023,0.562
			c0.002,0.032,0.004,0.064,0.007,0.098c0.327,3.957,3.44,7.738,3.44,7.738s3.469-4.212,3.469-8.397
			C120.672,93.224,119.118,91.472,117.203,91.472z"/>
		<g>
			<g>
				<g>
					<path fill="#6D499C" d="M104.973,61.195c4.831,0,9.416,2.596,12.639,7.053c3.224-4.457,7.807-7.053,12.638-7.053
						c0.176,0,0.356,0.005,0.538,0.014c-3.926-2.741-8.442-4.305-13.249-4.305c-4.808,0-9.325,1.564-13.25,4.307
						C104.54,61.202,104.784,61.195,104.973,61.195z"/>
					<path fill="#6D499C" d="M139.452,100.869c-2.563,14.439-11.553,29.924-22.249,29.924c-10.903,0-20.032-16.083-22.39-30.752
						c-1.848-1.727-3.409-3.911-4.581-6.419c0.901,18.767,12.781,42.745,27.307,42.745c14.436,0,26.261-23.684,27.29-42.397
						C143.475,96.749,141.63,99.11,139.452,100.869z"/>
				</g>
				<path fill="#6D499C" d="M146.852,54.555c3.792,9.817-15.043,8.755-15.043,8.755l-0.226,0.065
					c-0.439-0.048-0.884-0.077-1.333-0.077c-5.223,0-9.846,3.289-12.638,8.308c-2.792-5.019-7.415-8.308-12.639-8.308
					c-0.403,0-1.08,0.026-1.475,0.063l0.321-0.052c0,0-19.113,1.062-15.322-8.755c0,0-5.734,4.256,3.197,18.303
					c-1.363,2.896-2.148,6.271-2.148,9.875c0,10.716,6.92,19.433,15.427,19.433c2.767,0,5.361-0.93,7.608-2.543
					c-0.15-0.722-0.24-1.465-0.24-2.215c0-5.67,2.512-7.688,4.862-7.688s4.86,2.019,4.86,7.688c0,0.562-0.051,1.118-0.14,1.665
					c2.404,1.953,5.259,3.093,8.326,3.093c8.507,0,15.429-8.717,15.429-19.433c0-3.557-0.766-6.891-2.096-9.762
					C152.615,58.835,146.852,54.555,146.852,54.555z M105.068,93.826c-4.928,0-8.925-5.034-8.925-11.242
					c0-6.209,3.997-11.242,8.925-11.242c4.929,0,8.925,5.033,8.925,11.242C113.994,88.792,109.998,93.826,105.068,93.826z
					 M130.555,93.826c-4.929,0-8.925-5.034-8.925-11.242c0-6.209,3.996-11.242,8.925-11.242c4.929,0,8.924,5.033,8.924,11.242
					C139.479,88.792,135.484,93.826,130.555,93.826z"/>
				<path fill="#6D499C" d="M145.958,94.294c0,0,8.874,9.16-1.266,26.455c-1.886,3.218-4.695,6.873-11.384,8.99
					c6.79-8.177,12.412-20.482,12.777-31.462C146.119,97.282,145.958,94.294,145.958,94.294z"/>
				<path fill="#6D499C" d="M89.042,94.294c0,0-8.874,9.16,1.265,26.455c1.887,3.218,4.696,6.873,11.385,8.99
					c-6.789-8.177-12.412-20.482-12.777-31.462C88.882,97.282,89.042,94.294,89.042,94.294z"/>
				<g>
					<path fill="#333332" d="M105.219,75.774c-0.746,0-1.457,0.188-2.106,0.527c0.763,0.617,1.271,1.693,1.271,2.921
						c0,1.917-1.233,3.471-2.755,3.471c-0.719,0-1.373-0.35-1.864-0.92c-0.033,0.31-0.057,0.622-0.057,0.941
						c0,3.834,2.468,6.941,5.511,6.941c3.043,0,5.51-3.107,5.51-6.941C110.729,78.882,108.263,75.774,105.219,75.774z"/>
				</g>
				<g>
					<path fill="#333332" d="M130.555,75.774c-0.746,0-1.456,0.188-2.105,0.526c0.764,0.618,1.271,1.694,1.271,2.922
						c0,1.917-1.233,3.471-2.755,3.471c-0.72,0-1.374-0.351-1.865-0.921c-0.034,0.309-0.057,0.622-0.057,0.942
						c0,3.834,2.467,6.941,5.51,6.941c3.043,0,5.511-3.107,5.511-6.941C136.066,78.882,133.599,75.774,130.555,75.774z"/>
				</g>
				<ellipse fill="#6D499C" cx="130.618" cy="82.676" rx="5.533" ry="6.866"/>
				<ellipse fill="#6D499C" cx="105.352" cy="82.742" rx="5.533" ry="6.866"/>
			</g>
		</g>
	</g>
	<g>
		<path fill="#6D499C" d="M105.739,121.397c4.357,0.012,8.492-4.89,11.398-13.302c2.908,8.438,7.042,13.352,11.398,13.363
			c0.158,0,0.321-0.009,0.485-0.023c-3.541,5.158-7.614,8.106-11.949,8.106c-4.336,0-8.41-2.967-11.951-8.174
			C105.349,121.386,105.569,121.396,105.739,121.397z"/>
	</g>
</g>
</svg>
